<svg id="Layer_1" data-name="Layer 1" xmlns="http://www.w3.org/2000/svg" viewBox="0 0 351.05 256.77"><defs><style>.cls-1{fill:#ec5331;}.cls-2{fill:#ef755a;}</style></defs><path class="cls-1" d="M339.24,267a57,57,0,0,0,6.39.71c15.41,1.7,30.58,4.37,45,10.33,8.1,3.35,15.25,8.22,22,13.7,25.89,21,48.52,45,66.8,72.92,5.79,8.84,10.73,18.15,13.74,28.35A40.49,40.49,0,0,1,495,409c-.93,8.49-5.45,14.43-13,18.11A98.24,98.24,0,0,1,456.25,435c-14.71,2.64-29.56,3-44.44,2.88-7.36-.05-14.72-.21-22.08-.15-5.34,0-10.71.17-15.94,1.58a16.92,16.92,0,0,0-2.48.86c-3.95,1.74-5.26,4.56-4.1,8.74a15.32,15.32,0,0,0,1.47,3.66c3.69,6.28,3.31,12.65.46,19.06a52.87,52.87,0,0,1-10.61,15c-9.1,9.52-19.7,17.14-30.9,23.94a169.85,169.85,0,0,1-21.94,11.24,26.6,26.6,0,0,1-14.62,1.65c-15.76-2.25-30.59-7.5-45.07-13.83a263,263,0,0,1-60.15-36.05,152.82,152.82,0,0,1-22.57-22.13c-8.42-10.29-13.61-22.09-16.49-35a107.16,107.16,0,0,1-2.38-30.61c1.84-28.35,11.24-53.76,29.77-75.53,10.55-12.39,23.76-21.11,38.52-27.67a194.45,194.45,0,0,1,37.68-12q9.48-2.07,19.09-3.42a1.3,1.3,0,0,0,.41-.2Z" transform="translate(-144.17 -267.02)"/><path class="cls-2" d="M422.25,426.11c-3,0-6.09.13-9.12,0-2.88-.16-5.75-.07-8.61-.23-3.39-.18-6.77-.32-10.15-.47-5.08-.23-10.17-.56-15.24-1-3.17-.25-6.35-.4-9.51-.73a31.71,31.71,0,0,0-13.85,1.74c-5.8,2-9.78,5.93-11.14,12.08a28,28,0,0,0,.25,11.7c.58,2.91,1.59,5.74,1.58,8.78a19.91,19.91,0,0,1-4.18,12c-3.44,4.67-8.07,8-13,10.83-8.59,4.89-17.87,8-27.4,10.45-2.38.61-4.8,1.1-7.23,1.52-1,.18-2.08-.09-3.17,0-2.69.23-5.39.44-8.09.6-4.46.26-8.92.36-13.39.5-2,.06-4,.15-6,.17a60.84,60.84,0,0,1-17.16-2.6,123.78,123.78,0,0,1-23.92-10A170.66,170.66,0,0,1,200.27,467c-4.32-3.27-8.46-6.75-12.46-10.42a107.4,107.4,0,0,1-16.61-18.9,45.11,45.11,0,0,1-7.27-16.15,25.45,25.45,0,0,1-.6-5.08c0-4.19-.12-8.39.25-12.57.63-7.18,2.53-13.89,7-19.74,2.67-3.48,5.59-6.74,8.44-10.06,5.68-6.6,11.58-13,16.35-20.38,2.59-4,4.68-8.2,5.28-12.94a27.23,27.23,0,0,0-.25-8.59,47.91,47.91,0,0,1-1-8.5,24.53,24.53,0,0,1,1.93-9.42,31.08,31.08,0,0,1,7.58-11.49,49.3,49.3,0,0,1,9.58-6.88c9.08-5.08,18.83-8.41,28.74-11.38,10.18-3.05,20.49-5.61,30.75-8.36,3.81-1,7.63-2,11.36-3.28a9.55,9.55,0,0,0,2.07-.92c1.42-.87,3-.59,4.56-.5,2.58.16,5.15.43,7.72.68,3,.28,5.92.6,8.88.9,2.53.26,5.06.5,7.59.77,2.33.25,4.65.52,7,.8,2.91.36,5.83.72,8.73,1.13,3.3.46,6.6.94,9.89,1.49,5.13.84,10.25,1.73,15.34,2.81,8.3,1.77,16.55,3.74,24.38,7.08a51.09,51.09,0,0,1,11.38,7.22c3.44,2.72,6.75,5.57,10,8.52,2.81,2.55,5.53,5.2,8.3,7.79,1.89,1.77,3.77,3.56,5.57,5.43,4.66,4.82,9.33,9.63,13.85,14.58q8,8.73,15.49,17.87c6,7.29,11.75,14.76,17.14,22.5a158,158,0,0,1,13.33,22.39,43,43,0,0,1,4.11,13c.53,4.22-1.16,7.56-4.47,10.1-4.29,3.27-9.34,4.75-14.46,6a98.78,98.78,0,0,1-12.32,2.11c-3.07.35-6.16.6-9.26.82C436.84,426,429.55,426.16,422.25,426.11Z" transform="translate(-144.17 -267.02)"/></svg>