<svg width="162" height="33" fill="none" viewBox="0 0 162 33" xmlns="http://www.w3.org/2000/svg"><rect width="162" height="33" fill="#fff" rx="5"/><path fill="#222" d="M2 4.994v23.012A2.996 2.996 0 0 0 4.998 31h152.004A2.996 2.996 0 0 0 160 28.006V4.994A2.996 2.996 0 0 0 157.002 2H4.998A2.996 2.996 0 0 0 2 4.994Zm-2 0A4.996 4.996 0 0 1 4.998 0h152.004A4.996 4.996 0 0 1 162 4.994v23.012A4.996 4.996 0 0 1 157.002 33H4.998A4.996 4.996 0 0 1 0 28.006V4.994Z"/><path fill="#222" d="M46.898 21h-1.722V10.64h3.71c2.464 0 3.892.994 3.892 3.108 0 1.652-.854 2.59-2.296 2.94L52.918 21h-1.876l-2.324-4.088h-1.82V21Zm0-8.764v3.15h1.918c1.456 0 2.24-.364 2.24-1.596 0-1.19-.77-1.554-2.254-1.554h-1.904Zm10.906 8.918c-1.862 0-3.584-1.134-3.584-3.864 0-2.828 2.002-3.864 3.542-3.864 1.666 0 3.262.994 3.262 4.018v.406h-5.082c.07 1.344.896 1.932 1.988 1.932.966 0 1.526-.322 2.086-.868l.91.896c-.77.854-1.792 1.344-3.122 1.344Zm-1.834-4.592h3.472c-.098-1.134-.658-1.736-1.694-1.736-.84 0-1.61.476-1.778 1.736ZM64.258 21v-5.138c.644-.574 1.218-.966 1.904-.966.812 0 1.05.378 1.05 1.204V21h1.722v-5.138c.644-.574 1.204-.966 1.904-.966.812 0 1.05.378 1.05 1.204V21h1.722v-5.334c0-1.33-.658-2.24-2.17-2.24-1.134 0-2.016.574-2.604 1.218-.294-.728-.784-1.218-2.03-1.218-1.134 0-1.974.532-2.548 1.162v-1.022h-1.722V21h1.722Zm13.02 0v-7.434h-1.736V21h1.736Zm.014-8.722V10.78h-1.764v1.498h1.764ZM80.344 21l1.68-2.604L83.732 21h1.834l-2.576-3.836 2.436-3.598h-1.778l-1.498 2.38-1.554-2.38h-1.834l2.408 3.598L78.58 21h1.764Zm13.118.154c-1.806 0-3.626-1.148-3.626-3.864 0-2.744 1.806-3.864 3.626-3.864 1.806 0 3.626 1.12 3.626 3.864 0 2.716-1.82 3.864-3.626 3.864Zm0-1.442c1.246 0 1.89-.896 1.89-2.422 0-1.386-.588-2.394-1.89-2.394-1.246 0-1.89.896-1.89 2.394 0 1.414.574 2.422 1.89 2.422ZM100.336 21v-5.18c.63-.588 1.26-.966 2.016-.966.784 0 1.12.42 1.12 1.232V21h1.722v-5.404c0-1.47-.84-2.17-2.198-2.17-1.232 0-2.1.686-2.66 1.33v-1.19h-1.722V21h1.722Zm14.35.196c1.596 0 2.506-.952 2.828-1.694h.028V21h1.442v-5.124h-3.766v1.414h2.086c-.112 1.526-1.05 2.338-2.422 2.338-1.47 0-2.856-.994-2.856-3.892 0-2.912 1.554-3.668 2.786-3.668s1.946.518 2.408 2.072l1.624-.434c-.616-2.352-2.058-3.262-4.018-3.262-2.758 0-4.564 2.016-4.564 5.334 0 3.164 1.456 5.418 4.424 5.418Zm8.106-.196V10.64h-1.736V21h1.736Zm3.808 0v-7.434h-1.736V21h1.736Zm.014-8.722V10.78h-1.764v1.498h1.764Zm4.872 8.82c.434 0 1.078-.056 1.26-.098v-1.358c-.168.056-.49.098-.742.098-.854 0-1.092-.322-1.092-1.12v-3.682h1.918v-1.372h-1.918v-2.59h-1.722v2.59h-1.288v1.372h1.288v4.116c0 1.344.406 2.044 2.296 2.044Zm5.81.056c1.792 0 2.674-.994 3.206-2.184l-1.428-.518c-.406 1.05-.952 1.288-1.736 1.288-1.134 0-1.778-.868-1.778-2.45 0-1.778.826-2.422 1.806-2.422.826 0 1.358.406 1.652 1.246l1.456-.518c-.448-1.148-1.232-2.17-3.08-2.17-1.652 0-3.57 1.022-3.57 3.864 0 2.716 1.75 3.864 3.472 3.864ZM143.61 21v-5.138c.63-.574 1.26-.966 2.016-.966s1.106.378 1.106 1.204V21h1.736v-5.334c0-1.47-.84-2.24-2.142-2.24-1.344 0-2.24.644-2.716 1.148V10.64h-1.736V21h1.736Z"/><mask id="a" width="28" height="21" x="12" y="6" maskUnits="userSpaceOnUse" style="mask-type:alpha"><path fill="#fff" d="M24.677 25.621c.288.613.219 1.193.219 1.193s-.295.086-.851.093c-.207.047-1.03.193-2.368-.081-1.557-.319-2.276-1.923-2.276-1.923s.015-.015.044-.04c-.088-.015-.139-.02-.148-.012-1.005.19-1.53.168-2.296.168-.765 0-3.796-1.111-4.773-2.302 0 0 1.517-.358 1.517-.66 0-.302-1.732-.86-1.732-.86s-.263-1.394 1.594-2.786c1.217-.913 2.233-1.51 3.229-1.837-.965-.124-3.691-1.171-4.607-2.29 0 0 1.516-.357 1.516-.66 0-.301-1.732-.86-1.732-.86s-.263-1.393 1.594-2.785c1.856-1.392 3.245-2.053 4.806-2.13 1.561-.077 2.085-.077 2.085-.077S21.857 6 22.57 6c.357 0 5.586 1.073 6.039 1.772.453.698.673.647.905.815.231.167.085.033 1.134.26 2.624.566 2.266.788 4.215 1.132.79.139 4.405-1.577 4.746-1.41.159.077.284 1.553-.337 2.52-.621.968.498 1.767-.004 2.979-.503 1.211.575 2.109.341 2.519-.234.41-4.073-1.342-4.745-1.216-.602.114-2.312.89-5.65 1.483.11.064.203.096.3.165.231.168.085.034 1.134.26 2.624.566 2.266.788 4.215 1.132.79.139 4.405-1.577 4.746-1.41.159.078.284 1.553-.337 2.52-.621.968.498 1.767-.004 2.979-.503 1.211.575 2.109.341 2.519-.234.41-4.073-1.342-4.745-1.215-.673.126-2.728 1.08-6.893 1.682-1.11.16-2.236.185-3.295.135Z"/></mask><g mask="url(#a)"><path fill="url(#b)" d="M24.677 25.621c.288.613.219 1.193.219 1.193s-.295.086-.851.093c-.207.047-1.03.193-2.368-.081-1.557-.319-2.276-1.923-2.276-1.923s.015-.015.044-.04c-.088-.015-.139-.02-.148-.012-1.005.19-1.53.168-2.296.168-.765 0-3.796-1.111-4.773-2.302 0 0 1.517-.358 1.517-.66 0-.302-1.732-.86-1.732-.86s-.263-1.394 1.594-2.786c1.217-.913 2.233-1.51 3.229-1.837-.965-.124-3.691-1.171-4.607-2.29 0 0 1.516-.357 1.516-.66 0-.301-1.732-.86-1.732-.86s-.263-1.393 1.594-2.785c1.856-1.392 3.245-2.053 4.806-2.13 1.561-.077 2.085-.077 2.085-.077S21.857 6 22.57 6c.357 0 5.586 1.073 6.039 1.772.453.698.673.647.905.815.231.167.085.033 1.134.26 2.624.566 2.266.788 4.215 1.132.79.139 4.405-1.577 4.746-1.41.159.077.284 1.553-.337 2.52-.621.968.498 1.767-.004 2.979-.503 1.211.575 2.109.341 2.519-.234.41-4.073-1.342-4.745-1.216-.602.114-2.312.89-5.65 1.483.11.064.203.096.3.165.231.168.085.034 1.134.26 2.624.566 2.266.788 4.215 1.132.79.139 4.405-1.577 4.746-1.41.159.078.284 1.553-.337 2.52-.621.968.498 1.767-.004 2.979-.503 1.211.575 2.109.341 2.519-.234.41-4.073-1.342-4.745-1.215-.673.126-2.728 1.08-6.893 1.682-1.11.16-2.236.185-3.295.135Z"/><path fill="url(#c)" d="M31.389 12.242H12v4.6l4.116-.287 23.777.287v-4.6h-.068v.61h-8.436v-.61Z"/><path fill="url(#d)" d="M28.804 21.783H12v5.972h27.893v-5.972h-.068v.792H28.804v-.792Z"/><path fill="#F49CB1" d="M22.76 18.07a352.896 352.896 0 0 1 1.834.095c.4.023.735.043.993.06.969.065 2.463.282 3.604.502 1.75.337 3.178.836 5.445 1.806l.781.336c.152.065.324-.015.384-.18.06-.164-.014-.35-.165-.415l-.782-.336c-2.301-.985-3.761-1.495-5.559-1.841-1.162-.225-2.677-.444-3.672-.511a93.574 93.574 0 0 0-1.444-.084 355.07 355.07 0 0 0-1.98-.101l-.046-.002c-.228-.011-.38.249-.275.467l.024.053a7.785 7.785 0 0 1 .281.702c.107.305.19.602.242.877.02.102.035.201.045.295.028.272-.036.742-.174 1.336-.049.21-.106.43-.17.66a21.804 21.804 0 0 1-.347 1.127l-.008.022c-.057.165.02.35.173.412s.324-.021.382-.187l.008-.025a14.863 14.863 0 0 0 .107-.324c.086-.268.172-.552.253-.841.066-.238.125-.468.176-.688.155-.664.227-1.193.188-1.564a4.31 4.31 0 0 0-.052-.352 6.827 6.827 0 0 0-.27-.974 9.146 9.146 0 0 0-.123-.333l.146.007Zm0-8.143a347.301 347.301 0 0 1 1.834.096c.4.022.735.043.993.06.969.065 2.463.282 3.604.502 1.75.337 3.178.836 5.445 1.806l.781.336c.152.065.324-.015.384-.18.06-.164-.014-.35-.165-.415l-.782-.336c-2.301-.985-3.761-1.495-5.559-1.842-1.162-.223-2.677-.443-3.672-.51a93.912 93.912 0 0 0-1.444-.085 347.512 347.512 0 0 0-1.98-.1l-.046-.002c-.228-.011-.38.249-.275.467l.024.053a7.688 7.688 0 0 1 .281.702c.107.305.19.602.242.877.02.102.035.201.045.295.028.272-.036.742-.174 1.336-.049.21-.106.43-.17.66a21.86 21.86 0 0 1-.325 1.06l-.022.067-.008.022c-.057.165.02.35.173.412s.324-.021.382-.187l.008-.025a12.003 12.003 0 0 0 .107-.324c.086-.268.172-.552.253-.841.066-.237.125-.468.176-.688.155-.664.227-1.193.188-1.564a4.304 4.304 0 0 0-.052-.352 6.828 6.828 0 0 0-.27-.974 9.147 9.147 0 0 0-.123-.333l.146.007Zm-2.415.105.028.047c.024.041.052.088.08.141.085.151.169.317.247.491.135.302.239.595.297.864.034.159.051.306.051.438 0 .374-.087.785-.234 1.198a5.042 5.042 0 0 1-.234.548.295.295 0 0 0 .103.391c.131.078.297.03.37-.109.02-.034.05-.095.088-.178.062-.136.124-.287.182-.45.168-.472.27-.947.27-1.4 0-.178-.023-.367-.066-.564a4.993 4.993 0 0 0-.335-.983 7.183 7.183 0 0 0-.393-.75.264.264 0 0 0-.377-.081.297.297 0 0 0-.077.397Zm0 8.108c.005.006.014.022.028.046a6.598 6.598 0 0 1 .327.632c.135.301.239.595.297.864.034.159.051.305.051.438 0 .374-.087.785-.234 1.197a5.042 5.042 0 0 1-.234.55.295.295 0 0 0 .103.39c.131.078.297.03.37-.109.02-.034.05-.095.088-.178.062-.136.124-.288.182-.451.168-.472.27-.946.27-1.4 0-.177-.023-.366-.066-.564a4.996 4.996 0 0 0-.335-.982 7.177 7.177 0 0 0-.393-.75.264.264 0 0 0-.377-.082.297.297 0 0 0-.077.398Z"/></g><path fill="#000" d="M16.705 21.296c-.716 0-1.296-.59-1.296-1.319 0-.728.58-1.318 1.296-1.318.716 0 1.296.59 1.296 1.318 0 .729-.58 1.319-1.296 1.319Z"/><path fill="#fff" d="M15.409 19.992v-.015c0-.728.58-1.318 1.296-1.318.716 0 1.296.59 1.296 1.318 0 .729-.58 1.319-1.296 1.319a1.303 1.303 0 0 1-1.278-1.096c.09.468.495.821.98.821.553 0 1-.455 1-1.016 0-.561-.447-1.016-1-1.016-.547 0-.992.448-.998 1.003Z"/><path fill="#fff" d="M16.05 20.686a.328.328 0 0 1-.33-.327.33.33 0 0 1 .33-.327c.183 0 .33.147.33.327 0 .18-.147.327-.33.327Z"/><path fill="#000" d="M16.705 13.154c-.716 0-1.296-.59-1.296-1.319 0-.728.58-1.318 1.296-1.318.716 0 1.296.59 1.296 1.318 0 .728-.58 1.319-1.296 1.319Z"/><path fill="#fff" d="M15.409 11.85v-.015c0-.728.58-1.318 1.296-1.318.716 0 1.296.59 1.296 1.318 0 .728-.58 1.319-1.296 1.319a1.303 1.303 0 0 1-1.278-1.096c.09.468.495.821.98.821.553 0 1-.455 1-1.016 0-.561-.447-1.016-1-1.016-.547 0-.992.448-.998 1.003Z"/><path fill="#fff" d="M16.05 12.544a.328.328 0 0 1-.33-.327.33.33 0 0 1 .33-.327c.183 0 .33.147.33.327 0 .18-.147.327-.33.327Z"/><defs><linearGradient id="b" x1="25.87" x2="25.87" y1="6" y2="26.803" gradientUnits="userSpaceOnUse"><stop stop-color="#E659FF"/><stop offset="1" stop-color="#0037FF"/></linearGradient><linearGradient id="c" x1="12.477" x2="14.686" y1="13.886" y2="21.088" gradientUnits="userSpaceOnUse"><stop stop-color="#F1A5FF"/><stop offset="1" stop-color="#FF686C"/></linearGradient><linearGradient id="d" x1="19.359" x2="20.334" y1="22.83" y2="28.346" gradientUnits="userSpaceOnUse"><stop stop-color="#F1A5FF"/><stop offset="1" stop-color="#FF686C"/></linearGradient></defs></svg>