<svg width="162px" height="33px" viewBox="0 0 162 33" fill="none" xmlns="http://www.w3.org/2000/svg">
<g id="f3620a78-0ad3-4f81-a271-c8a4faa20f86_remix-button 1">
<rect width="162" height="33" rx="5" fill="white"/>
<g id="remix-buttons">
<g id="remix-button">
<path id="Rectangle-864-Copy-20" d="M2 4.99428V28.0057C2 29.6594 3.34215 31 4.99777 31H157.002C158.658 31 160 29.6594 160 28.0057V4.99428C160 3.34057 158.658 2 157.002 2H4.99777C3.34209 2 2 3.34059 2 4.99428ZM0 4.99428C0 2.23548 2.23805 0 4.99777 0H157.002C159.762 0 162 2.23548 162 4.99428V28.0057C162 30.7645 159.762 33 157.002 33H4.99777C2.23809 33 0 30.7645 0 28.0057V4.99428Z" fill="#222222"/>
<path id="Remix-on-Glitch-Copy-8" d="M46.898 21H45.176V10.64H48.886C51.35 10.64 52.778 11.634 52.778 13.748C52.778 15.4 51.924 16.338 50.482 16.688L52.918 21H51.042L48.718 16.912H46.898V21ZM46.898 12.236V15.386H48.816C50.272 15.386 51.056 15.022 51.056 13.79C51.056 12.6 50.286 12.236 48.802 12.236H46.898ZM57.804 21.154C55.942 21.154 54.22 20.02 54.22 17.29C54.22 14.462 56.222 13.426 57.762 13.426C59.428 13.426 61.024 14.42 61.024 17.444V17.85H55.942C56.012 19.194 56.838 19.782 57.93 19.782C58.896 19.782 59.456 19.46 60.016 18.914L60.926 19.81C60.156 20.664 59.134 21.154 57.804 21.154ZM55.97 16.562H59.442C59.344 15.428 58.784 14.826 57.748 14.826C56.908 14.826 56.138 15.302 55.97 16.562ZM64.258 21V15.862C64.902 15.288 65.476 14.896 66.162 14.896C66.974 14.896 67.212 15.274 67.212 16.1V21H68.934V15.862C69.578 15.288 70.138 14.896 70.838 14.896C71.65 14.896 71.888 15.274 71.888 16.1V21H73.61V15.666C73.61 14.336 72.952 13.426 71.44 13.426C70.306 13.426 69.424 14 68.836 14.644C68.542 13.916 68.052 13.426 66.806 13.426C65.672 13.426 64.832 13.958 64.258 14.588V13.566H62.536V21H64.258ZM77.278 21V13.566H75.542V21H77.278ZM77.292 12.278V10.78H75.528V12.278H77.292ZM80.344 21L82.024 18.396L83.732 21H85.566L82.99 17.164L85.426 13.566H83.648L82.15 15.946L80.596 13.566H78.762L81.17 17.164L78.58 21H80.344ZM93.462 21.154C91.656 21.154 89.836 20.006 89.836 17.29C89.836 14.546 91.642 13.426 93.462 13.426C95.268 13.426 97.088 14.546 97.088 17.29C97.088 20.006 95.268 21.154 93.462 21.154ZM93.462 19.712C94.708 19.712 95.352 18.816 95.352 17.29C95.352 15.904 94.764 14.896 93.462 14.896C92.216 14.896 91.572 15.792 91.572 17.29C91.572 18.704 92.146 19.712 93.462 19.712ZM100.336 21V15.82C100.966 15.232 101.596 14.854 102.352 14.854C103.136 14.854 103.472 15.274 103.472 16.086V21H105.194V15.596C105.194 14.126 104.354 13.426 102.996 13.426C101.764 13.426 100.896 14.112 100.336 14.756V13.566H98.614V21H100.336ZM114.686 21.196C116.282 21.196 117.192 20.244 117.514 19.502H117.542V21H118.984V15.876H115.218V17.29H117.304C117.192 18.816 116.254 19.628 114.882 19.628C113.412 19.628 112.026 18.634 112.026 15.736C112.026 12.824 113.58 12.068 114.812 12.068C116.044 12.068 116.758 12.586 117.22 14.14L118.844 13.706C118.228 11.354 116.786 10.444 114.826 10.444C112.068 10.444 110.262 12.46 110.262 15.778C110.262 18.942 111.718 21.196 114.686 21.196ZM122.792 21V10.64H121.056V21H122.792ZM126.6 21V13.566H124.864V21H126.6ZM126.614 12.278V10.78H124.85V12.278H126.614ZM131.486 21.098C131.92 21.098 132.564 21.042 132.746 21V19.642C132.578 19.698 132.256 19.74 132.004 19.74C131.15 19.74 130.912 19.418 130.912 18.62V14.938H132.83V13.566H130.912V10.976H129.19V13.566H127.902V14.938H129.19V19.054C129.19 20.398 129.596 21.098 131.486 21.098ZM137.296 21.154C139.088 21.154 139.97 20.16 140.502 18.97L139.074 18.452C138.668 19.502 138.122 19.74 137.338 19.74C136.204 19.74 135.56 18.872 135.56 17.29C135.56 15.512 136.386 14.868 137.366 14.868C138.192 14.868 138.724 15.274 139.018 16.114L140.474 15.596C140.026 14.448 139.242 13.426 137.394 13.426C135.742 13.426 133.824 14.448 133.824 17.29C133.824 20.006 135.574 21.154 137.296 21.154ZM143.61 21V15.862C144.24 15.288 144.87 14.896 145.626 14.896C146.382 14.896 146.732 15.274 146.732 16.1V21H148.468V15.666C148.468 14.196 147.628 13.426 146.326 13.426C144.982 13.426 144.086 14.07 143.61 14.574V10.64H141.874V21H143.61Z" fill="#222222"/>
<g id="fish-copy-14">
<g id="body">
<mask id="mask0_1_2" style="mask-type:alpha" maskUnits="userSpaceOnUse" x="12" y="6" width="28" height="21">
<g id="mask-3">
<path id="Vector" d="M24.6774 25.621C24.9647 26.234 24.8959 26.8141 24.8959 26.8141C24.8959 26.8141 24.601 26.8998 24.0446 26.9071C23.8383 26.9538 23.0142 27.0998 21.6773 26.826C20.1204 26.5072 19.4005 24.9027 19.4005 24.9027C19.4005 24.9027 19.4156 24.8882 19.4453 24.8637C19.3574 24.8482 19.3065 24.843 19.2969 24.8512C18.292 25.0401 17.7671 25.019 17.0014 25.019C16.2357 25.019 13.205 23.9079 12.2285 22.7167C12.2285 22.7167 13.7445 22.3591 13.7445 22.057C13.7445 21.7548 12.0127 21.1964 12.0127 21.1964C12.0127 21.1964 11.7504 19.8027 13.6067 18.4108C14.8238 17.4983 15.8401 16.9001 16.8357 16.5745C15.8712 16.4501 13.145 15.4026 12.2285 14.2845C12.2285 14.2845 13.7445 13.9269 13.7445 13.6248C13.7445 13.3226 12.0127 12.7643 12.0127 12.7643C12.0127 12.7643 11.7504 11.3705 13.6067 9.97869C15.463 8.58686 16.8522 7.92622 18.4133 7.84895C19.9744 7.77167 20.4978 7.77167 20.4978 7.77167C20.4978 7.77167 21.8568 6 22.5707 6C22.9276 6 28.1568 7.07309 28.6097 7.77167C29.0626 8.47025 29.283 8.41943 29.5145 8.58686C29.746 8.7543 29.6002 8.6204 30.6492 8.84669C33.273 9.41272 32.915 9.63493 34.8645 9.97869C35.6534 10.1178 39.269 8.40219 39.6101 8.56882C39.7689 8.6464 39.8936 10.122 39.2728 11.0894C38.652 12.0569 39.7711 12.8561 39.2686 14.0676C38.766 15.2792 39.8441 16.1767 39.6101 16.5868C39.3761 16.9969 35.5369 15.2446 34.8645 15.3713C34.2626 15.4847 32.5531 16.2606 29.2146 16.8541C29.3243 16.9176 29.4184 16.9495 29.5145 17.019C29.746 17.1865 29.6002 17.0526 30.6492 17.2789C33.273 17.8449 32.915 18.0671 34.8645 18.4108C35.6534 18.55 39.269 16.8344 39.6101 17.001C39.7689 17.0786 39.8936 18.5541 39.2728 19.5216C38.652 20.4891 39.7711 21.2883 39.2686 22.4998C38.766 23.7113 39.8441 24.6089 39.6101 25.019C39.3761 25.4291 35.5369 23.6767 34.8645 23.8035C34.192 23.9302 32.1369 24.8839 27.972 25.4862C26.8626 25.6467 25.7357 25.6706 24.6774 25.621Z" fill="white"/>
</g>
</mask>
<g mask="url(#mask0_1_2)">
<path id="Combined-Shape" d="M24.6774 25.621C24.9647 26.234 24.8959 26.8141 24.8959 26.8141C24.8959 26.8141 24.601 26.8998 24.0446 26.9071C23.8383 26.9538 23.0142 27.0998 21.6773 26.826C20.1204 26.5072 19.4005 24.9027 19.4005 24.9027C19.4005 24.9027 19.4156 24.8882 19.4453 24.8637C19.3574 24.8482 19.3065 24.843 19.2969 24.8512C18.292 25.0401 17.7671 25.019 17.0014 25.019C16.2357 25.019 13.205 23.9079 12.2285 22.7167C12.2285 22.7167 13.7445 22.3591 13.7445 22.057C13.7445 21.7548 12.0127 21.1964 12.0127 21.1964C12.0127 21.1964 11.7504 19.8027 13.6067 18.4108C14.8238 17.4983 15.8401 16.9001 16.8357 16.5745C15.8712 16.4501 13.145 15.4026 12.2285 14.2845C12.2285 14.2845 13.7445 13.9269 13.7445 13.6248C13.7445 13.3226 12.0127 12.7643 12.0127 12.7643C12.0127 12.7643 11.7504 11.3705 13.6067 9.97869C15.463 8.58686 16.8522 7.92622 18.4133 7.84895C19.9744 7.77167 20.4978 7.77167 20.4978 7.77167C20.4978 7.77167 21.8568 6 22.5707 6C22.9276 6 28.1568 7.07309 28.6097 7.77167C29.0626 8.47025 29.283 8.41943 29.5145 8.58686C29.746 8.7543 29.6002 8.6204 30.6492 8.84669C33.273 9.41272 32.915 9.63493 34.8645 9.97869C35.6534 10.1178 39.269 8.40219 39.6101 8.56882C39.7689 8.6464 39.8936 10.122 39.2728 11.0894C38.652 12.0569 39.7711 12.8561 39.2686 14.0676C38.766 15.2792 39.8441 16.1767 39.6101 16.5868C39.3761 16.9969 35.5369 15.2446 34.8645 15.3713C34.2626 15.4847 32.5531 16.2606 29.2146 16.8541C29.3243 16.9176 29.4184 16.9495 29.5145 17.019C29.746 17.1865 29.6002 17.0526 30.6492 17.2789C33.273 17.8449 32.915 18.0671 34.8645 18.4108C35.6534 18.55 39.269 16.8344 39.6101 17.001C39.7689 17.0786 39.8936 18.5541 39.2728 19.5216C38.652 20.4891 39.7711 21.2883 39.2686 22.4998C38.766 23.7113 39.8441 24.6089 39.6101 25.019C39.3761 25.4291 35.5369 23.6767 34.8645 23.8035C34.192 23.9302 32.1369 24.8839 27.972 25.4862C26.8626 25.6467 25.7357 25.6706 24.6774 25.621Z" fill="url(#paint0_linear_1_2)"/>
<path id="Combined-Shape_2" d="M31.3887 12.2415H12V16.8419L16.1159 16.555L39.8926 16.8419V12.2415H39.8246V12.8513H31.3887V12.2415Z" fill="url(#paint1_linear_1_2)"/>
<path id="Combined-Shape-Copy" d="M28.8036 21.7831H12V27.7554H39.8926V21.7831H39.8246V22.5747H28.8036V21.7831Z" fill="url(#paint2_linear_1_2)"/>
<path id="Path-11-Copy-5" d="M22.7591 18.0691C23.2333 18.0927 23.7075 18.117 24.15 18.1408C24.3044 18.1491 24.4526 18.1572 24.5936 18.1651C24.9935 18.1875 25.329 18.2076 25.5867 18.2248C26.5559 18.2899 28.05 18.5066 29.1913 18.7267C30.9407 19.0639 32.3688 19.5629 34.6365 20.5334C34.8094 20.6075 35.4032 20.863 35.417 20.8689C35.569 20.9341 35.7411 20.8539 35.8014 20.6896C35.8618 20.5253 35.7875 20.3392 35.6356 20.274C35.6222 20.2683 35.0279 20.0125 34.8544 19.9383C32.5529 18.9532 31.0925 18.443 29.2953 18.0965C28.1335 17.8725 26.6185 17.6527 25.6234 17.586C25.3633 17.5685 25.0259 17.5483 24.6241 17.5258C24.4827 17.5179 24.3342 17.5098 24.1794 17.5015C23.7361 17.4777 23.2612 17.4533 22.7863 17.4297C22.6201 17.4214 22.4658 17.4139 22.3273 17.4072C22.2788 17.4048 22.2358 17.4027 22.1986 17.4009C22.161 17.3991 22.161 17.3991 22.1531 17.3988C21.9253 17.3879 21.7722 17.6478 21.8775 17.8664C21.8816 17.8748 21.89 17.8927 21.9022 17.9193C21.9229 17.9648 21.9462 18.0173 21.9714 18.0761C22.0435 18.2447 22.1158 18.4286 22.1831 18.6211C22.2897 18.9261 22.3735 19.2227 22.4255 19.4976C22.445 19.6005 22.4598 19.6991 22.4696 19.793C22.498 20.0651 22.4344 20.535 22.2963 21.129C22.2474 21.3389 22.1904 21.5599 22.1268 21.7882C22.0489 22.0679 21.9654 22.3441 21.8818 22.6042C21.8526 22.6952 21.8255 22.7776 21.8012 22.8499C21.7928 22.8751 21.7853 22.8972 21.7789 22.916C21.7751 22.927 21.7724 22.9347 21.7713 22.938C21.7138 23.1034 21.7912 23.288 21.9442 23.3502C22.0972 23.4124 22.2679 23.3287 22.3255 23.1632C22.3272 23.1584 22.33 23.1501 22.3342 23.138C22.341 23.118 22.3489 23.0947 22.3577 23.0684C22.3829 22.9933 22.411 22.9081 22.4411 22.8142C22.5272 22.5461 22.6133 22.2616 22.6937 21.9728C22.7598 21.7355 22.8192 21.5052 22.8704 21.2851C23.025 20.6206 23.0966 20.0916 23.0579 19.7211C23.046 19.6075 23.0284 19.4902 23.0055 19.3692C22.9465 19.0575 22.8539 18.7293 22.7368 18.3947C22.6969 18.2804 22.6554 18.1692 22.6132 18.0619C22.6607 18.0643 22.7094 18.0667 22.7591 18.0691Z" fill="#F49CB1"/>
<path id="Path-11-Copy-8" d="M22.7591 9.92712C23.2333 9.95068 23.7075 9.97501 24.15 9.9988C24.3044 10.0071 24.4526 10.0152 24.5936 10.0231C24.9935 10.0454 25.329 10.0655 25.5867 10.0828C26.5559 10.1479 28.05 10.3646 29.1913 10.5847C30.9407 10.9219 32.3688 11.4208 34.6365 12.3914C34.8094 12.4654 35.4032 12.7209 35.417 12.7269C35.569 12.7921 35.7411 12.7119 35.8014 12.5476C35.8618 12.3833 35.7875 12.1972 35.6356 12.132C35.6222 12.1262 35.0279 11.8705 34.8544 11.7962C32.5529 10.8112 31.0925 10.301 29.2953 9.95449C28.1335 9.73052 26.6185 9.51071 25.6234 9.44394C25.3633 9.42649 25.0259 9.40628 24.6241 9.38383C24.4827 9.37593 24.3342 9.3678 24.1794 9.35947C23.7361 9.33564 23.2612 9.31127 22.7863 9.28768C22.6201 9.27943 22.4658 9.27186 22.3273 9.26514C22.2788 9.26278 22.2358 9.2607 22.1986 9.25892C22.161 9.25712 22.161 9.25712 22.1531 9.25674C21.9253 9.24589 21.7722 9.50576 21.8775 9.72436C21.8816 9.73277 21.89 9.7507 21.9022 9.77732C21.9229 9.82276 21.9462 9.87527 21.9714 9.93404C22.0435 10.1026 22.1158 10.2866 22.1831 10.479C22.2897 10.7841 22.3735 11.0807 22.4255 11.3556C22.445 11.4584 22.4598 11.5571 22.4696 11.651C22.498 11.9231 22.4344 12.393 22.2963 12.987C22.2474 13.1969 22.1904 13.4179 22.1268 13.6462C22.0489 13.9259 21.9654 14.202 21.8818 14.4622C21.8526 14.5532 21.8255 14.6356 21.8012 14.7079C21.7928 14.7331 21.7853 14.7551 21.7789 14.7739C21.7751 14.785 21.7724 14.7927 21.7713 14.7959C21.7138 14.9614 21.7912 15.146 21.9442 15.2082C22.0972 15.2704 22.2679 15.1867 22.3255 15.0212C22.3272 15.0164 22.33 15.0081 22.3342 14.996C22.341 14.976 22.3489 14.9527 22.3577 14.9263C22.3829 14.8513 22.411 14.7661 22.4411 14.6721C22.5272 14.4041 22.6133 14.1196 22.6937 13.8308C22.7598 13.5935 22.8192 13.3631 22.8704 13.1431C23.025 12.4786 23.0966 11.9496 23.0579 11.5791C23.046 11.4655 23.0284 11.3481 23.0055 11.2272C22.9465 10.9154 22.8539 10.5873 22.7368 10.2526C22.6969 10.1384 22.6554 10.0271 22.6132 9.91989C22.6607 9.92224 22.7094 9.92465 22.7591 9.92712Z" fill="#F49CB1"/>
<path id="Path-11-Copy-4" d="M20.3449 10.0324C20.3495 10.0397 20.3593 10.0557 20.3734 10.0794C20.3975 10.1201 20.4246 10.1672 20.4538 10.22C20.5378 10.3714 20.6218 10.5373 20.7001 10.7115C20.8354 11.0127 20.9385 11.3058 20.9965 11.5755C21.0305 11.7339 21.0481 11.8805 21.0481 12.0128C21.0481 12.3875 20.9605 12.7981 20.8138 13.2106C20.7617 13.3568 20.706 13.4925 20.6505 13.6138C20.6312 13.6558 20.6134 13.6929 20.5976 13.7246C20.5886 13.7428 20.5825 13.7546 20.5798 13.7595C20.506 13.8976 20.5523 14.0726 20.6832 14.1504C20.8141 14.2283 20.9801 14.1794 21.0539 14.0414C21.0724 14.0069 21.1025 13.9463 21.1406 13.8633C21.203 13.727 21.2652 13.5755 21.3233 13.4122C21.4911 12.9406 21.5923 12.466 21.5923 12.0128C21.5923 11.8348 21.5697 11.6464 21.5272 11.4486C21.4594 11.133 21.343 10.802 21.192 10.4658C21.1065 10.2756 21.0152 10.0954 20.9237 9.93037C20.8684 9.83058 20.8249 9.75719 20.7988 9.71567C20.7159 9.5835 20.547 9.54725 20.4217 9.63471C20.2964 9.72216 20.262 9.9002 20.3449 10.0324Z" fill="#F49CB1"/>
<path id="Path-11-Copy-6" d="M20.3449 18.1391C20.3495 18.1465 20.3593 18.1624 20.3734 18.1862C20.3975 18.2268 20.4246 18.2739 20.4538 18.3267C20.5378 18.4782 20.6218 18.644 20.7001 18.8182C20.8354 19.1194 20.9385 19.4126 20.9965 19.6823C21.0305 19.8407 21.0481 19.9873 21.0481 20.1195C21.0481 20.4942 20.9605 20.9048 20.8138 21.3173C20.7617 21.4635 20.706 21.5992 20.6505 21.7205C20.6312 21.7626 20.6134 21.7997 20.5976 21.8313C20.5886 21.8495 20.5825 21.8613 20.5798 21.8663C20.506 22.0043 20.5523 22.1794 20.6832 22.2572C20.8141 22.335 20.9801 22.2862 21.0539 22.1481C21.0724 22.1136 21.1025 22.0531 21.1406 21.9701C21.203 21.8338 21.2652 21.6823 21.3233 21.519C21.4911 21.0473 21.5923 20.5727 21.5923 20.1195C21.5923 19.9415 21.5697 19.7531 21.5272 19.5554C21.4594 19.2398 21.343 18.9088 21.192 18.5725C21.1065 18.3823 21.0152 18.2021 20.9237 18.0371C20.8684 17.9373 20.8249 17.8639 20.7988 17.8224C20.7159 17.6902 20.547 17.654 20.4217 17.7414C20.2964 17.8289 20.262 18.0069 20.3449 18.1391Z" fill="#F49CB1"/>
</g>
</g>
<g id="eye">
<path id="Oval-2-Copy-2" d="M16.7049 21.2958C15.9889 21.2958 15.4085 20.7055 15.4085 19.9774C15.4085 19.2493 15.9889 18.6591 16.7049 18.6591C17.421 18.6591 18.0014 19.2493 18.0014 19.9774C18.0014 20.7055 17.421 21.2958 16.7049 21.2958Z" fill="black"/>
<path id="Combined-Shape_3" d="M15.4085 19.992C15.4085 19.9872 15.4085 19.9823 15.4085 19.9774C15.4085 19.2493 15.9889 18.6591 16.7049 18.6591C17.421 18.6591 18.0014 19.2493 18.0014 19.9774C18.0014 20.7055 17.421 21.2958 16.7049 21.2958C16.0635 21.2958 15.5308 20.8221 15.4269 20.1999C15.5163 20.6679 15.9215 21.0211 16.4078 21.0211C16.9598 21.0211 17.4072 20.5661 17.4072 20.0049C17.4072 19.4436 16.9598 18.9887 16.4078 18.9887C15.8601 18.9887 15.4153 19.4367 15.4085 19.992Z" fill="white"/>
<path id="Oval-6" d="M16.0504 20.6856C15.868 20.6856 15.7201 20.5394 15.7201 20.359C15.7201 20.1786 15.868 20.0324 16.0504 20.0324C16.2329 20.0324 16.3808 20.1786 16.3808 20.359C16.3808 20.5394 16.2329 20.6856 16.0504 20.6856Z" fill="white"/>
</g>
<g id="eye-copy-4">
<path id="Oval-2-Copy-2_2" d="M16.7049 13.1537C15.9889 13.1537 15.4085 12.5635 15.4085 11.8354C15.4085 11.1073 15.9889 10.5171 16.7049 10.5171C17.421 10.5171 18.0014 11.1073 18.0014 11.8354C18.0014 12.5635 17.421 13.1537 16.7049 13.1537Z" fill="black"/>
<path id="Combined-Shape_4" d="M15.4085 11.85C15.4085 11.8452 15.4085 11.8403 15.4085 11.8354C15.4085 11.1073 15.9889 10.5171 16.7049 10.5171C17.421 10.5171 18.0014 11.1073 18.0014 11.8354C18.0014 12.5635 17.421 13.1537 16.7049 13.1537C16.0635 13.1537 15.5308 12.68 15.4269 12.0579C15.5163 12.5258 15.9215 12.8791 16.4078 12.8791C16.9598 12.8791 17.4072 12.4241 17.4072 11.8629C17.4072 11.3016 16.9598 10.8467 16.4078 10.8467C15.8601 10.8467 15.4153 11.2947 15.4085 11.85Z" fill="white"/>
<path id="Oval-6_2" d="M16.0504 12.5436C15.868 12.5436 15.7201 12.3974 15.7201 12.217C15.7201 12.0366 15.868 11.8903 16.0504 11.8903C16.2329 11.8903 16.3808 12.0366 16.3808 12.217C16.3808 12.3974 16.2329 12.5436 16.0504 12.5436Z" fill="white"/>
</g>
</g>
</g>
</g>
</g>
<defs>
<linearGradient id="paint0_linear_1_2" x1="25.8697" y1="6" x2="25.8697" y2="26.8034" gradientUnits="userSpaceOnUse">
<stop stop-color="#E659FF"/>
<stop offset="1" stop-color="#0037FF"/>
</linearGradient>
<linearGradient id="paint1_linear_1_2" x1="12.4766" y1="13.8865" x2="14.6857" y2="21.0883" gradientUnits="userSpaceOnUse">
<stop stop-color="#F1A5FF"/>
<stop offset="1" stop-color="#FF686C"/>
</linearGradient>
<linearGradient id="paint2_linear_1_2" x1="19.3593" y1="22.83" x2="20.3345" y2="28.3462" gradientUnits="userSpaceOnUse">
<stop stop-color="#F1A5FF"/>
<stop offset="1" stop-color="#FF686C"/>
</linearGradient>
</defs>
</svg>
