<svg width="193" height="153" viewBox="0 0 193 153" xmlns="http://www.w3.org/2000/svg"><defs><filter id="a" width="116.6%" height="121.5%" x="-8.3%" y="-10.8%" filterUnits="objectBoundingBox"><feOffset dx=".5" dy="2.5" in="SourceAlpha" result="shadowOffsetOuter1"/><feGaussianBlur in="shadowOffsetOuter1" result="shadowBlurOuter1" stdDeviation="2"/><feColorMatrix in="shadowBlurOuter1" result="shadowMatrixOuter1" values="0 0 0 0 0 0 0 0 0 0 0 0 0 0 0 0 0 0 0.5 0"/><feMerge><feMergeNode in="shadowMatrixOuter1"/><feMergeNode in="SourceGraphic"/></feMerge></filter><filter id="b" width="132%" height="143%" x="-16%" y="-21.5%" filterUnits="objectBoundingBox"><feOffset dx="1" dy="5" in="SourceAlpha" result="shadowOffsetOuter1"/><feGaussianBlur in="shadowOffsetOuter1" result="shadowBlurOuter1" stdDeviation="2"/><feColorMatrix in="shadowBlurOuter1" result="shadowMatrixOuter1" values="0 0 0 0 0 0 0 0 0 0 0 0 0 0 0 0 0 0 0.5 0"/><feMerge><feMergeNode in="shadowMatrixOuter1"/><feMergeNode in="SourceGraphic"/></feMerge></filter></defs><g fill="none" fill-rule="evenodd"><g filter="url(#a)" transform="translate(10 10)"><path fill="#009D8D" d="M48.69 51.838a1.76 1.76 0 0 0-1.76 1.759v18.392c0 .97.788 1.76 1.76 1.76h14.692v22.85s-3.298 1.124-12.42 1.124c-10.76 0-25.792-3.926-25.792-36.943 0-33.022 15.653-37.367 30.348-37.367 12.721 0 18.2 2.236 21.688 3.314 1.097.335 2.11-.754 2.11-1.726l4.2-17.77c0-.455-.154-1.003-.671-1.373C81.429 4.848 72.789.02 50.962.02 25.82.02.027 10.704.027 62.068c0 51.364 29.529 59.018 54.413 59.018 20.604 0 33.102-8.793 33.102-8.793.516-.285.572-1.003.572-1.333V53.597a1.76 1.76 0 0 0-1.76-1.76H48.69Z"/><path fill="#05CAB6" d="M79.316 51.838c-.972 0 2.242 9.258 2.242 10.23l4.796 1.332c0 .969 1.76.016 1.76.016.343-.19.343-3.463 0-9.82 0-.971-.788-1.758-1.76-1.758h-7.038Zm-36.565 68.554c7.393.99 14.565.708 18.144.43-.25-3.872-1.326-7.71-3.225-11.51-5.867-1.324-12.18.885-12.18.885-2.739 5.933-2.739 5.933-2.739 10.195Z"/><path fill="#009D8D" d="M112.6 77.356V35.795c0-.79-.638-1.435-1.426-1.435H93.985c-.788 0-1.493.812-1.493 1.601v59.544c0 1.75 1.093 2.27 2.506 2.27h15.486c1.7 0 2.116-.832 2.116-2.298v-18.12m1.352-59.34c0-6.211-4.995-11.23-11.16-11.23-6.157 0-11.157 5.019-11.157 11.23 0 6.204 5 11.237 11.158 11.237 6.164 0 11.159-5.033 11.159-11.237"/><path fill="#05CAB6" d="M97.706 50.632c0-.79-5.214-6.816-5.214-6.027V62.33c0 1.75 3.126-2.417 3.894-3.42.768-1.003 1.32-8.277 1.32-8.277Z"/><path fill="#009D8D" d="M158.077 35.772h-12.31l-.018-16.237c0-.615-.318-.922-1.03-.922h-16.774c-.653 0-1.003.287-1.003.912v16.78s-8.406 2.027-8.975 2.19a1.36 1.36 0 0 0-.982 1.307v10.544c0 .759.606 1.37 1.356 1.37h8.601v25.367c0 18.842 13.237 20.693 22.168 20.693 4.082 0 8.965-1.309 9.77-1.606.488-.179.77-.683.77-1.23l.015-11.598c0-.757-.64-1.37-1.36-1.37-.719 0-2.553.292-4.442.292-6.048 0-8.096-2.808-8.096-6.441V51.716h12.31c.75 0 1.358-.611 1.358-1.37V37.138a1.36 1.36 0 0 0-1.358-1.366"/><path fill="#05CAB6" d="m150.554 35.99-.333 14.356 7.856 1.37c.75 0 1.358-.611 1.358-1.37V35.581c0-.505-2.96-.368-8.881.41Z"/></g><g stroke="#1C2B39" stroke-width="5" filter="url(#b)" transform="translate(52 44)"><path stroke-linecap="round" d="m86.31 52.521 23.662-34.31m-95.34 56.215 26.463-46.021m33.483 25.006L52.136 27.316"/><path d="M90.1 60.551c0-5.208-4.182-9.416-9.343-9.416-5.156 0-9.343 4.208-9.343 9.416 0 5.202 4.187 9.422 9.343 9.422 5.16 0 9.343-4.22 9.343-9.422M55.233 20.072c0-5.208-4.182-9.416-9.343-9.416-5.156 0-9.342 4.208-9.342 9.416 0 5.202 4.186 9.421 9.342 9.421 5.161 0 9.343-4.219 9.343-9.42M125 9.416C125 4.208 120.818 0 115.657 0c-5.156 0-9.343 4.208-9.343 9.416 0 5.202 4.187 9.422 9.343 9.422 5.16 0 9.343-4.22 9.343-9.422M18.686 83.579c0-5.208-4.183-9.417-9.344-9.417C4.187 74.162 0 78.371 0 83.58 0 88.78 4.187 93 9.342 93c5.161 0 9.344-4.22 9.344-9.421"/></g></g></svg>