<?xml version="1.0" encoding="UTF-8"?>
<svg width="193px" height="153px" viewBox="0 0 193 153" version="1.1" xmlns="http://www.w3.org/2000/svg" xmlns:xlink="http://www.w3.org/1999/xlink">
    <title>Logo</title>
    <defs>
        <filter x="-8.3%" y="-10.8%" width="116.6%" height="121.5%" filterUnits="objectBoundingBox" id="filter-1">
            <feOffset dx="0.5" dy="2.5" in="SourceAlpha" result="shadowOffsetOuter1"></feOffset>
            <feGaussianBlur stdDeviation="2" in="shadowOffsetOuter1" result="shadowBlurOuter1"></feGaussianBlur>
            <feColorMatrix values="0 0 0 0 0   0 0 0 0 0   0 0 0 0 0  0 0 0 0.5 0" type="matrix" in="shadowBlurOuter1" result="shadowMatrixOuter1"></feColorMatrix>
            <feMerge>
                <feMergeNode in="shadowMatrixOuter1"></feMergeNode>
                <feMergeNode in="SourceGraphic"></feMergeNode>
            </feMerge>
        </filter>
        <filter x="-16.0%" y="-21.5%" width="132.0%" height="143.0%" filterUnits="objectBoundingBox" id="filter-2">
            <feOffset dx="1" dy="5" in="SourceAlpha" result="shadowOffsetOuter1"></feOffset>
            <feGaussianBlur stdDeviation="2" in="shadowOffsetOuter1" result="shadowBlurOuter1"></feGaussianBlur>
            <feColorMatrix values="0 0 0 0 0   0 0 0 0 0   0 0 0 0 0  0 0 0 0.5 0" type="matrix" in="shadowBlurOuter1" result="shadowMatrixOuter1"></feColorMatrix>
            <feMerge>
                <feMergeNode in="shadowMatrixOuter1"></feMergeNode>
                <feMergeNode in="SourceGraphic"></feMergeNode>
            </feMerge>
        </filter>
    </defs>
    <g id="Android-Icon" stroke="none" stroke-width="1" fill="none" fill-rule="evenodd">
        <g id="xxxhdpi/icon" transform="translate(-5.000000, -25.000000)">
            <g id="Logo" transform="translate(15.000000, 35.000000)">
                <g id="Git" filter="url(#filter-1)">
                    <g id="G" transform="translate(0.026515, 0.019893)">
                        <path d="M48.6633329,51.8178993 C47.6914599,51.8178993 46.9037575,52.6046573 46.9037575,53.5766081 L46.9037575,71.9690974 C46.9037575,72.9385623 47.6914599,73.7290491 48.6633329,73.7290491 L63.3559113,73.7290491 L63.3559113,96.5798341 C63.3559113,96.5798341 60.0570186,97.7034191 50.9355992,97.7034191 C40.1753107,97.7034191 25.1430123,93.7770862 25.1430123,60.7605916 C25.1430123,27.7378825 40.7962641,23.392691 55.4913313,23.392691 C68.2127871,23.392691 73.6918608,25.6286749 77.1799016,26.7075153 C78.276214,27.0418564 79.289152,25.9530727 79.289152,24.981122 L83.4902315,7.21132742 C83.4902315,6.75642466 83.3359264,6.20830412 82.8182579,5.83791881 C81.4021357,4.82868098 72.7622973,0 50.9355992,0 C25.7925868,0 0,10.6840004 0,62.0482399 C0,113.412479 29.5295067,121.06628 54.4136847,121.06628 C75.0171421,121.06628 87.5158511,112.272737 87.5158511,112.272737 C88.0310309,111.988112 88.0870287,111.269713 88.0870287,110.940344 L88.0870287,53.5766081 C88.0870287,52.6046573 87.2993263,51.8178993 86.3274533,51.8178993 L48.6633329,51.8178993 Z" id="Fill-11" fill="#009D8D"></path>
                        <g id="Mask" transform="translate(42.724647, 51.817899)" fill="#05CAB6">
                            <path d="M36.5645047,-3.74522775e-15 C35.5926318,-3.74522775e-15 38.8070615,9.25838986 38.8070615,10.2303406 L43.602806,11.5617266 C43.602806,12.5311915 45.3623813,11.5781983 45.3623813,11.5781983 C45.7058345,11.3884483 45.7058345,8.11528513 45.3623813,1.75870877 C45.3623813,0.786758059 44.5746789,-3.74522775e-15 43.602806,-3.74522775e-15 L36.5645047,-3.74522775e-15 Z" id="Fill-11"></path>
                            <path d="M-3.74761624e-15,68.5542756 C7.39319122,69.5445505 14.5648537,69.262042 18.1437522,68.9851352 C17.8932959,65.1121216 16.8181955,61.2750495 14.9184509,57.4739189 C9.05193686,56.1505801 2.73911906,58.3590528 2.73911906,58.3590528 C-3.74761624e-15,64.2920932 -3.74761624e-15,64.2920932 -3.74761624e-15,68.5542756 Z" id="Fill-11"></path>
                        </g>
                    </g>
                    <g id="i" transform="translate(91.608015, 6.786335)">
                        <path d="M20.9922625,70.5697869 C20.9922625,68.2617684 20.9922625,29.008289 20.9922625,29.008289 C20.9922625,28.2187569 20.3538565,27.5736021 19.5657134,27.5736021 L2.37731382,27.5736021 C1.58917071,27.5736021 0.883990036,28.3853461 0.883990036,29.1748783 C0.883990036,29.1748783 0.883990036,79.1859857 0.883990036,88.7189303 C0.883990036,90.4686224 1.97666597,90.9895925 3.39006253,90.9895925 C3.39006253,90.9895925 10.7271791,90.9895925 18.8757087,90.9895925 C20.5754269,90.9895925 20.9922625,90.1566462 20.9922625,88.6906606 C20.9922625,85.4992141 20.9922625,72.9959324 20.9922625,70.5697869" id="Fill-15" fill="#009D8D"></path>
                        <path d="M22.3438021,11.2306533 C22.3438021,5.01917897 17.3487272,0 11.1848514,0 C5.02706841,0 0.0269161283,5.01917897 0.0269161283,11.2306533 C0.0269161283,17.4350427 5.02706841,22.4673795 11.1848514,22.4673795 C17.3487272,22.4673795 22.3438021,17.4350427 22.3438021,11.2306533" id="Fill-14" fill="#009D8D"></path>
                        <path d="M6.0984105,43.8456123 C6.0984105,43.0560801 0.883990036,37.0294585 0.883990036,37.8189907 C0.883990036,37.8189907 0.883990036,46.00958 0.883990036,55.5425246 C0.883990036,57.2922167 4.0102495,53.1260897 4.77793101,52.1226624 C5.54561251,51.1192351 6.0984105,43.8456123 6.0984105,43.8456123 Z" id="Mask" fill="#05CAB6"></path>
                    </g>
                    <g id="t" transform="translate(116.984540, 18.613005)">
                        <path d="M41.0929423,17.1592095 L28.7825853,17.1592095 C28.7825853,17.1592095 28.7642892,0.92492629 28.7642892,0.922041905 C28.7642892,0.306706327 28.4465156,0 27.7348953,0 L10.9603006,0 C10.3074203,0 9.95786934,0.286515628 9.95786934,0.912427286 L9.95786934,17.6918593 C9.95786934,17.6918593 1.55131298,19.7186209 0.982209334,19.8820694 C0.416957492,20.0455179 -1.12428487e-14,20.5666302 -1.12428487e-14,21.188696 L-1.12428487e-14,31.733048 C-1.12428487e-14,32.4916414 0.606658707,33.1031312 1.35679701,33.1031312 L9.95786934,33.1031312 C9.95786934,33.1031312 9.95786934,44.1320599 9.95786934,58.4703403 C9.95786934,77.312108 23.1945845,79.1629221 32.1259488,79.1629221 C36.2078953,79.1629221 41.0900534,77.8543725 41.8960429,77.5572808 C42.3832957,77.3784489 42.6664031,76.8736814 42.6664031,76.3275711 L42.6808474,64.7284955 C42.6808474,63.971825 42.0404854,63.3593738 41.3201986,63.3593738 C40.6018376,63.3593738 38.7674172,63.6506967 36.8781087,63.6506967 C30.8307806,63.6506967 28.7825853,60.8432282 28.7825853,57.2098639 C28.7825853,53.579384 28.7816223,33.1031312 28.7816223,33.1031312 L41.0929423,33.1031312 C41.8430806,33.1031312 42.4507023,32.4916414 42.4507023,31.733048 L42.4507023,18.5254467 C42.4507023,17.7687763 41.8430806,17.1592095 41.0929423,17.1592095" id="Fill-18" fill="#009D8D"></path>
                        <path d="M33.5692004,17.3771449 C33.5692004,17.3771449 33.2366993,31.733048 33.2366993,31.733048 L41.0929423,33.1031312 C41.8430806,33.1031312 42.4507023,32.4916414 42.4507023,31.733048 L42.4507023,16.9675614 C42.4507023,16.4631144 39.4902016,16.5996422 33.5692004,17.3771449 Z" id="Mask" fill="#05CAB6"></path>
                    </g>
                </g>
                <g id="Chart" filter="url(#filter-2)" transform="translate(42.000000, 34.000000)" stroke="#1C2B39" stroke-width="5">
                    <line x1="86.3103085" y1="52.520752" x2="109.972317" y2="18.210713" id="Line" stroke-linecap="round"></line>
                    <line x1="14.6322172" y1="74.4263923" x2="41.095439" y2="28.4047535" id="Line" stroke-linecap="round"></line>
                    <line x1="74.5781703" y1="53.4114934" x2="52.1355128" y2="27.3160695" id="Line" stroke-linecap="round"></line>
                    <path d="M90.1001846,60.551374 C90.1001846,55.3434306 85.9178512,51.1351543 80.756891,51.1351543 C75.6010322,51.1351543 71.4144477,55.3434306 71.4144477,60.551374 C71.4144477,65.7533771 75.6010322,69.9726853 80.756891,69.9726853 C85.9178512,69.9726853 90.1001846,65.7533771 90.1001846,60.551374" id="Fill-14"></path>
                    <path d="M55.2333245,20.072126 C55.2333245,14.8641826 51.0509912,10.6559063 45.890031,10.6559063 C40.7341722,10.6559063 36.5475877,14.8641826 36.5475877,20.072126 C36.5475877,25.2741291 40.7341722,29.4934374 45.890031,29.4934374 C51.0509912,29.4934374 55.2333245,25.2741291 55.2333245,20.072126" id="Fill-14"></path>
                    <path d="M125,9.41621968 C125,4.20827626 120.817667,0 115.656706,0 C110.500848,0 106.314263,4.20827626 106.314263,9.41621968 C106.314263,14.6182228 110.500848,18.837531 115.656706,18.837531 C120.817667,18.837531 125,14.6182228 125,9.41621968" id="Fill-14"></path>
                    <path d="M18.6857369,83.5786886 C18.6857369,78.3707452 14.5034035,74.162469 9.34244332,74.162469 C4.18658454,74.162469 0,78.3707452 0,83.5786886 C0,88.7806918 4.18658454,93 9.34244332,93 C14.5034035,93 18.6857369,88.7806918 18.6857369,83.5786886" id="Fill-14"></path>
                </g>
            </g>
        </g>
    </g>
</svg>