<svg width="1133" height="905" viewBox="0 0 1133 905" xmlns="http://www.w3.org/2000/svg"><g fill="none"><path fill="#F6D809" d="M856.651 494.939a891.26 891.26 0 0 0-376.7-376.216c-.408-.216-.807-.451-1.221-.667a71.14 71.14 0 0 1-7-4.251c-44.271 96.676-177.318 422.322-242.634 582.965-13.637 33.533 20.2 66.724 53.486 52.5l8.434-3.6v136.657a21.674 21.674 0 1 0 43.347 0V727.146l23.227-9.927v37.163c0 11.97 9.704 21.674 21.674 21.674 11.97 0 21.674-9.704 21.674-21.674v-55.687l23.227-9.922v135.92c0 11.97 9.704 21.674 21.674 21.674 11.97 0 21.674-9.704 21.674-21.674V670.252l92.547-39.542v16.158a21.673 21.673 0 1 0 43.346 0v-34.677l23.228-9.923v89.444c0 11.97 9.703 21.673 21.673 21.673 11.97 0 21.673-9.703 21.673-21.673v-107.97l23.229-9.922v25.115a21.673 21.673 0 1 0 43.346 0v-43.636l23.227-9.927v12.925c0 11.97 9.704 21.674 21.674 21.674 11.97 0 21.674-9.704 21.674-21.674v-31.445l57.67-24.638c-1.023-1.623-2.012-3.277-2.908-5-.397-.765-.839-1.509-1.241-2.275Z"/><g transform="translate(320.087 516.028)"><path fill="#ED5332" d="m37.509 201.25-23.227 9.923v-20.865c.001-6.414 5.201-11.613 11.615-11.612 6.412.002 11.61 5.2 11.611 11.612l.001 10.942zm66.574-28.447-23.227 9.927v-32.766a11.61 11.61 0 0 1 11.613-11.613 11.613 11.613 0 0 1 11.613 11.613l.001 22.839zM306.55 86.086l-23.229 9.922V63.247a11.613 11.613 0 1 1 23.228 0l.001 22.839zm66.574-28.236-23.229 9.923v-56.16a11.612 11.612 0 0 1 19.826-8.212 11.613 11.613 0 0 1 3.402 8.212l.001 46.237zm66.572-28.591-23.227 9.923V24.818a11.61 11.61 0 0 1 11.613-11.612 11.61 11.61 0 0 1 11.614 11.612v4.441z"/><rect width="5.92" height="34.022" x="468.762" y="13.203" fill="#FAE86B" rx=".354"/><rect width="5.92" height="84.164" x="269.039" y="51.633" fill="#FAE86B" rx=".354"/><rect width="5.92" height="104.963" x="66.574" y="138.351" fill="#FAE86B" rx=".354"/><rect width="5.92" height="152.559" y="178.696" fill="#FAE86B" rx=".354"/><rect width="5.92" height="175.275" x="133.148" y="138.351" fill="#FAE86B" rx=".354"/><rect width="5.92" height="74.664" x="402.188" y="13.203" fill="#FAE86B" rx=".354"/><rect width="5.92" height="180.642" x="335.592" y=".001" fill="#FAE86B" rx=".354"/></g><path fill="#ED5332" d="M479.954 118.723a75.516 75.516 0 0 0 10.213 12.916v84.8a7.67 7.67 0 0 0 7.666 7.669h.078a7.673 7.673 0 0 0 7.669-7.669v-70.342c4.219 3.6 8.836 7.285 13.777 11v30.634a7.667 7.667 0 0 0 7.668 7.668h.075a7.666 7.666 0 0 0 7.668-7.668v-19.728c3.271 2.182 6.6 4.346 10.045 6.474 21.91 13.511 42.7 22.861 58.209 27.627v41.435a7.669 7.669 0 0 0 7.67 7.664h.078a7.666 7.666 0 0 0 7.666-7.664v-26.144c13.395 21.959 35 49.591 62.766 77.353a542.976 542.976 0 0 0 8.746 8.516v38.289a7.667 7.667 0 0 0 7.668 7.668h.072a7.669 7.669 0 0 0 7.67-7.668V317.43c2.857 2.525 5.7 5.013 8.529 7.412v71.339a7.67 7.67 0 0 0 7.668 7.669h.076a7.672 7.672 0 0 0 7.67-7.669v-58.814a379.563 379.563 0 0 0 31.631 22.4v36.413a7.667 7.667 0 0 0 7.666 7.669h.078a7.668 7.668 0 0 0 7.664-7.669v-13.231a291.869 291.869 0 0 0 23.578 46.629 334.475 334.475 0 0 0 17.419 25.513v43.68a7.669 7.669 0 0 0 7.67 7.669h.072a7.666 7.666 0 0 0 7.666-7.669V473.89c9.451 10.472 17.9 17.852 23.908 21.049a891.256 891.256 0 0 0-376.699-376.216Z"/><path fill="#E0A764" d="M967.252 440.303a1014.591 1014.591 0 0 0-431.6-431.609c-35.8-18.66-76.851-5.956-89.919 25.436-12.08 28.948.084 62.079 26.005 79.675a71.139 71.139 0 0 0 7 4.251c.414.217.813.451 1.221.667a891.255 891.255 0 0 1 376.7 376.216c.4.767.844 1.511 1.24 2.276.9 1.723 1.885 3.377 2.908 5 17.217 27.3 51.326 40.395 81.018 28.01 31.389-13.074 44.089-54.122 25.427-89.922Z"/><path fill="#FAEACE" d="M787.444 278.97a212.693 212.693 0 0 0-90.463-90.468c-7.32-3.823-11.01-12.52-7.875-20.026 3.119-7.488 12.91-10.522 21.453-6.068A242.112 242.112 0 0 1 813.54 265.39c4.453 8.543 1.42 18.339-6.07 21.455-7.507 3.134-16.202-.555-20.026-7.875Z"/><g transform="translate(522.947 265.884)"><circle cx="48.993" cy="48.993" r="48.993" fill="#ED5332"/><path fill="#FAE86B" d="M88.985 92.12a3.139 3.139 0 0 1-2.217-5.351c20.82-20.88 20.82-54.67 0-75.55a3.136 3.136 0 0 1 4.439-4.432c23.264 23.33 23.264 61.084 0 84.413a3.14 3.14 0 0 1-2.222.92Z"/><circle cx="15.291" cy="15.291" r="15.291" fill="#F1755B" transform="translate(15.29 22.596)"/><circle cx="10.608" cy="10.608" r="10.608" fill="#F1755B" transform="translate(53.674 23.646)"/><circle cx="5.304" cy="5.304" r="5.304" fill="#F1755B" transform="translate(51.425 53.178)"/></g><g transform="translate(406.104 489.718)"><circle cx="58.175" cy="58.175" r="58.175" fill="#ED5332" transform="translate(13.358 13.365)"/><circle cx="15.291" cy="15.291" r="15.291" fill="#F1755B" transform="translate(61.41 37.213)"/><circle cx="10.608" cy="10.608" r="10.608" fill="#F1755B" transform="translate(55.486 75.791)"/><circle cx="5.304" cy="5.304" r="5.304" fill="#F1755B" transform="translate(86.687 75.791)"/><path fill="#FAE86B" d="M3.132 74.675a3.133 3.133 0 0 1-3.133-3.133C.044 32.051 32.045.047 71.536 0a3.136 3.136 0 0 1 0 6.271c-36.031.04-65.23 29.239-65.271 65.27a3.132 3.132 0 0 1-3.133 3.134Z"/></g><g transform="translate(307.62 558.147)"><circle cx="38.36" cy="38.36" r="38.36" fill="#ED5332" transform="translate(0 9.515)"/><circle cx="15.291" cy="15.291" r="15.291" fill="#F1755B" transform="translate(19.391 23.31)"/><circle cx="10.608" cy="10.608" r="10.608" fill="#F1755B" transform="translate(39.366 53.892)"/><circle cx="5.304" cy="5.304" r="5.304" fill="#F1755B" transform="translate(21.443 59.196)"/><path fill="#FAE86B" d="M70.016 19.357a3.1 3.1 0 0 1-2.215-.921c-16.274-16.224-42.608-16.224-58.882 0a3.13 3.13 0 0 1-4.422-4.431c18.716-18.674 49.016-18.674 67.732 0a3.134 3.134 0 0 1-2.213 5.352Z"/></g><g transform="translate(698.438 425.154)"><circle cx="38.36" cy="38.36" r="38.36" fill="#ED5332" transform="translate(11.372)"/><path fill="#FAE86B" d="M16.783 74.447a3.137 3.137 0 0 1-2.223-.92c-19.416-19.425-19.416-50.91 0-70.334a3.135 3.135 0 1 1 4.436 4.432c-16.969 16.977-16.969 44.494 0 61.471a3.133 3.133 0 0 1-2.213 5.352v-.001Z"/><circle cx="15.291" cy="15.291" r="15.291" fill="#F1755B" transform="translate(46.054 32.639)"/><circle cx="10.608" cy="10.608" r="10.608" fill="#F1755B" transform="translate(20.25 22.032)"/><circle cx="5.304" cy="5.304" r="5.304" fill="#F1755B" transform="translate(48.055 16.728)"/></g><g transform="translate(379.266 323.34)"><circle cx="67.754" cy="67.754" r="67.754" fill="#ED5332" transform="translate(0 12.753)"/><path fill="#FAE86B" d="M13.042 28.934a3.135 3.135 0 0 1-2.219-5.351 80.5 80.5 0 0 1 113.855 0 3.136 3.136 0 1 1-4.439 4.431 74.224 74.224 0 0 0-104.976 0c-.589.59-1.388.92-2.221.92Z"/><circle cx="15.291" cy="15.291" r="15.291" fill="#F1755B" transform="translate(29.61 92.197)"/><circle cx="10.608" cy="10.608" r="10.608" fill="#F1755B" transform="translate(40.196 60.574)"/><circle cx="5.304" cy="5.304" r="5.304" fill="#F1755B" transform="translate(67.754 96.51)"/></g><g transform="translate(543.129 386.163)"><circle cx="61.896" cy="61.896" r="61.896" fill="#ED5332" transform="translate(12.094)"/><circle cx="15.291" cy="15.291" r="15.291" fill="#F1755B" transform="translate(79.555 15.341)"/><circle cx="10.608" cy="10.608" r="10.608" fill="#F1755B" transform="translate(68.947 51.288)"/><path fill="#FAE86B" d="M73.987 135.89c-40.846-.051-73.943-33.154-73.989-74a3.134 3.134 0 0 1 4.716-2.76 3.133 3.133 0 0 1 1.55 2.76c.04 37.387 30.336 67.686 67.723 67.728a3.136 3.136 0 0 1 0 6.271v.001Z"/><circle cx="5.304" cy="5.304" r="5.304" fill="#F1755B" transform="translate(61.485 35.936)"/></g><path fill="#009345" d="M447.418 256.063a13.821 13.821 0 0 0 13.357 3.543l-16.9-16.9a13.817 13.817 0 0 0 3.543 13.357Z"/><path fill="#37B34A" d="m443.875 242.705 16.9 16.9a13.76 13.76 0 0 0-16.9-16.9Z"/><path fill="#009345" d="M610.32 547.126a13.81 13.81 0 0 0 13.357 3.544l-16.9-16.9a13.814 13.814 0 0 0 3.543 13.356Z"/><path fill="#37B34A" d="m606.771 533.768 16.9 16.9a13.765 13.765 0 0 0-16.9-16.9Z"/><path fill="#009345" d="M357.569 457.395a13.82 13.82 0 0 0 13.357 3.548l-16.9-16.9a13.8 13.8 0 0 0 3.543 13.352Z"/><path fill="#37B34A" d="m354.023 444.041 16.9 16.9a13.765 13.765 0 0 0-16.9-16.9Z"/><path fill="#009345" d="M497.875 281.544a13.8 13.8 0 0 0-11.951 6.938h23.9a13.8 13.8 0 0 0-11.949-6.938Z"/><path fill="#37B34A" d="M509.82 288.483h-23.9a13.757 13.757 0 0 0 23.9 0Z"/><path fill="#009345" d="M278.772 651.827a13.8 13.8 0 0 0-11.947 6.938h23.9a13.8 13.8 0 0 0-11.953-6.938Z"/><path fill="#37B34A" d="M290.724 658.763h-23.9a13.759 13.759 0 0 0 23.9 0Z"/><path fill="#009345" d="M648.311 336.094a13.817 13.817 0 0 0-11.953 6.938h23.9a13.817 13.817 0 0 0-11.947-6.938Z"/><path fill="#37B34A" d="M660.259 343.032h-23.9a13.761 13.761 0 0 0 23.9 0Z"/><path fill="#009345" d="M419.46 615.707a13.812 13.812 0 0 0-11.949 6.938h23.9a13.815 13.815 0 0 0-11.951-6.938Z"/><path fill="#37B34A" d="M431.412 622.645h-23.9a13.76 13.76 0 0 0 23.9 0Z"/><path fill="#009345" d="M533.332 230.911a13.827 13.827 0 0 0-3.543 13.358l16.9-16.9a13.822 13.822 0 0 0-13.357 3.542Z"/><path fill="#37B34A" d="m546.692 227.369-16.9 16.9a13.764 13.764 0 0 0 16.9-16.9Z"/><path fill="#009345" d="M541.353 598.991a13.819 13.819 0 0 0-3.545 13.357l16.9-16.9a13.808 13.808 0 0 0-13.355 3.543Z"/><path fill="#37B34A" d="m554.71 595.447-16.9 16.9a13.765 13.765 0 0 0 16.9-16.9Z"/><path fill="#009345" d="M676.691 371.988a13.806 13.806 0 0 0-3.543 13.358l16.9-16.9a13.819 13.819 0 0 0-13.357 3.542Z"/><path fill="#37B34A" d="m690.047 368.445-16.9 16.9a13.767 13.767 0 0 0 16.9-16.9Z"/><path fill="#009345" d="M270.838 706.057a13.816 13.816 0 0 0-3.543 13.358l16.9-16.9a13.82 13.82 0 0 0-13.357 3.542Z"/><path fill="#37B34A" d="m284.195 702.515-16.9 16.9a13.763 13.763 0 0 0 16.9-16.9Z"/><path fill="#009345" d="M535.004 388.846a13.818 13.818 0 0 0 6.939 11.952v-23.9a13.817 13.817 0 0 0-6.939 11.948Z"/><path fill="#37B34A" d="M541.943 376.894v23.9a13.764 13.764 0 0 0 0-23.9Z"/><path fill="#009345" d="M555.432 546.224a13.82 13.82 0 0 0 6.937 11.951v-23.9a13.811 13.811 0 0 0-6.937 11.949Z"/><path fill="#37B34A" d="M562.364 534.273v23.9a13.763 13.763 0 0 0 0-23.9Z"/><path fill="#009345" d="M370.696 506.435a13.815 13.815 0 0 0 6.939 11.951v-23.9a13.816 13.816 0 0 0-6.939 11.949Z"/><path fill="#37B34A" d="M377.634 494.488v23.9a13.761 13.761 0 0 0 0-23.9Z"/></g></svg>