<svg width="749.948" height="904" viewBox="0 0 749.948 904" xmlns="http://www.w3.org/2000/svg"><defs><style>.prefix__cls-2{fill:#ed5332}.prefix__cls-3{fill:#fae86b}.prefix__cls-6{fill:#f1755b}.prefix__cls-7{fill:#009345}.prefix__cls-8{fill:#37b34a}</style></defs><g id="prefix__pizza" transform="translate(-1337.001 -179)"><path id="prefix__Path_124" d="M4808.176 2141.257a891.26 891.26 0 0 0-376.7-376.216c-.408-.216-.807-.451-1.221-.667a71.14 71.14 0 0 1-7-4.251c-44.271 96.676-177.318 422.322-242.634 582.965-13.637 33.533 20.2 66.724 53.486 52.5l8.434-3.6v136.657a21.674 21.674 0 1 0 43.347 0v-155.181l23.227-9.927v37.163a21.674 21.674 0 0 0 43.348 0v-55.687l23.227-9.922v135.92a21.674 21.674 0 1 0 43.348 0V2316.57l92.547-39.542v16.158a21.673 21.673 0 1 0 43.346 0v-34.677l23.228-9.923v89.444a21.673 21.673 0 1 0 43.346 0v-107.97l23.229-9.922v25.115a21.673 21.673 0 1 0 43.346 0v-43.636l23.227-9.927v12.925a21.674 21.674 0 0 0 43.348 0v-31.445l57.67-24.638c-1.023-1.623-2.012-3.277-2.908-5-.397-.765-.839-1.509-1.241-2.275z" data-name="Path 124" style="fill:#f6d809" transform="translate(-2840.524 -1467.318)"/><g id="prefix__Group_105" data-name="Group 105" transform="translate(1431.088 695.028)"><path id="prefix__Path_125" d="m4224.788 1911.534-23.227 9.923v-20.865a11.614 11.614 0 0 1 11.615-11.612 11.615 11.615 0 0 1 11.611 11.612z" class="prefix__cls-2" data-name="Path 125" transform="translate(-4187.279 -1710.284)"/><path id="prefix__Path_126" d="m4239.555 1914.482-23.227 9.927v-32.766a11.61 11.61 0 0 1 11.613-11.613 11.613 11.613 0 0 1 11.613 11.613z" class="prefix__cls-2" data-name="Path 126" transform="translate(-4135.472 -1741.679)"/><path id="prefix__Path_127" d="m4284.468 1895.247-23.229 9.922v-32.761a11.613 11.613 0 0 1 11.613-11.614 11.613 11.613 0 0 1 11.615 11.614z" class="prefix__cls-2" data-name="Path 127" transform="translate(-3977.918 -1809.161)"/><path id="prefix__Path_128" d="m4299.234 1907.192-23.229 9.923v-56.16a11.612 11.612 0 0 1 11.613-11.613 11.613 11.613 0 0 1 11.615 11.613z" class="prefix__cls-2" data-name="Path 128" transform="translate(-3926.11 -1849.342)"/><path id="prefix__Path_129" d="m4314 1868.324-23.227 9.923v-14.364a11.61 11.61 0 0 1 11.613-11.612 11.61 11.61 0 0 1 11.614 11.612z" class="prefix__cls-2" data-name="Path 129" transform="translate(-3874.304 -1839.065)"/><rect id="prefix__Rectangle_40" width="5.92" height="34.022" class="prefix__cls-3" data-name="Rectangle 40" rx=".354" transform="translate(468.762 13.203)"/><rect id="prefix__Rectangle_41" width="5.92" height="84.164" class="prefix__cls-3" data-name="Rectangle 41" rx=".354" transform="translate(269.039 51.633)"/><rect id="prefix__Rectangle_42" width="5.92" height="104.963" class="prefix__cls-3" data-name="Rectangle 42" rx=".354" transform="translate(66.574 138.351)"/><rect id="prefix__Rectangle_43" width="5.92" height="152.559" class="prefix__cls-3" data-name="Rectangle 43" rx=".354" transform="translate(0 178.696)"/><rect id="prefix__Rectangle_44" width="5.92" height="175.275" class="prefix__cls-3" data-name="Rectangle 44" rx=".354" transform="translate(133.148 138.351)"/><rect id="prefix__Rectangle_45" width="5.92" height="74.664" class="prefix__cls-3" data-name="Rectangle 45" rx=".354" transform="translate(402.188 13.203)"/><rect id="prefix__Rectangle_46" width="5.92" height="180.642" class="prefix__cls-3" data-name="Rectangle 46" rx=".354" transform="translate(335.592 .001)"/></g><path id="prefix__Path_130" d="M4233.854 1761.213a75.516 75.516 0 0 0 10.213 12.916v84.8a7.67 7.67 0 0 0 7.666 7.669h.078a7.673 7.673 0 0 0 7.669-7.669v-70.342c4.219 3.6 8.836 7.285 13.777 11v30.634a7.667 7.667 0 0 0 7.668 7.668h.075a7.666 7.666 0 0 0 7.668-7.668v-19.728c3.271 2.182 6.6 4.346 10.045 6.474 21.91 13.511 42.7 22.861 58.209 27.627v41.435a7.669 7.669 0 0 0 7.67 7.664h.078a7.666 7.666 0 0 0 7.666-7.664v-26.144c13.395 21.959 35 49.591 62.766 77.353a542.976 542.976 0 0 0 8.746 8.516v38.289a7.667 7.667 0 0 0 7.668 7.668h.072a7.669 7.669 0 0 0 7.67-7.668v-24.123c2.857 2.525 5.7 5.013 8.529 7.412v71.339a7.67 7.67 0 0 0 7.668 7.669h.076a7.672 7.672 0 0 0 7.67-7.669v-58.814a379.563 379.563 0 0 0 31.631 22.4v36.413a7.667 7.667 0 0 0 7.666 7.669h.078a7.668 7.668 0 0 0 7.664-7.669v-13.231a291.869 291.869 0 0 0 23.578 46.629 334.475 334.475 0 0 0 17.419 25.513v43.68a7.669 7.669 0 0 0 7.67 7.669h.072a7.667 7.667 0 0 0 7.666-7.669v-24.881c9.451 10.472 17.9 17.852 23.908 21.049a891.256 891.256 0 0 0-376.699-376.216z" class="prefix__cls-2" data-name="Path 130" transform="translate(-2642.899 -1463.49)"/><path id="prefix__Path_131" d="M4751.438 2175.182a1014.591 1014.591 0 0 0-431.6-431.609c-35.8-18.66-76.851-5.956-89.919 25.436-12.08 28.948.084 62.079 26.005 79.675a71.139 71.139 0 0 0 7 4.251c.414.217.813.451 1.221.667a891.255 891.255 0 0 1 376.7 376.216c.4.767.844 1.511 1.24 2.276.9 1.723 1.885 3.377 2.908 5 17.217 27.3 51.326 40.395 81.018 28.01 31.389-13.074 44.089-54.122 25.427-89.922z" data-name="Path 131" style="fill:#e0a764" transform="translate(-2673.185 -1555.879)"/><path id="prefix__Path_132" d="M4379.463 1889.08a212.693 212.693 0 0 0-90.463-90.468c-7.32-3.823-11.01-12.52-7.875-20.026 3.119-7.488 12.91-10.522 21.453-6.068a242.112 242.112 0 0 1 102.981 102.982c4.453 8.543 1.42 18.339-6.07 21.455-7.507 3.134-16.202-.555-20.026-7.875z" data-name="Path 132" style="fill:#faeace" transform="translate(-2481.018 -1431.11)"/><g id="prefix__Group_142" data-name="Group 142" transform="translate(1418.621 444.884)"><g id="prefix__Group_111" data-name="Group 111" transform="translate(215.327)"><g id="prefix__Group_106" data-name="Group 106"><circle id="prefix__Ellipse_27" cx="48.993" cy="48.993" r="48.993" class="prefix__cls-2" data-name="Ellipse 27"/></g><g id="prefix__Group_107" data-name="Group 107" transform="translate(85.853 5.868)"><path id="prefix__Path_133" d="M4265.567 1881.41a3.139 3.139 0 0 1-2.217-5.351 53.5 53.5 0 0 0 0-75.55 3.136 3.136 0 0 1 4.439-4.432 59.773 59.773 0 0 1 0 84.413 3.136 3.136 0 0 1-2.222.92z" class="prefix__cls-3" data-name="Path 133" transform="translate(-4262.435 -1795.158)"/></g><g id="prefix__Group_108" data-name="Group 108" transform="translate(15.29 22.596)"><circle id="prefix__Ellipse_28" cx="15.291" cy="15.291" r="15.291" class="prefix__cls-6" data-name="Ellipse 28"/></g><g id="prefix__Group_109" data-name="Group 109" transform="translate(53.674 23.646)"><circle id="prefix__Ellipse_29" cx="10.608" cy="10.608" r="10.608" class="prefix__cls-6" data-name="Ellipse 29"/></g><g id="prefix__Group_110" data-name="Group 110" transform="translate(51.425 53.178)"><circle id="prefix__Ellipse_30" cx="5.304" cy="5.304" r="5.304" class="prefix__cls-6" data-name="Ellipse 30"/></g></g><g id="prefix__Group_117" data-name="Group 117" transform="translate(98.484 223.834)"><g id="prefix__Group_112" data-name="Group 112" transform="translate(13.358 13.365)"><circle id="prefix__Ellipse_31" cx="58.175" cy="58.175" r="58.175" class="prefix__cls-2" data-name="Ellipse 31"/></g><g id="prefix__Group_113" data-name="Group 113" transform="translate(61.41 37.213)"><circle id="prefix__Ellipse_32" cx="15.291" cy="15.291" r="15.291" class="prefix__cls-6" data-name="Ellipse 32"/></g><g id="prefix__Group_114" data-name="Group 114" transform="translate(55.486 75.791)"><circle id="prefix__Ellipse_33" cx="10.608" cy="10.608" r="10.608" class="prefix__cls-6" data-name="Ellipse 33"/></g><g id="prefix__Group_115" data-name="Group 115" transform="translate(86.687 75.791)"><circle id="prefix__Ellipse_34" cx="5.304" cy="5.304" r="5.304" class="prefix__cls-6" data-name="Ellipse 34"/></g><g id="prefix__Group_116" data-name="Group 116"><path id="prefix__Path_134" d="M4220.606 1918.18a3.132 3.132 0 0 1-3.133-3.133 71.623 71.623 0 0 1 71.537-71.542 3.136 3.136 0 0 1 0 6.271 65.343 65.343 0 0 0-65.271 65.27 3.132 3.132 0 0 1-3.133 3.134z" class="prefix__cls-3" data-name="Path 134" transform="translate(-4217.474 -1843.505)"/></g></g><g id="prefix__Group_123" data-name="Group 123" transform="translate(0 292.263)"><g id="prefix__Group_118" data-name="Group 118" transform="translate(0 9.515)"><circle id="prefix__Ellipse_35" cx="38.36" cy="38.36" r="38.36" class="prefix__cls-2" data-name="Ellipse 35"/></g><g id="prefix__Group_119" data-name="Group 119" transform="translate(19.391 23.31)"><circle id="prefix__Ellipse_36" cx="15.291" cy="15.291" r="15.291" class="prefix__cls-6" data-name="Ellipse 36"/></g><g id="prefix__Group_120" data-name="Group 120" transform="translate(39.366 53.892)"><circle id="prefix__Ellipse_37" cx="10.608" cy="10.608" r="10.608" class="prefix__cls-6" data-name="Ellipse 37"/></g><g id="prefix__Group_121" data-name="Group 121" transform="translate(21.443 59.196)"><circle id="prefix__Ellipse_38" cx="5.304" cy="5.304" r="5.304" class="prefix__cls-6" data-name="Ellipse 38"/></g><g id="prefix__Group_122" data-name="Group 122" transform="translate(3.575)"><path id="prefix__Path_135" d="M4262.861 1878.041a3.1 3.1 0 0 1-2.215-.921 41.7 41.7 0 0 0-58.882 0 3.13 3.13 0 1 1-4.422-4.431 47.948 47.948 0 0 1 67.732 0 3.134 3.134 0 0 1-2.213 5.352z" class="prefix__cls-3" data-name="Path 135" transform="translate(-4196.42 -1858.684)"/></g></g><g id="prefix__Group_129" data-name="Group 129" transform="translate(390.818 159.27)"><g id="prefix__Group_124" data-name="Group 124" transform="translate(11.372)"><circle id="prefix__Ellipse_39" cx="38.36" cy="38.36" r="38.36" class="prefix__cls-2" data-name="Ellipse 39"/></g><g id="prefix__Group_125" data-name="Group 125" transform="translate(0 2.273)"><path id="prefix__Path_136" d="M4299.1 1901.862a3.137 3.137 0 0 1-2.223-.92 49.744 49.744 0 0 1 0-70.334 3.135 3.135 0 1 1 4.436 4.432 43.477 43.477 0 0 0 0 61.471 3.133 3.133 0 0 1-2.213 5.352z" class="prefix__cls-3" data-name="Path 136" transform="translate(-4282.317 -1829.688)"/></g><g id="prefix__Group_126" data-name="Group 126" transform="translate(46.054 32.639)"><circle id="prefix__Ellipse_40" cx="15.291" cy="15.291" r="15.291" class="prefix__cls-6" data-name="Ellipse 40"/></g><g id="prefix__Group_127" data-name="Group 127" transform="translate(20.25 22.032)"><circle id="prefix__Ellipse_41" cx="10.608" cy="10.608" r="10.608" class="prefix__cls-6" data-name="Ellipse 41"/></g><g id="prefix__Group_128" data-name="Group 128" transform="translate(48.055 16.728)"><circle id="prefix__Ellipse_42" cx="5.304" cy="5.304" r="5.304" class="prefix__cls-6" data-name="Ellipse 42"/></g></g><g id="prefix__Group_135" data-name="Group 135" transform="translate(71.646 57.456)"><g id="prefix__Group_130" data-name="Group 130" transform="translate(0 12.753)"><circle id="prefix__Ellipse_43" cx="67.754" cy="67.754" r="67.754" class="prefix__cls-2" data-name="Ellipse 43"/></g><g id="prefix__Group_131" data-name="Group 131" transform="translate(9.91)"><path id="prefix__Path_137" d="M4216.852 1835.534a3.135 3.135 0 0 1-2.219-5.351 80.5 80.5 0 0 1 113.855 0 3.136 3.136 0 0 1-4.439 4.431 74.224 74.224 0 0 0-104.976 0 3.134 3.134 0 0 1-2.221.92z" class="prefix__cls-3" data-name="Path 137" transform="translate(-4213.72 -1806.6)"/></g><g id="prefix__Group_132" data-name="Group 132" transform="translate(29.61 92.197)"><circle id="prefix__Ellipse_44" cx="15.291" cy="15.291" r="15.291" class="prefix__cls-6" data-name="Ellipse 44"/></g><g id="prefix__Group_133" data-name="Group 133" transform="translate(40.196 60.574)"><circle id="prefix__Ellipse_45" cx="10.608" cy="10.608" r="10.608" class="prefix__cls-6" data-name="Ellipse 45"/></g><g id="prefix__Group_134" data-name="Group 134" transform="translate(67.754 96.51)"><circle id="prefix__Ellipse_46" cx="5.304" cy="5.304" r="5.304" class="prefix__cls-6" data-name="Ellipse 46"/></g></g><g id="prefix__Group_141" data-name="Group 141" transform="translate(235.509 120.279)"><g id="prefix__Group_136" data-name="Group 136" transform="translate(12.094)"><circle id="prefix__Ellipse_47" cx="61.896" cy="61.896" r="61.896" class="prefix__cls-2" data-name="Ellipse 47"/></g><g id="prefix__Group_137" data-name="Group 137" transform="translate(79.555 15.341)"><circle id="prefix__Ellipse_48" cx="15.291" cy="15.291" r="15.291" class="prefix__cls-6" data-name="Ellipse 48"/></g><g id="prefix__Group_138" data-name="Group 138" transform="translate(68.947 51.288)"><circle id="prefix__Ellipse_49" cx="10.608" cy="10.608" r="10.608" class="prefix__cls-6" data-name="Ellipse 49"/></g><g id="prefix__Group_139" data-name="Group 139" transform="translate(0 58.76)"><path id="prefix__Path_138" d="M4321.856 1910.7a74.081 74.081 0 0 1-73.988-74 3.133 3.133 0 1 1 6.265 0 67.8 67.8 0 0 0 67.723 67.728 3.135 3.135 0 0 1 0 6.271z" class="prefix__cls-3" data-name="Path 138" transform="translate(-4247.869 -1833.57)"/></g><g id="prefix__Group_140" data-name="Group 140" transform="translate(61.485 35.936)"><circle id="prefix__Ellipse_50" cx="5.304" cy="5.304" r="5.304" class="prefix__cls-6" data-name="Ellipse 50"/></g></g></g><g id="prefix__Group_157" data-name="Group 157" transform="translate(1377.824 405.897)"><g id="prefix__Group_143" data-name="Group 143" transform="translate(176.58 15.337)"><path id="prefix__Path_139" d="M4229.762 1802.072a13.821 13.821 0 0 0 13.357 3.543l-16.9-16.9a13.817 13.817 0 0 0 3.543 13.357z" class="prefix__cls-7" data-name="Path 139" transform="translate(-4225.747 -1788.243)"/><path id="prefix__Path_140" d="m4225.853 1789.081 16.9 16.9a13.76 13.76 0 0 0-16.9-16.9z" class="prefix__cls-8" data-name="Path 140" transform="translate(-4225.381 -1788.61)"/></g><g id="prefix__Group_144" data-name="Group 144" transform="translate(339.477 306.402)"><path id="prefix__Path_141" d="M4265.9 1866.634a13.81 13.81 0 0 0 13.357 3.544l-16.9-16.9a13.814 13.814 0 0 0 3.543 13.356z" class="prefix__cls-7" data-name="Path 141" transform="translate(-4261.88 -1852.807)"/><path id="prefix__Path_142" d="m4261.985 1853.642 16.9 16.9a13.765 13.765 0 0 0-16.9-16.9z" class="prefix__cls-8" data-name="Path 142" transform="translate(-4261.514 -1853.173)"/></g><g id="prefix__Group_145" data-name="Group 145" transform="translate(86.729 216.673)"><path id="prefix__Path_143" d="M4209.833 1846.727a13.82 13.82 0 0 0 13.357 3.548l-16.9-16.9a13.8 13.8 0 0 0 3.543 13.352z" class="prefix__cls-7" data-name="Path 143" transform="translate(-4205.816 -1832.902)"/><path id="prefix__Path_144" d="m4205.922 1833.74 16.9 16.9a13.765 13.765 0 0 0-16.9-16.9z" class="prefix__cls-8" data-name="Path 144" transform="translate(-4205.451 -1833.269)"/></g><g id="prefix__Group_146" data-name="Group 146" transform="translate(219.101 54.647)"><path id="prefix__Path_145" d="M4247.13 1797.33a13.8 13.8 0 0 0-11.951 6.938h23.9a13.8 13.8 0 0 0-11.949-6.938z" class="prefix__cls-7" data-name="Path 145" transform="translate(-4235.179 -1797.33)"/><path id="prefix__Path_146" d="M4259.075 1798.869h-23.9a13.757 13.757 0 0 0 23.9 0z" class="prefix__cls-8" data-name="Path 146" transform="translate(-4235.179 -1791.93)"/></g><g id="prefix__Group_147" data-name="Group 147" transform="translate(.002 424.93)"><path id="prefix__Path_147" d="M4198.526 1879.464a13.8 13.8 0 0 0-11.947 6.938h23.9a13.8 13.8 0 0 0-11.953-6.938z" class="prefix__cls-7" data-name="Path 147" transform="translate(-4186.579 -1879.464)"/><path id="prefix__Path_148" d="M4210.478 1881h-23.9a13.759 13.759 0 0 0 23.9 0z" class="prefix__cls-8" data-name="Path 148" transform="translate(-4186.579 -1874.064)"/></g><g id="prefix__Group_148" data-name="Group 148" transform="translate(369.536 109.197)"><path id="prefix__Path_149" d="M4280.5 1809.429a13.817 13.817 0 0 0-11.953 6.938h23.9a13.817 13.817 0 0 0-11.947-6.938z" class="prefix__cls-7" data-name="Path 149" transform="translate(-4268.548 -1809.429)"/><path id="prefix__Path_150" d="M4292.448 1810.968h-23.9a13.761 13.761 0 0 0 23.9 0z" class="prefix__cls-8" data-name="Path 150" transform="translate(-4268.548 -1804.03)"/></g><g id="prefix__Group_149" data-name="Group 149" transform="translate(140.688 388.81)"><path id="prefix__Path_151" d="M4229.736 1871.452a13.812 13.812 0 0 0-11.949 6.938h23.9a13.815 13.815 0 0 0-11.951-6.938z" class="prefix__cls-7" data-name="Path 151" transform="translate(-4217.787 -1871.452)"/><path id="prefix__Path_152" d="M4241.688 1872.99h-23.9a13.76 13.76 0 0 0 23.9 0z" class="prefix__cls-8" data-name="Path 152" transform="translate(-4217.787 -1866.052)"/></g><g id="prefix__Group_150" data-name="Group 150" transform="translate(262.495)"><path id="prefix__Path_153" d="M4248.819 1789.222a13.827 13.827 0 0 0-3.543 13.358l16.9-16.9a13.822 13.822 0 0 0-13.357 3.542z" class="prefix__cls-7" data-name="Path 153" transform="translate(-4244.805 -1785.208)"/><path id="prefix__Path_154" d="m4261.812 1785.313-16.9 16.9a13.764 13.764 0 0 0 16.9-16.9z" class="prefix__cls-8" data-name="Path 154" transform="translate(-4244.438 -1784.841)"/></g><g id="prefix__Group_151" data-name="Group 151" transform="translate(270.514 368.078)"><path id="prefix__Path_155" d="M4250.6 1870.868a13.819 13.819 0 0 0-3.545 13.357l16.9-16.9a13.808 13.808 0 0 0-13.355 3.543z" class="prefix__cls-7" data-name="Path 155" transform="translate(-4246.584 -1866.852)"/><path id="prefix__Path_156" d="m4263.59 1866.958-16.9 16.9a13.765 13.765 0 0 0 16.9-16.9z" class="prefix__cls-8" data-name="Path 156" transform="translate(-4246.217 -1866.486)"/></g><g id="prefix__Group_152" data-name="Group 152" transform="translate(405.853 141.077)"><path id="prefix__Path_157" d="M4280.618 1820.515a13.806 13.806 0 0 0-3.543 13.358l16.9-16.9a13.819 13.819 0 0 0-13.357 3.542z" class="prefix__cls-7" data-name="Path 157" transform="translate(-4276.603 -1816.501)"/><path id="prefix__Path_158" d="m4293.609 1816.605-16.9 16.9a13.767 13.767 0 0 0 16.9-16.9z" class="prefix__cls-8" data-name="Path 158" transform="translate(-4276.238 -1816.134)"/></g><g id="prefix__Group_153" data-name="Group 153" transform="translate(0 475.146)"><path id="prefix__Path_159" d="M4190.595 1894.616a13.816 13.816 0 0 0-3.543 13.358l16.9-16.9a13.82 13.82 0 0 0-13.357 3.542z" class="prefix__cls-7" data-name="Path 159" transform="translate(-4186.58 -1890.602)"/><path id="prefix__Path_160" d="m4203.585 1890.707-16.9 16.9a13.763 13.763 0 0 0 16.9-16.9z" class="prefix__cls-8" data-name="Path 160" transform="translate(-4186.213 -1890.235)"/></g><g id="prefix__Group_154" data-name="Group 154" transform="translate(268.181 149.997)"><path id="prefix__Path_161" d="M4246.066 1830.431a13.818 13.818 0 0 0 6.939 11.952v-23.9a13.817 13.817 0 0 0-6.939 11.948z" class="prefix__cls-7" data-name="Path 161" transform="translate(-4246.066 -1818.479)"/><path id="prefix__Path_162" d="M4247.606 1818.479v23.9a13.764 13.764 0 0 0 0-23.9z" class="prefix__cls-8" data-name="Path 162" transform="translate(-4240.667 -1818.479)"/></g><g id="prefix__Group_155" data-name="Group 155" transform="translate(288.605 307.376)"><path id="prefix__Path_163" d="M4250.6 1865.34a13.82 13.82 0 0 0 6.937 11.951v-23.9a13.811 13.811 0 0 0-6.937 11.949z" class="prefix__cls-7" data-name="Path 163" transform="translate(-4250.596 -1853.389)"/><path id="prefix__Path_164" d="M4252.136 1853.389v23.9a13.763 13.763 0 0 0 0-23.9z" class="prefix__cls-8" data-name="Path 164" transform="translate(-4245.2 -1853.389)"/></g><g id="prefix__Group_156" data-name="Group 156" transform="translate(103.873 267.591)"><path id="prefix__Path_165" d="M4209.619 1856.51a13.815 13.815 0 0 0 6.939 11.951v-23.9a13.816 13.816 0 0 0-6.939 11.949z" class="prefix__cls-7" data-name="Path 165" transform="translate(-4209.619 -1844.563)"/><path id="prefix__Path_166" d="M4211.159 1844.563v23.9a13.761 13.761 0 0 0 0-23.9z" class="prefix__cls-8" data-name="Path 166" transform="translate(-4204.221 -1844.563)"/></g></g></g></svg>