<svg id="working" viewBox="0 0 472.9 119.64" xmlns="http://www.w3.org/2000/svg"><defs><style>.cls-1{fill:#ed5332}</style></defs><path d="M126.9 81.73c1.93-4.49 3.57-8.7 5.53-12.78a46.63 46.63 0 0 1 10.79-15c8.62-7.71 17.21-5.83 20.49 4.72a50.9 50.9 0 0 1 2.38 13.18c.34 9.24.21 18.5 0 27.74-.13 5.73-3.3 8.16-9.62 7.18-7.33-1.13-14.6-2.66-21.82-4.28-5.27-1.18-10.11-3.09-10.19-9.63-11 5.76-22.62 6.89-34.23 6.7-13.49-.22-27.14 1.15-40.45-1.77-6.88-1.51-13.61-3.62-20.3-5.75A21.64 21.64 0 0 1 23 88.42c-4.86-3.76-4.32-8.49 1.28-11.19a48.59 48.59 0 0 1 8-2.81c13.48-3.75 27.27-4.36 41.21-3.08 5.55.51 11.08 1.2 16.62 1.85a5.39 5.39 0 0 1 2.58 1c-10.75.69-21.46.51-32.06 2.28-10.41 1.74-21 2.54-32 6.77 2.88 1.33 4.74 2.31 6.69 3.08 7.37 2.89 15.23 4 23.07 5.32a114.24 114.24 0 0 0 25.77 1.41c9.09-.58 18.13-1.79 27.17-2.92a20.42 20.42 0 0 0 6.18-2c2.83-1.35 3.24-3 1.22-5.22a19.27 19.27 0 0 0-5.33-4.2 62.94 62.94 0 0 0-10.65-4.26 180.32 180.32 0 0 0-41.33-6.44c-9.59-.46-19.12-2.22-28.63-3.64-3-.46-6-1.65-6.47-5-.37-2.62 1.38-4.86 5.75-6.18 17.62-5.34 35.6-7.59 54-3.73a43.24 43.24 0 0 1 11.53 4.6 15.58 15.58 0 0 1 8.43 11.58c.38 2.62 1.88 3.57 4.21 4.49 8.36 3.3 11.24 5.37 16.66 11.6ZM99.17 66.64a9.12 9.12 0 0 0-4.34-6A35.27 35.27 0 0 0 80.64 55c-8.51-1.4-16.82 0-25.17.86-4.31.46-8.57 1.29-12.85 2v1.09Zm55.62 29-3 2.21c2.12 0 4 2.11 6.16-.07Zm135.85-2.88c-2.69-6.54-3.28-12.34 3.2-17.73-2.7-.49-4.6-.74-6.45-1.18-3.09-.74-6.37-1.21-9.18-2.49-5-2.26-5.54-6.81-1.36-10.15A63.6 63.6 0 0 1 319 46.81a31.81 31.81 0 0 1 11.13 2.73c4 1.66 5.65 6 3.85 8.85-.67 1.06-2.06 2.33-3.22 2.41-2.12.15-1.82-1.73-1.91-3.09a7.15 7.15 0 0 0-.31-1.27c-12.17-5-36.66-.33-45.61 8.87a23.55 23.55 0 0 0 3.3 1c6.5 1 13 2.07 19.52 2.7 3.15.3 6.39-.42 9.6-.55a25.44 25.44 0 0 1 6.54.19c1.13.25 2.62 1.78 2.63 2.75s-1.48 2.22-2.65 2.75-2.67.14-4 .36c-4.31.74-8.66 1.38-12.87 2.44a16.39 16.39 0 0 0-5.69 2.93c-5 3.85-4.41 8.83 1.35 11.53a19.18 19.18 0 0 0 5.34 1.64c11.12 1.65 30.49-.46 41.08-4.27 1.13-2.6 2.07-5 3.27-7.32.33-.64 1.47-.92 2.88-1.75-.24 2.14-.4 3.6-.56 5 3.71 2 3.71 2 8.68-1.24-.56-5.09-1.21-10.1-1.6-15.12a34.09 34.09 0 0 1 .36-6.91c.25-2 1.34-3.66 3.83-3.61s3.38 1.9 3.38 3.87c0 6 .74 12-1.16 17.92a60.75 60.75 0 0 1-3.33 7 65.64 65.64 0 0 0 6.83-.37c12-2.07 24-3.92 35.84-6.49a102.86 102.86 0 0 0 19.5-6.44c8.1-3.57 8.18-7.43.56-12a67.53 67.53 0 0 0-31.9-9.57c-3.89-.18-7.77-.51-11.66-.76a117.55 117.55 0 0 0-26.89 1.26l5.43 4.63-.62 1c-4.89-.85-9.89-1.38-14.65-2.63-3.82-1-4.17-4.67-.79-6.68a19.62 19.62 0 0 1 6.09-2.19c13.19-2.57 26.43-3.49 39.79-1 4.8.91 9.67 1.57 14.54 2.12a59.87 59.87 0 0 1 26.55 9.69 21.08 21.08 0 0 1 3.68 3.17c4.75 5 4.55 11.33-1.09 15.56a39.69 39.69 0 0 1-11.72 6.28c-9.12 2.81-18.46 5.06-27.81 7.16-11.73 2.64-23.81 2.63-35.79 3.27a21.22 21.22 0 0 0-5.82 1.13c-6.18 2.17-12.39 4.11-19.09 4.45a42 42 0 0 0-6.46 1.13 52.76 52.76 0 0 1-21.66.52c-4.65-1-9-3.34-14.06-5.34-2 1.13-4.81 2.73-7.61 4.37a34 34 0 0 1-14.4 4.14c-8.45.76-16.95.85-25.3-.81-9.91-2-16.52-7.49-19.53-16.34-4.31-12.67.49-23.49 9.42-32.81 7.35-7.69 18.89-7 26.25.7 4.54 4.93 6.54 10.51 4.88 16.86a8.49 8.49 0 0 1-1.56 3.37c-1.49 1.8-4 1.36-4.59-.85a25.93 25.93 0 0 1-.51-5.51 12.81 12.81 0 0 0-4.68-9.46c-4.47-3.86-9.6-3.94-14 0a16.78 16.78 0 0 0-3.91 4.79c-2 4.06-4.38 8.15-5.27 12.46-1.94 9.42 1.78 15.48 11.66 18.92a29.62 29.62 0 0 0 8.97 1.65c9.46.18 18.93.29 28.37-.14 3.53-.21 6.97-1.96 10.82-3.1ZM220.4 102.9c-5.71-4.27-6.35-10.1-8.31-16.37-1 1.86-1.76 3-2.3 4.11-2.07 4.45-4.64 8.58-8.73 11.77a19.55 19.55 0 0 1-21.72 1.83 10.51 10.51 0 0 1-2.75-2C170.66 95.8 166.41 88.61 167 80c.42-6 1.87-11.86 3-17.75a18.73 18.73 0 0 1 2-4.25c.78-1.55 2-2.6 4-1.94 1.87.62 1.63 2.12 1.43 3.52-.73 5-1.74 10-2.1 15.06a66.35 66.35 0 0 0 .37 12.91c.62 5 3.8 8.83 8.46 11.51 3.92 2.25 7.81 1.61 11.36-.8a19.67 19.67 0 0 0 7.48-9.72c1.35-3.64 2.34-7.39 3.54-11.08a84.42 84.42 0 0 0 4-22.28 22 22 0 0 1 1-5.43 3.79 3.79 0 0 1 4.15-2.75 3.74 3.74 0 0 1 3.68 3.29 13.28 13.28 0 0 1 .12 3.67 145.82 145.82 0 0 0 1.24 39.58 62.49 62.49 0 0 1 .46 7.38c.01.43-.32.86-.79 1.98ZM441.57 32c-2.2 3.62-4.3 7.29-6.64 10.83a53.92 53.92 0 0 1-4.33 5.07c-2.42-1.79-2.32-3.62-1.62-5.34 1.88-4.59 3.85-9.14 6-13.63a23.87 23.87 0 0 1 3.6-5.51 4.09 4.09 0 0 1 3.27-1.25c.81.27 1.58 1.95 1.47 2.92a51 51 0 0 1-1.62 6.67ZM35.62 12.66c5.06 7.78 9.06 15.83 13.25 23.79.79 1.51.68 3.41 1 5.12l-1.22.51c-1.52-1.5-3.44-2.81-4.48-4.56-3.62-6.08-7-12.27-10.3-18.5-1.11-2.08-1.72-4.42 1.75-6.36ZM41 47.05c-3.37-1.11-4.39-3.32-5.58-5.2-3.22-5-6.21-10.18-9.3-15.29-.16-.27-.32-.53-.5-.8-.8-1.25-1.5-2.69 0-3.71 1.7-1.14 3.16-.17 4.32 1.12a5.73 5.73 0 0 1 .86 1.13c3.11 6.11 6.25 12.21 9.25 18.37.56 1.15.55 2.53.95 4.38Z" class="cls-1"/><path d="m441.57 32 .12-.24c2.29-2.82 4.56-5.66 6.91-8.45a4.13 4.13 0 0 1 2-1.34 3.3 3.3 0 0 1 2.25.45c.36.23.4 1.1.3 1.64a6.11 6.11 0 0 1-.87 1.65c-3.86 6.63-7.7 13.26-11.59 19.87a7.27 7.27 0 0 1-2.49 2.51c-.15-5.65 1.47-10.88 3.37-16.09Z" class="cls-1"/></svg>