<svg id="working" xmlns="http://www.w3.org/2000/svg" viewBox="0 0 472.9 119.64"><defs><style>.cls-1{fill:#f6d809;}.cls-2{fill:#ed5332;}</style></defs><title>open_sauced_final_assets</title><path class="cls-1" d="M426.28,2.37V30.08H436V62.69h-.3l-42-60.32H230.33V14.48c-.83-.77-1.7-1.52-2.63-2.23q-12.87-9.88-36.82-9.88H112.19V17.5A62.26,62.26,0,0,0,98.78,7.92Q84,0,65,0,46.22,0,31.42,7.77A57.28,57.28,0,0,0,0,59.71,57.68,57.68,0,0,0,8.38,90.36a58.26,58.26,0,0,0,23.2,21.51,70.12,70.12,0,0,0,33.1,7.77q18.82,0,33.72-7.69a60.55,60.55,0,0,0,13.79-9.68v15.46h67.36V90H168V74.33h29.32a56.87,56.87,0,0,0,21.28-4,36.6,36.6,0,0,0,15.92-11.86,28.48,28.48,0,0,0,4.77-9.61V90h-8.95v27.71h156V90H376V49.37h.31l48.45,70.27h38.12V30.08h10V2.37Zm-347.63,77q-1.41,7.11-4.71,10.18t-9,3.06c-3.73,0-6.66-1-8.81-3.06s-3.68-5.44-4.63-10.18a106.61,106.61,0,0,1-1.41-19.67q0-12.87,1.49-19.91c1-4.69,2.56-8,4.71-9.95A12.39,12.39,0,0,1,65,26.94q5.51,0,8.72,3T78.5,40q1.56,7,1.57,19.75A106.46,106.46,0,0,1,78.65,79.38ZM190.5,46.23q-3.37,2.69-9.65,2.68H168V27.71h11.56q6.88,0,10.6,2.45c2.48,1.63,3.71,4.39,3.71,8.27Q193.86,43.56,190.5,46.23ZM349.2,90h-8.8V80.91H310.16V90H284V71.19h22.89V47.69H284V30.08h26.18v9.11H340.4V30.08h8.8Z"/><path class="cls-2" d="M151.48,26.28c-4.34-5-9.27-4.25-14-3.7-6.54.75-13.14,1.48-19.49,4.15-7.45,3.11-14.84,6.48-22.25,9.76-.31.14-.56.52-1.29,1.24a101.06,101.06,0,0,1,10.22-1c7.74,0,15.47.28,23.2.56,4.69.17,9.42.43,13.87,2.58a68.32,68.32,0,0,1,9.94,5.84c1.43,1,2.53,1.41,3.88.23,3.3-2.89,6.65-5.68,9.88-8.71,2.55-2.4,2.48-2.54,5.64-1.34.61-1.47,1.22-3,1.89-4.54.87-2,1.71-4,2.69-5.8s2.23-3,4-2.52,2.48,2.32,2.75,4.51c.24,1.92.27,3.88.42,5.82.39,4.76.8,9.52,1.23,14.69a18,18,0,0,0,2.57-1.46c4.9-3.92,10.09-7.31,13.7-13.75.92-1.64,2.12-2,3.45-1s1.12,2.71.83,4.32c-.66,3.65-1.59,7.23-2.08,10.91-1.22,9.13-3,18.21-2.06,27.6a31.77,31.77,0,0,0,.65,4.28c.83,3.47,1.94,4.06,4.17,1.83a32,32,0,0,0,4.41-5.67c5.72-9.17,9.82-19.65,12.83-31,.57-2.15,1.12-4.33,1.87-6.37,1-2.8,2.49-3.75,3.92-2.89s1.9,2.87,1.2,5.92c-.46,2-1.11,4-1.72,5.93-4,12.88-5.46,26.37-5.45,40.2,0,1.09.21,2.17.41,4.08.89-1.58,1.51-2.47,1.95-3.51,2.76-6.47,5.39-13,8.23-19.46a102.09,102.09,0,0,1,15-24.79c6.72-8,14.56-11.25,23.13-11.74a33.71,33.71,0,0,1,7,.2,3.5,3.5,0,0,1,2.31,2.32,3.07,3.07,0,0,1-1.85,3.57,4,4,0,0,1-1,.35c-12.05,2-21.47,11.1-30.23,22a46.37,46.37,0,0,0-3.46,5.92c1.38,2.92,3.32,3.36,5.08,3.85,6.9,1.91,13.81,3.07,20.92,1.2,9.95-2.62,19.78-5.79,29.77-11.15a17.62,17.62,0,0,0-2.54-1.28c-2.75-.79-5.52-1.44-8.26-2.24a9.78,9.78,0,0,1-3-1.33c-2.73-1.92-2.94-5.58-.5-8.18a7.48,7.48,0,0,1,2.17-1.66c9.09-4.13,18.22-8,27.89-7.75a15.18,15.18,0,0,1,4.52.71c3.78,1.27,4.5,4.93,1.79,8.95-1.61,2.38-3.34,4.6-5,6.92a10.66,10.66,0,0,0-.69,1.47c1.92.6,3.7,1.1,5.46,1.72,1.38.49,2.36,1.61,2.11,3.8s-1.46,2.94-2.86,2.84c-6.76-.5-13.32,1.65-19.91,3.3-5.3,1.33-10.1,4.38-14.58,8.49a9.75,9.75,0,0,0-1.09,1.79c2.57,3.38,5.7,4.47,8.88,5.37a1.71,1.71,0,0,0,1.32-.47c7.36-5.91,15.39-8.76,23.67-10.55a39.61,39.61,0,0,0,6.88-2.21,5.57,5.57,0,0,0,2.54-2.38c1.51-2.73,2.7-5.79,4.2-8.53a17.45,17.45,0,0,0,1.67-10.68c-.07-.64-.2-1.27-.28-1.91-1-8.65,2-14.4,8.28-15.49,7.92-1.38,15.86-2.83,23.85-1.74A142.81,142.81,0,0,1,396.87,36a19.5,19.5,0,0,1,3,1.47c2.49,1.48,5.22,2.87,5.32,7.41.11,4.81-2.67,6.65-5.26,8.29a36.65,36.65,0,0,1-7,3.55q-8,2.93-16.14,5.39c-10.12,3-20.27,5.94-30.4,8.91-.91.27-1.81.63-3,1.06.14,1.55.26,2.93.4,4.31s.41,2.55.45,3.84c.08,2.2-.63,3.86-2.21,4.46s-2.58-.5-3.14-2.25c-.79-2.49-1.37-5.13-2.09-7.93-5-.37-9.34.11-13.05,6.07-3.93,6.31-9.62,8.79-15.33,10.44-7.86,2.28-15.45.78-22.73-3.46-4.76-2.78-6-5-7.38-12.32-1.53.21-3.14.35-4.73.65-5.12,1-10.23,2.47-15.37,2.86a23.63,23.63,0,0,1-14.74-3.67c-1.84-1.17-3.37-3.26-5.29-5.18a24.71,24.71,0,0,0-1.42,2.52c-3,6.73-5.83,13.54-8.85,20.22a56.19,56.19,0,0,1-4.28,7.81,4.11,4.11,0,0,1-3,1.9c-1.47,0-2.19-1.86-2.23-3.75-.17-7.49-.23-15-.3-22.46,0-1.71.08-3.43.15-6.28l-2.45,4c-1.93,3.12-3.72,6.42-5.82,9.29a17,17,0,0,1-4.68,4.33c-3.13,2-5.85.61-7.46-3.51a24,24,0,0,1-1.48-5.93,106.66,106.66,0,0,1,0-26.24c.23-1.74.43-3.49.72-5.84a15.69,15.69,0,0,0-2.17,1.14C191.9,49.5,189,52,186,54.26A4.93,4.93,0,0,0,184,59c.53,10.53,1,21.06,1.53,31.86l8.32.87.11,1.26a13.74,13.74,0,0,1-3.42,1.35c-7.15.78-14.29,1.6-21.45,2a143.26,143.26,0,0,1-14.8,0,17.43,17.43,0,0,1-5.12-1.39,3,3,0,0,1-1.78-3.6c.32-1.88,1.44-1.78,2.57-1.52a5.6,5.6,0,0,0,1.89-.29c-.68-6.8,1.89-12.42,3.32-19.24-2.37.31-4.42.42-6.42.87-4.28,1-8.45,3.07-12.9,2.31-.85-.14-1.81.6-2.7,1-10.73,5-21.43,10.24-32.21,15-7,3.09-14,5.62-21.08,8.3a7.84,7.84,0,0,1-3.82.58c-1.87-.28-2.46-2.64-1.22-4.66A10.55,10.55,0,0,1,77.3,91c11.1-8.82,22.62-16.37,34.8-21.8,4.26-1.9,8.59-3.46,12.82-5.5A68.62,68.62,0,0,0,134,58.3c4.18-2.89,7.81-7.38,12.81-7.86l0-1.2a53.41,53.41,0,0,0-5-2.58c-8.61-3.36-17.42-5.34-26.4-4.34C105.13,43.45,95,45.2,84.83,46.91c-4.3.73-8.55,2-12.83,3.08-.58.14-1.23.57-1.73.35-.92-.42-2.2-1-2.48-1.92s.44-2.62,1-3.64a5.46,5.46,0,0,1,2.13-1.68c19.23-11.71,39-20.85,59.8-24.75,4.88-.92,9.84-1.82,14.71,0a18,18,0,0,1,4.79,2.76C151.33,21.92,152.24,23.33,151.48,26.28Zm-59,59.6C101.71,82,111,78.46,120.14,74.17c7.23-3.39,14.28-7.58,21.36-11.62A45.06,45.06,0,0,0,148,57.6a17.14,17.14,0,0,0,2.11-3.2c-4.4.14-8,.67-11.49,3.23a66.73,66.73,0,0,1-9.36,5.6C117.43,69.31,106,76.79,94.58,84.09a15,15,0,0,0-2,1.91l-2.8.72.32,1.21ZM401,45.22a28.29,28.29,0,0,0-3.67-2.51c-2.22-1-4.48-1.81-6.74-2.6C380.93,36.74,371,36.53,361,36a73.94,73.94,0,0,0-13,.18c-5.36.63-5.85,1.53-7.3,8.61,0,.16-.08.31-.11.47-1,4.71.06,14.17,2.13,18.83,3.61-1,7.29-2,11-2.94,6.24-1.63,12.45-3.55,18.72-4.79a97,97,0,0,0,24.64-8.14A30.89,30.89,0,0,0,401,45.22Zm-83.4.31-.38-1.5c-8.54.34-17,1.7-25.19,5.89a5.43,5.43,0,0,0,2.46,1.5c4.59,1,9.19,2,13.81,2.83a3.09,3.09,0,0,0,2.59-.89C313.25,50.89,315.42,48.16,317.64,45.53Zm-155.1,3-.45-.74c-1.78,1.16-3.59,2.25-5.34,3.52a4.51,4.51,0,0,0-1.41,2c-1.16,3.19-2.22,6.46-3.35,9.77a23,23,0,0,0,4.57-1.5,6.21,6.21,0,0,0,2.56-2.92C160.42,55.36,161.42,51.89,162.54,48.51Zm-3.88,41.16c10.62,1.48,19.78,1.32,21.82,0-.17-.42-.34-1.19-.49-1.18C172.88,88.82,165.77,89.25,158.66,89.67Zm142.59-6.32c4.82,1.21,9.33-.15,13.6-3.56Zm33.87-19.67-.85-.34-.49,2.36c.31.08.87.29.89.22C334.87,65.2,335,64.43,335.12,63.68ZM176.85,84l.08,1.11,2.42-.58-.16-1.14Zm.59-47.45-.63,0-.16,1.61c.19,0,.52.1.53,0C177.3,37.6,177.36,37.05,177.44,36.51Zm-9.76,38.18.1-.48-1.52-.76a4.86,4.86,0,0,0-.07.75C166.68,74.39,167.18,74.53,167.68,74.69Z"/></svg>