<svg id="working" xmlns="http://www.w3.org/2000/svg" viewBox="0 0 472.9 119.64"><defs><style>.cls-1{fill:#f6d809;}.cls-2{fill:#ed5332;}</style></defs><title>open_sauced_final_assets</title><path class="cls-1" d="M426.28,2.37V30.08H436V62.69h-.3l-42-60.32H230.33V14.48c-.83-.77-1.7-1.52-2.63-2.23q-12.87-9.88-36.82-9.88H112.19V17.5A62.26,62.26,0,0,0,98.78,7.92Q84,0,65,0,46.22,0,31.42,7.77A57.28,57.28,0,0,0,0,59.71,57.68,57.68,0,0,0,8.38,90.36a58.26,58.26,0,0,0,23.2,21.51,70.12,70.12,0,0,0,33.1,7.77q18.82,0,33.72-7.69a60.55,60.55,0,0,0,13.79-9.68v15.46h67.36V90H168V74.33h29.32a56.87,56.87,0,0,0,21.28-4,36.6,36.6,0,0,0,15.92-11.86,28.48,28.48,0,0,0,4.77-9.61V90h-8.95v27.71h156V90H376V49.37h.31l48.45,70.27h38.12V30.08h10V2.37Zm-347.63,77q-1.41,7.11-4.71,10.18t-9,3.06c-3.73,0-6.66-1-8.81-3.06s-3.68-5.44-4.63-10.18a106.61,106.61,0,0,1-1.41-19.67q0-12.87,1.49-19.91c1-4.69,2.56-8,4.71-9.95A12.39,12.39,0,0,1,65,26.94q5.51,0,8.72,3T78.5,40q1.56,7,1.57,19.75A106.46,106.46,0,0,1,78.65,79.38ZM190.5,46.23q-3.37,2.69-9.65,2.68H168V27.71h11.56q6.88,0,10.6,2.45c2.48,1.63,3.71,4.39,3.71,8.27Q193.86,43.56,190.5,46.23ZM349.2,90h-8.8V80.91H310.16V90H284V71.19h22.89V47.69H284V30.08h26.18v9.11H340.4V30.08h8.8Z"/><path class="cls-2" d="M154.69,33.42c1.09-.28,1.6.64,2.16,1.2a40.22,40.22,0,0,1,3.34,3.79c.76,1,1.38,2,2.09,3a4.33,4.33,0,0,1,.43,4.08,33.45,33.45,0,0,1-3.83,7c-.19.3-.34.61-.67,1.19.63-.16,1-.23,1.34-.35,1.88-.67,3.75-1.39,5.64-2,.74-.25,1.56-.38,1.86.69,2.11,1.51,3.44,3.76,5.27,5.53a4.45,4.45,0,0,0,1,.52c.53-2.17,1.11-4.18,1.5-6.23.54-2.81.95-5.65,1.39-8.48.08-.5,0-1,.06-1.53.1-1.84.34-3.68.27-5.52a41.55,41.55,0,0,0-.69-5.64,5.37,5.37,0,0,1,.59-3.37.75.75,0,0,1,1.11-.45,44.55,44.55,0,0,1,5.51,2.27c2.39,1.38,5.17,2.46,6.09,5.52a4.33,4.33,0,0,0,.44.79c-.18.3-.77.26-.46.87.76,1.51,1.32,3.12,2.16,4.58,2.7,4.66,5.49,9.27,8.24,13.9a3,3,0,0,1,.41.82c1,4.15,3.54,7.55,5.26,11.36.15.32.29.65.47,1a2,2,0,0,1-.12,2.43,9.39,9.39,0,0,0-1.75-.14c-.58.07-.85.49-.78,1.12.06.47,0,1,.05,1.66a23.6,23.6,0,0,0-2.88-.48,22,22,0,0,0-4,.1,30.67,30.67,0,0,0-5.1,1.18c-2.81.94-5.56,2.07-8.34,3.1a12,12,0,0,0-3.5,1.84,6.37,6.37,0,0,1-3,1.31,8.79,8.79,0,0,1-3.47-.44,6,6,0,0,0-2.21-.46c-.26,0-.54-.2-.86-.33a7.43,7.43,0,0,0,.29-1.23c.09-1.69.14-3.37.22-5.39l-1.6,2.39L158.26,90.22c-3.34,5-6.72,10.07-10,15.15-.8,1.23-1.36,2.63-2,3.95a1.49,1.49,0,0,1-.44.6c-.83.57-1.69,1.1-2.54,1.64a1.1,1.1,0,0,1-1.6-.3,11.69,11.69,0,0,0-1.07-1c-.23-.2-.58-.33-.7-.57a4.11,4.11,0,0,0-2.42-2l.21-2-.25-.09-.69.69a5.55,5.55,0,0,1-1.1-1.3c-.55-1.34-.09-2.71,0-4.07a.47.47,0,0,1,.17-.26c1.78-1.67,2.78-3.91,4.16-5.87,1.77-2.51,3.49-5.06,5.22-7.6,2.19-3.22,4.35-6.46,6.55-9.68,1.27-1.86,2.6-3.68,3.89-5.53.4-.57.73-1.2,1.27-2.09a5.73,5.73,0,0,0-1.12.34c-3.57,2.3-7.12,4.64-10.71,6.92a38.53,38.53,0,0,1-4.17,2.32,3.62,3.62,0,0,1-3.24.3c-.24-.12-.66.15-1,.26-.08-1.21-1.16-1.91-2.07-2.38a6.18,6.18,0,0,1-2.09-1.93c-.39-.51-.69-1-1.49-.6-.44.21-.87-.14-1-.7a7.26,7.26,0,0,1,.15-4,3.3,3.3,0,0,1,.47-1,19.46,19.46,0,0,1,2.5-3,8.44,8.44,0,0,0,1.43-1.75c1-1.45,2-2.86,2.93-4.31,1.41-2.13,2.73-4.32,4.21-6.4,1.94-2.75,4-5.41,6-8.14.78-1.07,1.45-2.21,2.17-3.32,1.83-2.8,3.7-5.56,4.65-8.82A1,1,0,0,1,154.69,33.42ZM159,50.51l.12.09.88-1.32Zm-2.62,3.62.23.18.68-.82L157,53.3Z"/><path class="cls-2" d="M210.54,41.11l-.79-.29a.7.7,0,0,0-.08.26c.07.56.5,1.16-.23,1.62-.06,0,0,.41.11.56a4.47,4.47,0,0,0,.88,1.05,5.89,5.89,0,0,1,2.16,4,1.7,1.7,0,0,0,.66,1.1A1.55,1.55,0,0,1,214,51a2.66,2.66,0,0,0,.66,1.64c.27.27.93.16,1.5.24l-.27-1.56c.65.35,1.06.22,1.2-.44.2-.9.34-1.82.59-2.71.3-1.07.72-2.12,1-3.19.14-.48.07-1,.21-1.48.4-1.3.86-2.57,1.28-3.86a9.32,9.32,0,0,0,.22-1.05A16.59,16.59,0,0,1,222,33.94a11.45,11.45,0,0,0,.82-2.76,7.65,7.65,0,0,1,1.13-3.3,3.63,3.63,0,0,0,.38-1.24l1.94-.95.72.68c1.23.27,2.25-1,3.5-.27l.94,2.74c.66-.05,1.34-.39,1.9.35.2.27.86.18,1.31.25a1.9,1.9,0,0,1,1.48,2.46c-.59,1.52-1.19,3-1.82,4.55a7.7,7.7,0,0,1-.68,1.13c-.13.21-.41.48-.36.63.34,1-.49,1.61-.87,2.33a8.46,8.46,0,0,0-1,4.43c0,.18.15.35.26.6,1.29-.39,1.94-1.51,2.84-2.27,1.28-1.08,2.34-2.37,3.57-3.5s2.13-2.46,3.23-3.65c1.28-1.38,2.66-2.67,3.93-4.06a44.12,44.12,0,0,0,7.33-9.94s.09,0,.13-.07c2.2.53,3.7,2.16,5.38,3.49a18.82,18.82,0,0,1,4.31,4.64L247.6,47.06a14.21,14.21,0,0,0,2.55.2c4.85-.61,9.61.19,14.36,1a48.31,48.31,0,0,1,6.71,1.65,11,11,0,0,1,2.52,1.67l1.58,1.08c-.14-.53-.18-.77-.26-1l-2.49-6.94a1.26,1.26,0,0,0-.12-.29c-1.68-2.46-2.15-5.42-3.32-8.09-.33-.74-.75-1.44-1.1-2.17-.62-1.29-1.43-2.51-1-4.08a2.47,2.47,0,0,0-.26-1.17,5.58,5.58,0,0,1,.78-4.68c.16-.25.41-.58.64-.61,1.88-.19,3.09-1.55,4.45-2.59,3.83-2.93,7.59-5.95,11.38-8.93l.24-.2c1.48-1.25,2.38-1.27,3.89-.11,1.1.85,2.28,1.59,3.29,2.52a38.59,38.59,0,0,1,2.86,3.13c.12.13.08.39.13.68-.81.25-1.58.46-2.33.72a2.77,2.77,0,0,0-1.56,1.35,8.6,8.6,0,0,1-2,2.09c-1.77,1.56-3.54,3.11-5.37,4.59-1.34,1.08-2.78,2-4.26,3.12.82,3.16,1.85,6.27,2.95,9.49,2.71-1.21,5.38-2,7.66-3.63.84-.6.87-.47,1.74.26,1.12.94,2.37,1.74,3.56,2.61s2.27,1.6,3.34,2.48a12.92,12.92,0,0,1,1.38,1.57c-2,1.91-4,3.48-6.69,3.93a4.71,4.71,0,0,0-1.71,1c-1,.69-1.95,1.43-2.6,1.91l-4.16-.68c.21.71.33,1.19.48,1.66q1.5,4.69,3,9.37c.1.29.22.58.33.86a2.33,2.33,0,0,0,2.3,1.64A24.9,24.9,0,0,1,299,63.8a5.68,5.68,0,0,1,1.37.62c1.53,1.13,3.06,2.25,4.49,3.49a14.6,14.6,0,0,1,1.77,2.32c-1,.18-1.82.28-2.62.46-1,.23-2,.51-2.92.78a4.34,4.34,0,0,1-3.53-.67A8.15,8.15,0,0,0,292,69.65a23.5,23.5,0,0,1-2.9-.07,6.89,6.89,0,0,0-1.36.06A6.42,6.42,0,0,1,281,66.77a.85.85,0,0,1-.19-.42c-.24-2.52-2-4.47-2.63-6.84-.49-1.72-2.15-1.87-3.59-2.19a14.31,14.31,0,0,1-3.06-.62,9.66,9.66,0,0,0-3.53-.91c-2.1-.15-4.19-.37-6.28-.42-1.89,0-3.79.06-5.68.19-1,.06-1.9.44-2.84.44-2.67,0-4.85,1.51-7.29,2.2a11.79,11.79,0,0,1-5.77.4,5.17,5.17,0,0,1-2.56-1.25,28.1,28.1,0,0,0-3.63-2.26c-.88-.58-1.69-1.28-2.53-1.93l-1.64-1.29c-.34,1.26-.7,2.36-.92,3.48-.34,1.7-.63,3.42-.85,5.14s-.36,3.35-.47,5a1.67,1.67,0,0,0,.34,1c.46.71.33,1.31-.43,1.46a12.24,12.24,0,0,1-2.75.29,24.51,24.51,0,0,0-6.57.23c-.68.15-1.37.24-2.37.42-.83-1-1.9-2.13-2.87-3.37-3.19-4-5.64-8.58-8.22-13-2.93-5.06-5.73-10.2-8.59-15.3-.23-.4-.54-.75-.74-1.16a7.41,7.41,0,0,1-.83-1.93,2.67,2.67,0,0,1,1.71-3.34c.37-.18.79-.27,1.13-.48a2.25,2.25,0,0,1,2.7.27c1.34,1.4,3.08,1.43,4.71,1.88a5.57,5.57,0,0,1,1.32.35A3.81,3.81,0,0,1,207.5,34c.9,1.66,1.66,3.39,2.43,5.12A17.6,17.6,0,0,1,210.54,41.11Zm15.92,23.31.42,0,0-1.7h-.19Z"/><path class="cls-2" d="M230.21,88.22l-.72-.58c-1.07,1.61-.9,3.69-2.07,5.29s-.31,3.74-1.5,5.1a6.92,6.92,0,0,0-2.09.14,5,5,0,0,1-2.55.14,1.79,1.79,0,0,1-1.69-1.52,10.91,10.91,0,0,1-.25-2.28c-.05-2-.05-4-.07-6a9.26,9.26,0,0,0-3.76.49c-1.26,4.11-1,8.42-2.53,12.27-1,.2-2,.4-3,.57a3,3,0,0,1-.84,0c-.43-.07-.85-.22-1.28-.25a1.79,1.79,0,0,1-1.83-2.17c.31-2.7.59-5.4.87-8.11a3.2,3.2,0,0,0,0-.55c-.15-.09-.24-.19-.31-.18-3.17.62-6.42.84-9.45,2.09a2,2,0,0,1-.59.15,57.76,57.76,0,0,0-11.35,2.8l-11.64,3.92a12.34,12.34,0,0,1-1.19.33,1.16,1.16,0,0,1-1.41-.65c-1.18-2.27-2.52-4.48-3.48-6.83a10.47,10.47,0,0,1-.4-4,1.74,1.74,0,0,1,2-1.5c2.55.2,4.85-.76,7.22-1.38,4.67-1.23,9.3-2.62,14-3.73,5.55-1.31,11.15-2.39,16.72-3.57.15,0,.29-.11.65-.24,0-.79-.14-1.64-.1-2.48a15.8,15.8,0,0,1,.39-3c.22-.85.62-.9,1.54-.79A17.49,17.49,0,0,1,214,73.23a12.66,12.66,0,0,1,2.29,1.17,4.56,4.56,0,0,1,1.39,1.72c.09,0,.18.12.26.12,3-.07,3-.07,3-3.16a2.85,2.85,0,0,1,0-.77c.55-2.35.78-2.73,3.07-2.13a22.08,22.08,0,0,1,5.61,2.68,10.51,10.51,0,0,0,1.54,1,5.11,5.11,0,0,0,2.64.51c3.1-.43,6.22-.75,9.34-1.07,4.13-.43,8.27-.77,12.4-1.22s8.56-1,12.84-1.57a28.26,28.26,0,0,0,2.8-.75,4.13,4.13,0,0,1,4.06.89,6.58,6.58,0,0,0-.57,3.86c.11,2.14.2,4.3.13,6.44-.05,1.51-.17,1.38-1.64,1.31a24.88,24.88,0,0,0-3.83.34c-4.39.48-8.77,1-13.17,1.45-4.24.42-8.5.65-12.74,1.08-3.84.39-7.66.93-11.48,1.4C230.94,86.63,230.2,87,230.21,88.22Z"/><path class="cls-2" d="M335.1,42.65l-4.91,4.16c-.47.39-.95.76-1.43,1.13-1.58,1.22-3.13,2.48-4.74,3.66s-3.18,2.24-4.81,3.29a24.86,24.86,0,0,1-3,1.59,2.65,2.65,0,0,1-1.2.14c-2.7-.08-5.43.1-8.08-.65a2.36,2.36,0,0,0-1.17.2,11.47,11.47,0,0,0-1.15.46,4.26,4.26,0,0,1-.81-3.27c.09-.59.05-1.22.15-1.81a1.79,1.79,0,0,1,.45-.9,9.54,9.54,0,0,1,1.21-.88,3.47,3.47,0,0,0-.15-.82c-2.59-6.08-3.41-12.57-4.36-19-.63-4.21-1.11-8.45-1.71-12.67a29.59,29.59,0,0,0-.86-3.58,7.34,7.34,0,0,1,.23-4.08c.29-1,2.59-1.94,3.69-1.7a9.34,9.34,0,0,0,1.66.23,3,3,0,0,1,2.73,1.6,1.28,1.28,0,0,0,1.46.82A3.08,3.08,0,0,1,311,11.66a51,51,0,0,0,10.42,7.83c3.25,1.71,6.41,3.63,9.49,5.64a56.42,56.42,0,0,1,5.52,4.38c1.79,1.52,3.53,3.11,5.25,4.7a3.24,3.24,0,0,1,1.47,2.56c0,.63-.27,1-.8,1.12-1.32.18-2.13,1.13-3.1,1.87-1.34,1-2.75,2-4.13,2.92.18-.67,1.31-.78,1.14-1.77-.24.07-.36.07-.43.13l-1.15,1.18Zm-20,2.32c2.42-1.78,4.69-3.39,6.88-5.1s4.4-3.63,6.47-5.55c-3-4.07-13.31-11.43-16.19-11.69a12.57,12.57,0,0,1-.43,3.17,7.44,7.44,0,0,0-.39,4.06,6.26,6.26,0,0,1-.1,1.27l-.76-.78c.15.85.3,1.49.36,2.15a15.77,15.77,0,0,0,1.2,4.78c.89,2,1.44,4.16,2.16,6.23A11.31,11.31,0,0,0,315.09,45Zm18-1.68.26.24.46-.57-.15-.15Z"/><path class="cls-2" d="M211.19,42.39c-.14-.2-.28-.41-.41-.62,0,0,.12-.09.18-.14l.4.61Z"/><path class="cls-2" d="M214.15,48.38l-.53-.72.15-.17a1.59,1.59,0,0,1,.37.29,2.18,2.18,0,0,1,.17.51Z"/></svg>