<svg id="working" xmlns="http://www.w3.org/2000/svg" viewBox="0 0 472.9 119.64"><defs><style>.cls-1{fill:#f6d809;}.cls-2{fill:#ed5332;}</style></defs><title>open_sauced_final_assets</title><path class="cls-1" d="M426.28,2.37V30.08H436V62.69h-.3l-42-60.32H230.33V14.48c-.83-.77-1.7-1.52-2.63-2.23q-12.87-9.88-36.82-9.88H112.19V17.5A62.26,62.26,0,0,0,98.78,7.92Q84,0,65,0,46.22,0,31.42,7.77A57.28,57.28,0,0,0,0,59.71,57.68,57.68,0,0,0,8.38,90.36a58.26,58.26,0,0,0,23.2,21.51,70.12,70.12,0,0,0,33.1,7.77q18.82,0,33.72-7.69a60.55,60.55,0,0,0,13.79-9.68v15.46h67.36V90H168V74.33h29.32a56.87,56.87,0,0,0,21.28-4,36.6,36.6,0,0,0,15.92-11.86,28.48,28.48,0,0,0,4.77-9.61V90h-8.95v27.71h156V90H376V49.37h.31l48.45,70.27h38.12V30.08h10V2.37Zm-347.63,77q-1.41,7.11-4.71,10.18t-9,3.06c-3.73,0-6.66-1-8.81-3.06s-3.68-5.44-4.63-10.18a106.61,106.61,0,0,1-1.41-19.67q0-12.87,1.49-19.91c1-4.69,2.56-8,4.71-9.95A12.39,12.39,0,0,1,65,26.94q5.51,0,8.72,3T78.5,40q1.56,7,1.57,19.75A106.46,106.46,0,0,1,78.65,79.38ZM190.5,46.23q-3.37,2.69-9.65,2.68H168V27.71h11.56q6.88,0,10.6,2.45c2.48,1.63,3.71,4.39,3.71,8.27Q193.86,43.56,190.5,46.23ZM349.2,90h-8.8V80.91H310.16V90H284V71.19h22.89V47.69H284V30.08h26.18v9.11H340.4V30.08h8.8Z"/><path class="cls-2" d="M336.82,56.7a12.85,12.85,0,0,1-7.38,3.22c-4.7.36-9.4,1.53-14.07,1.36-6.91-.24-13.24,2.44-19.89,3.39a65.58,65.58,0,0,0-7.22,1.9c1,.74,1.56,1.53,2.23,1.64a83.46,83.46,0,0,0,22.44.9c6.28-.73,12.65-.47,19-.89,3.72-.25,7.41-.93,11.1-1.48q6.61-1,13.2-2c1.45-.24,2.88-.61,4.64-1,.74-7.54-1.19-14.65-2.21-22.3-3.85-.92-7.86-.46-11.82,0-3.07.32-6.11,1-9.17,1.57a5,5,0,0,1-5.8-4c-.49-2,.18-3.71,2.32-4.21a88.78,88.78,0,0,1,11.54-1.93,53.13,53.13,0,0,1,16.44.83,6.5,6.5,0,0,0,2.81,0c7.31-1.81,14.46.2,21.65,1a39.07,39.07,0,0,1,11,2.72c3.33,1.41,7,1.86,10.57,2.67,7.69,1.75,15.31,3.71,22.53,7.12,3.14,1.49,6.26,3,9.3,4.73C442,53,445.09,60,444.33,62.24a6.72,6.72,0,0,1-2.85,3.36A53.81,53.81,0,0,1,425,71.9c-9.29,1.61-18.64,2.85-27.93,4.49-11.77,2.09-23.63,1.52-35.46,1.68a68.33,68.33,0,0,1-8.08-.5c-1.33-.14-2.88-.25-3.88-1-4.06-3.16-8.53-2.39-12.75-1.31A70.41,70.41,0,0,1,316,77.44c-4.5-.21-9-.38-13.48-.26-4.15.11-8.33-.62-12.48-1.14-4.71-.6-8.45-3.36-11.54-6.24-4.63.85-9,1-13,2.54-6.33,2.38-12.92,2.6-19.4,3.65-3.69.61-7.67,1-11.26.18-5.48-1.23-11.57-2-14.65-8.22-.76-1.56-3-2-2.59-4.48.53-3.06,1.51-5.94,3.76-7.85a58.21,58.21,0,0,1,10.3-7.45c9.59-5,19.53-9.12,30.28-10.3A43.54,43.54,0,0,1,272,38c1.44.17,2.75,1.63,4.23,2.57-.66,2.87-2.1,4.3-4.81,4.25-6.92-.12-13.44,2.31-19.9,4.28-7,2.12-13.51,5.68-20.18,8.76a14.28,14.28,0,0,0-4.62,3.3,6.54,6.54,0,0,0-1.46,4.15c0,1.83,1.7,2.21,3.27,2.48,4.41.79,8.84.33,13.17-.16,9.37-1.06,18.68-2.7,28-4.07,1.73-.26,3.48-.36,5.21-.57a6.64,6.64,0,0,0,2.73-.47c3.09-2,6.61-2.27,10-3.11,2.58-.64,5.07-1.67,8.53-2.84-3.66-1.23-6.47-2-9.18-3.13a22.91,22.91,0,0,1-5.66-3c-2.41-1.87-2.23-4.3.05-6.44a18.72,18.72,0,0,1,9-4.61c5.49-1.2,10.88-3.32,16.66-2.67,1,.11,2.1-.48,3.16-.65,2.12-.35,4.26-.6,6.39-1,3.28-.55,5.36,1.08,6.9,4,1.08,2,.62,3.61-1.47,4.26a9.62,9.62,0,0,1-2.41.21c-4.3.19-8.63.12-12.91.59s-8.59,1.49-13.3,2.34a3.57,3.57,0,0,0,3.58,2.17c10.63.52,21.24,1.26,31.87,1.51C333.09,50.27,335.69,51.82,336.82,56.7Zm35.77,13c8-.34,16.43-.54,24.84-1.1,5.09-.34,10.13-1.4,15.21-1.85,7.16-.64,13.86-3.19,20.67-5.28,1.7-.53,3.2-1.76,5.25-2.92-3.18-3.18-6.58-4.63-9.85-6-3.43-1.45-7.16-2.09-10.74-3.15-4.74-1.42-9.46-2.91-14.19-4.35a9.12,9.12,0,0,0-1.58-.23c-8.12-.92-16.32-1.39-24.34-2.93-4.12-.79-8.21-.87-12.31-1.39a5.59,5.59,0,0,0-1.75.31c.95,3.31,2,6.36,2.69,9.5.81,3.79,1.27,7.67,2,11.49a9.83,9.83,0,0,0,1.2,2.57C370.5,65.87,371.36,67.4,372.59,69.67Z"/><path class="cls-2" d="M35.59,82.38c7.26,1.29,13.84.43,20.31-.73,11.93-2.15,23.78-4.77,35.66-7.16,5-1,10.11-1.61,15-3,6-1.63,11.84-3.76,17.71-5.83,4.72-1.67,9.39-3.52,14.06-5.36,1.18-.47,2.27-1.2,4-2.15a39.11,39.11,0,0,0-14.16-2.64,76.4,76.4,0,0,1-12.78-.91c-3.62-.7-7.52-.21-11.24.24C90.6,56.56,77,58.39,63.4,60.27c-5,.7-10.09,1.61-15.11,2.57a5.92,5.92,0,0,1-6.15-2.16c-1.45-1.73-1.46-2.89.19-4.24a5.64,5.64,0,0,1,2.12-1.23c8.26-2,16-5.74,24.17-7.91,6.67-1.76,13.31-3.63,20-5.16A74.28,74.28,0,0,1,109,40.44c2.41.13,5.34,1.19,7.52-1.44.4-.49,1.53-.48,2.3-.42,3.36.23,6.74.41,10.06.92,2.18.34,4.52.86,5.48,4.27a31.94,31.94,0,0,1-4.41.74c-4.93.12-9.76,1.06-14.82.33-3.87-.56-8,1-12.05,1.68l-.08,1a7.09,7.09,0,0,0,2.21.79c8.6-.19,17.21-.67,25.81-.62,3.59,0,7.19,1.06,10.77,1.76,3.18.62,5.59,2.73,7.72,5.13,2.57,2.88,2.41,7-.71,9.28a47.14,47.14,0,0,1-10.27,5.83c-6.81,2.66-13.77,5-20.77,7-4.24,1.24-8.84,1.22-13,2.67a119.14,119.14,0,0,1-19.17,5.1c-6.9,1.17-13.81,2.34-20.74,3.26S51,89.58,44,89.93c-4.45.22-9.06.46-12.85-3.37C28.69,84,27.41,80.5,29.5,77.82a23.74,23.74,0,0,1,9.24-7.32c2.5-1.08,4.23.93,6.22,2.1-.25,2.76-2.08,4-3.92,5.14-1.15.74-2.45,1.24-3.52,2.07A13.27,13.27,0,0,0,35.59,82.38Z"/><path class="cls-2" d="M189.12,69.39a37.22,37.22,0,0,0,.23,4.23c.62,3.74.3,4.93-3,6-5.22,1.62-10.3,3.93-16,3.71-4.4-.17-8.88.64-13.23.12-3.66-.44-7.27-2-10.74-3.41-2.16-.91-2.37-3.67-.37-5.19,2.4-1.82,3.24-4.4,4.3-7,3.42-8.47,6.74-17,10.52-25.31a42.37,42.37,0,0,1,6.5-9.69c4.34-5.09,11-3.94,13.28,2.44,3.39,9.63,7.88,18.94,8.5,29.47.09,1.56.21,3.11.31,4.67Z"/><path class="cls-2" d="M193.62,44c1.63-.48,2.67-.73,3.68-1.11,2.72-1,3.71-.27,3.41,2.76-.25,2.54-.77,5.05-.92,7.59-.24,4.11-.28,8.24-.41,12.36a41.19,41.19,0,0,0-.14,4.57c.16,2.08-.85,4.71,2.46,6,.79-1.33,2-2.61,2.37-4.11,1.51-5.58,3.8-10.89,4.26-16.85.4-5.33.46-10.5-1.22-15.59a6.2,6.2,0,0,1-.66-2.43,5.9,5.9,0,0,1,1.22-3.32c.51-.49,2-.16,2.88.17,3.63,1.27,5.27,4.31,5.73,8.05A60.35,60.35,0,0,1,216.15,60c-1.33,7.7-5.4,14.1-8.75,20.82a5.2,5.2,0,0,1-6.72,2.2,28.37,28.37,0,0,1-6.09-4c-.75-.65-.76-2.26-1.16-3.4a43,43,0,0,1-2.14-20.43C191.8,51.44,192.82,47.77,193.62,44Z"/></svg>