<svg id="working" xmlns="http://www.w3.org/2000/svg" viewBox="0 0 472.9 119.64"><defs><style>.cls-1{fill:#f6d809;}.cls-2{fill:#ed5332;}</style></defs><title>open_sauced_final_assets</title><path class="cls-1" d="M426.28,2.37V30.08H436V62.69h-.3l-42-60.32H230.33V14.48c-.83-.77-1.7-1.52-2.63-2.23q-12.87-9.88-36.82-9.88H112.19V17.5A62.26,62.26,0,0,0,98.78,7.92Q84,0,65,0,46.22,0,31.42,7.77A57.28,57.28,0,0,0,0,59.71,57.68,57.68,0,0,0,8.38,90.36a58.26,58.26,0,0,0,23.2,21.51,70.12,70.12,0,0,0,33.1,7.77q18.82,0,33.72-7.69a60.55,60.55,0,0,0,13.79-9.68v15.46h67.36V90H168V74.33h29.32a56.87,56.87,0,0,0,21.28-4,36.6,36.6,0,0,0,15.92-11.86,28.48,28.48,0,0,0,4.77-9.61V90h-8.95v27.71h156V90H376V49.37h.31l48.45,70.27h38.12V30.08h10V2.37Zm-347.63,77q-1.41,7.11-4.71,10.18t-9,3.06c-3.73,0-6.66-1-8.81-3.06s-3.68-5.44-4.63-10.18a106.61,106.61,0,0,1-1.41-19.67q0-12.87,1.49-19.91c1-4.69,2.56-8,4.71-9.95A12.39,12.39,0,0,1,65,26.94q5.51,0,8.72,3T78.5,40q1.56,7,1.57,19.75A106.46,106.46,0,0,1,78.65,79.38ZM190.5,46.23q-3.37,2.69-9.65,2.68H168V27.71h11.56q6.88,0,10.6,2.45c2.48,1.63,3.71,4.39,3.71,8.27Q193.86,43.56,190.5,46.23ZM349.2,90h-8.8V80.91H310.16V90H284V71.19h22.89V47.69H284V30.08h26.18v9.11H340.4V30.08h8.8Z"/><path class="cls-2" d="M301.52,68.34c1.89.26,3,.49,4.11.54a124.28,124.28,0,0,0,24-1,7.19,7.19,0,0,0,1.55-.34,7.9,7.9,0,0,1,7.19.33c3,1.59,7,2.49,8.83,4.81.19.25.75.38,1.47.71-12.1,2.28-24.19,2.78-36.31,4,.36,1,2.23,1.2,3.09,1.83-1.88,1.23-4,1.52-6.7,1.36-1.7-.1-3.58.48-5.39.64s-3.47.21-5.19.21c-5.29,0-10.58-.08-15.88-.08-2.91,0-5.85.23-8.73.14a58.22,58.22,0,0,1-20.15-4.17c-3.55-1.42-6.31-3.51-9.31-5.36-.61-.38-.7-1-1.41-1.46.32,1.08.21,2.17,1.61,3.09,1,.67,1.28,1.76,1.82,2.68.37.63.42,1.37,1,1.92,1.65,1.63,3.53,3.18,5.21,4.8a34.27,34.27,0,0,1,2.24,2.63c.38.43.79.84,1.22,1.3l-3.2,1.46a2,2,0,0,1-.8.31c-2.78-.19-5.56.88-8.36.31a25.8,25.8,0,0,0-3.18-.2c-3.85-5.09-9.31-9.72-11.86-15.41a17.05,17.05,0,0,0-2.08.94c-4,2.58-9.16,3-14.38,3.48a31.56,31.56,0,0,1-15.19-2.69,12,12,0,0,1-6.08-5.72,90.34,90.34,0,0,1-4.17-8.2,57.33,57.33,0,0,1-2-6.66c-.09-.31-.11-.63-.18-.94-.66-2.77-.8-5.65-4.66-7.67-1.56-.81-1.47-1.87-.77-3.12a16.51,16.51,0,0,0,1.4-4.52q.8-3.54,4.91-6.26a4.44,4.44,0,0,1,5.06-.41c2.65,1.19,5.25,2.42,7.69,3.75a2.6,2.6,0,0,1,1.44,3.21c-.69,3.45-1.49,6.94-.22,10.36a4.56,4.56,0,0,1-.08,3.19c-.86,2.22,0,4.32.43,6.41.63,3,2.1,6,2.86,9,.94,3.76,10,4.59,14,2.92a6.82,6.82,0,0,0,2.6-2c2.61-3.17,3.29-6.53,4-9.91.76-3.83-.47-7.45-1.8-11-1.66-4.46-3.62-8.87-5.54-13.28a2.66,2.66,0,0,1,.54-3.45c1.16-1.1,2.15-2.26,3.35-3.34a2.82,2.82,0,0,1,1.69-.51c2,.48,4.52.29,6.08,1.34.34.23.5.61.92.73,4.15,1.24,4.46,3.83,5.87,6,2.56,4,3.37,8.21,4,12.48a33.46,33.46,0,0,0,.91,3.47h.78c.5-.81,1-1.62,1.47-2.45a43,43,0,0,1,14.63-16.33,22.21,22.21,0,0,0,2.33-1.88C260,28.68,263,28.1,266,27.73c4.13-.5,8-.58,11.85.72,2.75.94,5.41,1.74,7.14,3.37A35.68,35.68,0,0,0,289,34.63c-1.61.31-3.09.65-4.6.86s-3.19.2-4.56,1a5.14,5.14,0,0,1-2.48.1c-3.86-.59-6.76.49-8.65,2.32-2.41,2.33-4.64,4.74-5.65,7.43-1.28,3.39-3.12,6.74-4.27,10.13-1.48,4.4-1.8,8.77,1.46,12.81,1.73,2.14,4.14,3.66,8.51,4.17a106.15,106.15,0,0,0,17.11.22,4.75,4.75,0,0,0,.91-.19c.08,0,.12-.11.29-.28-.82-.48-1.73-1-2.54-1.5-1.39-.93-1.72-1.89-1-3.27,2.52-4.6,7.44-8.08,14.11-10.87.63-.26,1.17-.59,2.14-1.09-2.84-.71-5.39-1.36-8-2-1.86-.45-3.79-.81-5.61-1.3-3.45-.92-4.87-3-3.57-5.18,2.83-4.75,7.34-8.87,14-12.27,4.47-2.28,8.55-4.83,13-7.12,3.78-1.93,7.87-3.66,11.86-5.46,1.42-.64,2.95-1.19,4.41-1.8a10.67,10.67,0,0,1,6.17-.69c2.62.46,5.58.36,6.9,2.26.51.74,2.43,1.09,3.2,1.41-.44,2.53-3.62,2.74-5.79,3.71l2.53,1.16a29.77,29.77,0,0,0-3.81.65c-2.42.78-4.77,1.65-7.11,2.53-6.71,2.53-12.35,5.85-18.39,8.88a77.6,77.6,0,0,0-7.23,4.4,14.91,14.91,0,0,0-1.92,1.78,38.26,38.26,0,0,0,4.51.11c7.88-.76,15.82-1.42,23.14-3.72a6.58,6.58,0,0,1,5,.56,57.15,57.15,0,0,1,7.17,4c1.47,1,1,2.06-1.1,2.66-5.36,1.54-9.69,4-14.49,6-1.81.76-3.72,1.44-5.54,2.2a163.24,163.24,0,0,0-15,7.25A27.78,27.78,0,0,0,301.52,68.34Z"/><path class="cls-2" d="M105.79,48.73c-.2-1.5-.46-3-.6-4.6s-.12-3-.23-4.55c-.15-2.16,2.45-3.24,5.17-4.19A3.52,3.52,0,0,1,114,36c.81.77,1.31,1.67,2,2.48,2.29,2.59,2.14,5.54,2.62,8.38.6,3.57.86,7.17,1.4,10.75.2,1.31.82,2.58,1.13,3.88a9.77,9.77,0,0,1,0,2.23c-3.68-.17-6.91-.15-9.94-.54a7.48,7.48,0,0,1-3.34-1.8,32.07,32.07,0,0,1-3.44-3c-1.13-1.13-2.94-1.31-5-1.2a29.4,29.4,0,0,0-13.07,3.36A21.77,21.77,0,0,0,78.22,68c-.92,1.5-.6,2,1.9,2.42a45.91,45.91,0,0,0,8.48.83c8.46-.19,17-.76,25.41-1,6.29-.15,12.6-.12,18.81.16,4.64.21,8.56,1.44,10.8,4,1.16,1.3,2.4,2.58,3.62,3.87a2.26,2.26,0,0,0,1.38.6c0-1.09,0-2.19,0-3.28s0-2.28,0-3.42a10.06,10.06,0,0,1,.14-2.45,14.64,14.64,0,0,0,.42-7,2.81,2.81,0,0,1,0-1.52c1.81-5.15,1.41-10.27,1.24-15.38a49,49,0,0,0-1.34-7.9c-.29-1.41-.82-2.8-1.22-4.21-.09-.3-.32-.71-.08-.9,1.71-1.41,3-3.07,6-3.85,4.79,2,9.45,4,12.42,6.91a59.12,59.12,0,0,1,5,6.19c.34.45.47,1,.8,1.41a15,15,0,0,1,2.21,4.83c.73,2.52,2.25,4.93,3.29,7.42a18.27,18.27,0,0,1,1,3.68c.28,1.38-.24,3.05.86,4.1s1.3,2.43,2,3.62c2,3.35,3.72,6.78,5.64,10.17A28.61,28.61,0,0,0,194.13,86a19.72,19.72,0,0,1,4.18,4.7,32.58,32.58,0,0,1-8.37,2.17c-2.27.32-3.9-.5-5.84-.76a33.92,33.92,0,0,0-4.64-.46c-3.25,0-6.52.25-9.78.39-3.58.16-7.16.38-10.46-.59a16.88,16.88,0,0,0-3.25-.23c-.84-1.46.25-2.69,1.85-3.87-3.15-1.19-8.41-.47-8.6-3.85l-.71.17a7.22,7.22,0,0,0-1.26,1.19c-1.57,2.49-4.83,4.21-8.14,5.88-1.68.86-3.53,1.62-5.34,2.38-1.19.5-2.42,1-3.69,1.37-2.73.87-5.51,1.7-8.28,2.53a24.61,24.61,0,0,1-3.32.9,81.4,81.4,0,0,1-19.7,1c-3.25-.3-6.08-1.05-7.87-2.78a38.43,38.43,0,0,0-3.2-2.26c-1.33-1-1.6-2.11-.27-3.31a3.76,3.76,0,0,0,.54-.7c.84-1.22,2.44-1.64,4.32-1.09a14,14,0,0,1,2,.86c5.87,2.71,12.67,2.81,19.88,1.55A68.81,68.81,0,0,0,130.64,86c3-1.34,4.25-3.17,4.39-5.24.09-1.41-.73-2.2-3.14-2.34a98.61,98.61,0,0,0-10-.06c-4.11.19-8.23.62-12.34,1-1.08.09-2.14.25-3.21.38a30,30,0,0,1-4.15.49c-5.48-.1-11.06.11-16.32-.8-4-.68-8-1.34-11.87-2.14a11.52,11.52,0,0,1-3.91-1.49c-2.54-1.69-4.85-3.5-6.18-5.71-1.6-2.7-1.34-5.33,1.2-7.92,5.61-5.74,13.15-10.37,23.8-12.75a45,45,0,0,1,14.48-.65c.63.07,1.26.1,1.9.14A4.9,4.9,0,0,0,105.79,48.73Z"/><path class="cls-2" d="M351.82,74.1a50.2,50.2,0,0,1-1.43-15.58c.34-7,.84-14,.93-21,0-2.45-1-4.85-1.44-7.28A2,2,0,0,1,350,29c.75-1.45,1.54-2.91,2.46-4.33a7.47,7.47,0,0,1,1.67-1.41,14.14,14.14,0,0,1,7-2.42,18.86,18.86,0,0,1,6.53,1.1c2.31.69,4.22,1.79,6.45,2.59a141.08,141.08,0,0,1,23.6,10.94c5.65,3.28,9.9,7.21,11.54,11.9,1.24,3.58,1.4,7.33-2.16,10.78a50.79,50.79,0,0,1-6.7,5.11c-2.11,1.43-4.44,2.77-6.78,4.08-5.3,3-11.52,5.18-17.48,7.62a95.93,95.93,0,0,1-16.84,5c-5.3,1.12-10.51,2.47-15.88,3.4a95.25,95.25,0,0,1-10.36.79c-1.16.06-1.91-.39-1.47-1.09,1.09-1.73,1.74-3.53,3.39-5.17a4.47,4.47,0,0,1,3-1.33c3.75-.47,7.47-1,11.19-1.64A25,25,0,0,0,351.82,74.1ZM372.44,33l-.51.3c.59.44,1.61.84,1.7,1.33.3,1.75,1.78,3.6-1.24,5.26-.4.22-.35.72-.49,1.09s-.07,1.11-.54,1.49c-2.16,1.76-2.29,3.82-2.65,5.69-1,5.51-2,11-1.19,16.53.22,1.52.05,3.14,1.29,4.64.76-.2,1.38-.32,1.92-.51,2.74-1,5.47-2,8.17-3a49.83,49.83,0,0,0,16.9-10.25A3.81,3.81,0,0,0,397,52.6c-.28-4.06-3.19-7.47-7.47-10.42a92.14,92.14,0,0,0-8.12-4.85C378.52,35.79,375.43,34.4,372.44,33Z"/></svg>