<svg viewBox="0 0 472.9 119.64" xmlns="http://www.w3.org/2000/svg"><path d="M426.28 2.37v27.71H436v32.61h-.3l-42-60.32H230.33v12.11c-.83-.77-1.7-1.52-2.63-2.23q-12.87-9.88-36.82-9.88h-78.69V17.5a62.26 62.26 0 0 0-13.41-9.58Q84 0 65 0 46.22 0 31.42 7.77A57.28 57.28 0 0 0 0 59.71a57.68 57.68 0 0 0 8.38 30.65 58.26 58.26 0 0 0 23.2 21.51 70.12 70.12 0 0 0 33.1 7.77q18.82 0 33.72-7.69a60.55 60.55 0 0 0 13.79-9.68v15.46h67.36V90H168V74.33h29.32a56.87 56.87 0 0 0 21.28-4 36.6 36.6 0 0 0 15.92-11.86 28.48 28.48 0 0 0 4.77-9.61V90h-8.95v27.71h156V90H376V49.37h.31l48.45 70.27h38.12V30.08h10V2.37Zm-347.63 77q-1.41 7.11-4.71 10.18t-9 3.06c-3.73 0-6.66-1-8.81-3.06s-3.68-5.44-4.63-10.18a106.61 106.61 0 0 1-1.41-19.67q0-12.87 1.49-19.91c1-4.69 2.56-8 4.71-9.95a12.39 12.39 0 0 1 8.71-2.9q5.51 0 8.72 3T78.5 40q1.56 7 1.57 19.75a106.46 106.46 0 0 1-1.42 19.63ZM190.5 46.23q-3.37 2.69-9.65 2.68H168v-21.2h11.56q6.88 0 10.6 2.45c2.48 1.63 3.71 4.39 3.71 8.27q-.01 5.13-3.37 7.8ZM349.2 90h-8.8v-9.09h-30.24V90H284V71.19h22.89v-23.5H284V30.08h26.18v9.11h30.22v-9.11h8.8Z" style="fill:#f6d809"/><path d="M354.18 87.61c0-.54-.1-1.09-.12-1.64-.06-1 2.34-12.35 2.79-14.69.82-4.17 1.69-8.35 2.51-12.52 1.06-5.39 2.28-10.76 3.59-16.12.21-.87.41-1.74.6-2.62.24-1.12 3.16-17 3.48-18.84.05-.29.11-.59.17-.88a.68.68 0 0 1 .56-.47 12 12 0 0 1 2.93-.24 3.23 3.23 0 0 1 1.52.5c.31.18 9.57 4.77 10.34 5.17.37.19 8.9 4.29 12.75 6.19 1.49.74 3 1.49 4.48 2.2a41 41 0 0 1 7.36 4.49c1.6 1.23 3.19 2.48 4.75 3.74a18.17 18.17 0 0 1 5.6 7.86 8.51 8.51 0 0 1 .58 2.84A17.25 17.25 0 0 1 417 59a30.72 30.72 0 0 1-2.08 4.43 13.72 13.72 0 0 1-1.92 2.68 74.8 74.8 0 0 1-14.64 12.23c-3.32 2.11-22.81 15.62-22.91 15.78a8.25 8.25 0 0 1-3 .95c-1.11.14-2.22.26-3.33.34-2.13.17-4.26.31-6.39.45a13.51 13.51 0 0 1-2.73-.16 3.85 3.85 0 0 1-1.6-.59 5.83 5.83 0 0 0-1.3-.64 2.81 2.81 0 0 1-2-2 21 21 0 0 1-.92-4.86Zm43.67-34.83a4.76 4.76 0 0 0-1.41-3.07 15.18 15.18 0 0 0-1.65-1.42A22.27 22.27 0 0 0 390.9 46c-1.27-.59-2.51-1.21-3.76-1.81a12.6 12.6 0 0 0-1.19-.52 5.37 5.37 0 0 0-1.21-.31 2.85 2.85 0 0 0-2.65.85 3.41 3.41 0 0 0-.58.94 9.58 9.58 0 0 0-.43 1.38c-.76 3.33-1.49 6.67-2.26 10-.4 1.77-.81 3.53-1.27 5.29s-1 3.8-1.55 5.7a6.94 6.94 0 0 0-.25 1.48 2.46 2.46 0 0 0 .22 1.22 2 2 0 0 0 2 .86 4.22 4.22 0 0 0 1.66-.6 14.47 14.47 0 0 0 1.28-.88 35.9 35.9 0 0 1 4.35-3 80.28 80.28 0 0 0 6.94-4.7 11 11 0 0 0 2.65-2.76c.49-.72 1-1.44 1.5-2.16a9.25 9.25 0 0 0 1.19-2.37 5.13 5.13 0 0 0 .31-1.83Zm-84.53 43.35c-3-.12-10-1.24-10.39-1.33a6.2 6.2 0 0 1-3.07-1.56 30.89 30.89 0 0 1-3.43-3.86c-1-1.39-2-2.78-3-4.18a10.49 10.49 0 0 1-2-7.1 44.59 44.59 0 0 1 1.23-7.41c.65-2.37 1.41-4.71 2.07-7.08 1.38-5 9.77-26 10.11-26.18.63-.26 1.25-.53 1.9-.77 1.58-.58 3.18-1.14 4.77-1.72.94-.34 1.85-.72 2.78-1.08 2.64-1 5.3-2 7.92-3.08 1.44-.57 2.8-1.26 4.22-1.86a129.9 129.9 0 0 1 5.42-2.14c.89-.32 20.64-5.64 22-5.85.32-.05.64-.07.95-.1a1.12 1.12 0 0 1 .93.36l.15.2c.79 1.27 1.61 2.53 2.36 3.81a9.2 9.2 0 0 1 1.08 6.12 8 8 0 0 1-.52 1.62c-.09.26-8.2 3.09-9.3 3.37-2.61.67-18.06 6.43-22.05 7.9-.75.28-1.5.57-2.24.88a7.93 7.93 0 0 0-1.68.91 3 3 0 0 0-1.11 1.38c-.33 1 .63 1.91 2 1.83a6.14 6.14 0 0 0 1.42-.26c.59-.15 1.15-.36 1.71-.56q6.09-2.14 12.48-3.75c1.58-.39 3.17-.79 4.77-1.15 1-.22 2-.4 3.05-.58a4.38 4.38 0 0 1 1.83.22 9 9 0 0 1 2.49 3.41 10.24 10.24 0 0 1 .39 1.59c.14.95.22 1.9.31 2.85 0 .32 0 .64.07 1a6.16 6.16 0 0 1-.66 3.17c-.54.31-5.8 2.67-7.93 3.47-5.82 2.18-30.66 6.83-31.47 8.56-.14.3-1.7 6.87-2 9.13a6.72 6.72 0 0 0 2.24 5.88 8.13 8.13 0 0 0 3.37.89c1.07 0 21.3-3.88 23.08-3.91a2.55 2.55 0 0 1 .39 0 .59.59 0 0 1 .58.51 5.59 5.59 0 0 1-.12 1.29 4 4 0 0 1-.32.85c-1.23 2.44-2.24 4.94-3.26 7.44a13.42 13.42 0 0 1-3 4.48 2.74 2.74 0 0 1-1.68.79c-2.13.28-4.24.61-6.4.72-1.62.09-4.25.38-5.84.61a27.19 27.19 0 0 1-6.6.27ZM122.6 26.11c.49 0 1-.06 1.48-.05a7.63 7.63 0 0 1 4.92 1.48c.84.67 1.67 1.36 2.47 2.06a5.64 5.64 0 0 1 2.12 4.66 2.63 2.63 0 0 1-.49 1.39 28.3 28.3 0 0 1-6.16 3c-.72.17-9 2.23-9.91 2.39a18.07 18.07 0 0 0-5.53 1.81c-1 .5-1.9 1-2.8 1.55a4.68 4.68 0 0 0-1 .8 1.43 1.43 0 0 0-.18 1.74c.34.72 7.31 2 8.69 2.29l2.52.44a8.26 8.26 0 0 1 4.37 2c.43.4.86.81 1.24 1.24.74.81 1.46 1.64 2.16 2.47a8.49 8.49 0 0 1 .81 1.11 2.63 2.63 0 0 1 .36 2 4.32 4.32 0 0 1-.19.68 27.36 27.36 0 0 1-2.19 4.62 34.72 34.72 0 0 1-7.73 8.85c-.94.76-1.84 1.56-2.75 2.35a29 29 0 0 1-4.81 3.43c-1.83 1-3.66 2-5.51 3-2.13 1.12-4.42 2-6.71 3-1.49.6-3 1.17-4.51 1.77s-2.92 1.18-4.4 1.75c-1.1.42-2.2.86-3.36 1.2a86.22 86.22 0 0 0-9.51 3.5c-1.07.46-2.13.94-3.22 1.39s-6.65 2.1-7.77 2a14.43 14.43 0 0 1-3.56-.63c-.93-.29-1.87-.58-2.79-.9a9.09 9.09 0 0 1-3.19-1.9c-.12-.1-.21-.22-.32-.33a1.13 1.13 0 0 1-.18-1.4 10.82 10.82 0 0 1 3.59-3.85c2.11-1.32 4.26-2.61 6.24-4a26 26 0 0 1 5.35-3c.77-.31 9.07-4.72 9.55-5 2.68-1.29 5.17-2.75 7.88-4 1.29-.6 12.73-7.39 12.85-7.61.43-.77.11-1.48-.88-1.92a6.36 6.36 0 0 0-1.17-.36c-.47-.11-1-.19-1.45-.27a43.06 43.06 0 0 1-9-2.5A9.4 9.4 0 0 1 84 55.67 18.28 18.28 0 0 1 82.21 53a3.73 3.73 0 0 1-.34-3.05A10.18 10.18 0 0 1 84 46.44a46.77 46.77 0 0 1 5.27-5.15c1.8-1.49 3.64-3 5.58-4.36a38.34 38.34 0 0 1 7.9-4.42c1-.42 5-2.29 5.51-2.45s.87-.32 1.3-.5c.73-.3 11.98-3.43 13.04-3.45Zm64.8 41.12c-.12-2.36-.79-30.25-1-30.63a3.42 3.42 0 0 1-.17-2.57c.24-.72.44-.86 1.24-.91a19 19 0 0 1 3.85.11c2.41.32 4.82.71 7.22 1.13a15 15 0 0 1 5.09 2 10.29 10.29 0 0 0 1 .55 1.72 1.72 0 0 1 1 1.12 23.35 23.35 0 0 1 .7 5.38 38.24 38.24 0 0 1-.35 5.66c-.49 3.31-.71 6.65-.88 10-.07 1.24-.15 2.48-.22 3.71a38.16 38.16 0 0 0 .74 9.1 15.24 15.24 0 0 0 .83 2.93 7.5 7.5 0 0 0 1.16 2.1 2.23 2.23 0 0 0 3.28.19 4.39 4.39 0 0 0 .74-.93 16 16 0 0 0 .79-1.54c.67-1.46 5.36-7.87 6.08-12.17a84.15 84.15 0 0 0 2.8-10.67c.38-2.06.78-4.12 1.27-6.15q1-4.38 1.64-8.83c.29-2.05.58-4.09.9-6.14.16-1 .36-1.95.57-2.91a6.72 6.72 0 0 1 .44-1.38 3.32 3.32 0 0 1 .79-1.11 1.59 1.59 0 0 1 1.69-.24 4.27 4.27 0 0 1 1.2.8 11 11 0 0 0 2.66 1.78 6.19 6.19 0 0 1 2.31 2c.86 1.18 1.76 2.34 2.62 3.53a14.28 14.28 0 0 1 1 1.55 6.63 6.63 0 0 1 .86 3.68 66.08 66.08 0 0 0 .35 7.83 25.36 25.36 0 0 1-.09 3.8 21.63 21.63 0 0 0-.06 4.62 9.06 9.06 0 0 1-.13 2.44 34 34 0 0 0-.69 4.37 20.28 20.28 0 0 1-.5 3 131.56 131.56 0 0 1-5.79 17.3q-.8 2-1.74 4a18.66 18.66 0 0 1-2.88 4.56 19.1 19.1 0 0 1-4.15 3.23c-4.88 3-12.11 3.52-17.34 1.85a15.07 15.07 0 0 1-6.23-3.74c-1.75-1.75-3.57-3.43-5.45-5.06a46.33 46.33 0 0 1-4.35-5.49 11.36 11.36 0 0 1-1.68-4.57c-.23-1.71-.47-3.41-.67-5.11-.21-1.4-.33-2.87-.45-4.17Zm56.98 8.04v-3a23.87 23.87 0 0 1 .41-4.63c.26-1.39 1.71-7 2-7.92a48.31 48.31 0 0 1 3.44-7.72 13.6 13.6 0 0 0 1.69-3.52 12.55 12.55 0 0 1 1.82-3.33c1.23-1.72 5.41-8.22 6.2-9.77a13.52 13.52 0 0 1 3.24-4.13c.82-.7 1.63-1.4 2.42-2.14a18.07 18.07 0 0 1 3.45-2.54c.67-.37 1.19-1.05 2-1.18 8.9-1.55 13.73 6 14.66 7.85a29.86 29.86 0 0 1 1.82 6.34c-.17.84-2.39 1.55-2.87 1.65a6.65 6.65 0 0 0-3.43 2c-.29.32-.58.63-.85 1-2.4 3-4.88 6-7 9.26-1.26 1.93-2.59 3.82-3.86 5.75a66.23 66.23 0 0 0-5.14 9.29 16.82 16.82 0 0 0-1.38 5.53 14.4 14.4 0 0 0 .39 5.23 11.5 11.5 0 0 0 .77 2 5.1 5.1 0 0 0 2.21 2.22 7.93 7.93 0 0 0 5.33.71 12.88 12.88 0 0 0 2.53-.73 41.74 41.74 0 0 1 6.71-1.79 5.38 5.38 0 0 1 2-.07c1 .16 2 .34 3 .57s3.93 3.32 4 4.19c.11 1.23-1.95 7.55-2.41 7.79a6.22 6.22 0 0 1-.78.37c-1.58.56-6.3 3.36-7.38 3.59-.87.19-1.73.36-2.6.52-2.06.37-4.12.75-6.19 1.08-1.07.17-2.15.26-3.23.35s-7-1.45-8.75-2a27.42 27.42 0 0 1-5.78-4.68c-1.24-1.52-2.49-3-3.85-4.46a14.63 14.63 0 0 1-3.51-6.09 25.49 25.49 0 0 1-1.08-7.59ZM132.31 95.39a17 17 0 0 1-5.82-1.89 4.85 4.85 0 0 1-.82-.53 6.37 6.37 0 0 1-1.84-2.87 6.89 6.89 0 0 1-.18-2.39 22.75 22.75 0 0 1 1.24-5.39c.16-.43.28-.88.43-1.31.29-.88 2-5.5 2.38-6.51.66-1.76 5.14-12.17 5.92-13 1-1 4.44-11.22 5.14-12.41.19-.33.37-.67.56-1 .47-.84 3.77-7.77 4.11-8.39.15-.27 2.9-5 5.09-8.78a12.33 12.33 0 0 1 8.7-5.69h.32a11 11 0 0 1 5.34.66c2.62 1 6.8 2.61 7.54 2.94a7.83 7.83 0 0 1 3.33 2.73 28.76 28.76 0 0 1 1.61 2.6A15.34 15.34 0 0 1 176.8 38c.66 3.2 1.32 6.41 1.94 9.61a23.7 23.7 0 0 1 .36 2.49c.08 1.12.48 8.58.37 10.76-.1 2 0 4 .06 6.05.06 1.39.66 10.49.65 11.88s0 2.72 0 4.08a46.13 46.13 0 0 1-.46 5.24c-.07.45-.16.89-.25 1.33a4.4 4.4 0 0 1-1.81 2.62 12.28 12.28 0 0 1-3.38 1.68c-.4.12-30.15-.49-38 1.42a10.59 10.59 0 0 1-3.97.23Z" style="fill:#ed5332"/></svg>