<svg width="99" height="122" viewBox="0 0 99 122" xmlns="http://www.w3.org/2000/svg"><path fill="#ED5332" stroke="#FFF5F5" stroke-width="5" d="M16.62 120.1a28.6 28.6 0 0 1-9.8-3.19 7.6 7.6 0 0 1-1.37-.91 10.75 10.75 0 0 1-3.1-4.82 11.62 11.62 0 0 1-.29-4 37.89 37.89 0 0 1 2.08-9.06c.27-.73.47-1.47.72-2.21.49-1.46 3.36-9.23 4-10.94 1.12-3 8.64-20.46 10-21.76 1.69-1.67 7.46-18.86 8.64-20.87.33-.56.63-1.12.95-1.69.79-1.42 6.34-13.07 6.9-14.1.25-.45 4.88-8.42 8.57-14.76a20.7 20.7 0 0 1 14.56-9.56h.1l.42-.08a18.5 18.5 0 0 1 9 1.11C72.4 5 79.43 7.65 80.67 8.2a13.19 13.19 0 0 1 5.6 4.59A51 51 0 0 1 89 17.16a25.51 25.51 0 0 1 2.39 6.54c1.11 5.39 2.22 10.77 3.27 16.16a34.91 34.91 0 0 1 .59 4.19c.15 1.87.82 14.41.64 18.07A101.68 101.68 0 0 0 96 72.3c.11 2.34 1.12 17.62 1.09 20-.03 2.38 0 4.58-.06 6.87a76.48 76.48 0 0 1-.78 8.8c-.12.75-.26 1.49-.42 2.23a7.28 7.28 0 0 1-3 4.4 20.14 20.14 0 0 1-5.68 2.83c-.66.2-50.67-.82-63.88 2.39a17.59 17.59 0 0 1-6.65.28Z"/></svg>