<svg xmlns="http://www.w3.org/2000/svg" width="99" height="122" viewBox="0 0 99 122">
  <path fill="#ED5332" stroke="#FFF5F5" stroke-width="5" d="M14.62,118.1 L14.62,118.1 C11.1871158,117.638874 7.86654655,116.557994 4.82,114.91 C4.3317596,114.657118 3.87240386,114.351999 3.45,114 C1.99955653,112.703442 0.928149542,111.037577 0.35,109.18 C0.0222331896,107.873552 -0.0758946827,106.520064 0.06,105.18 C0.378847145,102.086075 1.07743645,99.0431817 2.14,96.12 C2.41,95.39 2.61,94.65 2.86,93.91 C3.35,92.45 6.22,84.68 6.86,82.97 C7.98,79.97 15.5,62.51 16.86,61.21 C18.55,59.54 24.32,42.35 25.5,40.34 C25.83,39.78 26.13,39.22 26.45,38.65 C27.24,37.23 32.79,25.58 33.35,24.55 C33.6,24.1 38.23,16.13 41.92,9.79 C45.131195,4.61712306 50.4568954,1.12030332 56.48,0.23 L56.58,0.23 L57,0.15 C60.0456297,-0.232374275 63.1385427,0.149085 66,1.26 C70.4,3 77.43,5.65 78.67,6.2 L78.67,6.2 C80.9282921,7.17765349 82.8680547,8.76756607 84.27,10.79 C85.2530509,12.1997371 86.1642135,13.6582647 87,15.16 C88.091839,17.2205161 88.8959948,19.4210095 89.39,21.7 C90.5,27.09 91.61,32.47 92.66,37.86 C92.9412065,39.2434522 93.138235,40.6426885 93.25,42.05 C93.4,43.92 94.07,56.46 93.89,60.12 C93.7566603,63.5130413 93.7933729,66.9106322 94,70.3 C94.11,72.64 95.12,87.92 95.090655,90.3 C95.06,92.68 95.090655,94.88 95.03,97.17 C94.9397791,100.115912 94.6793447,103.054146 94.25,105.97 C94.13,106.72 93.99,107.46 93.83,108.2 C93.4215823,109.992913 92.3498063,111.564852 90.83,112.6 C89.0981159,113.837568 87.1809893,114.792756 85.15,115.43 C84.49,115.63 34.48,114.61 21.27,117.82 C19.091352,118.335687 16.8342863,118.430722 14.62,118.1 Z" transform="translate(2 2)"/>
</svg>
