<svg id="working" xmlns="http://www.w3.org/2000/svg" viewBox="0 0 472.9 119.64"><defs><style>.cls-1{fill:#f6d809;}.cls-2{fill:#ed5332;}</style></defs><title>open_sauced_final_assets</title><path class="cls-1" d="M426.28,2.37V30.08H436V62.69h-.3l-42-60.32H230.33V14.48c-.83-.77-1.7-1.52-2.63-2.23q-12.87-9.88-36.82-9.88H112.19V17.5A62.26,62.26,0,0,0,98.78,7.92Q84,0,65,0,46.22,0,31.42,7.77A57.28,57.28,0,0,0,0,59.71,57.68,57.68,0,0,0,8.38,90.36a58.26,58.26,0,0,0,23.2,21.51,70.12,70.12,0,0,0,33.1,7.77q18.82,0,33.72-7.69a60.55,60.55,0,0,0,13.79-9.68v15.46h67.36V90H168V74.33h29.32a56.87,56.87,0,0,0,21.28-4,36.6,36.6,0,0,0,15.92-11.86,28.48,28.48,0,0,0,4.77-9.61V90h-8.95v27.71h156V90H376V49.37h.31l48.45,70.27h38.12V30.08h10V2.37Zm-347.63,77q-1.41,7.11-4.71,10.18t-9,3.06c-3.73,0-6.66-1-8.81-3.06s-3.68-5.44-4.63-10.18a106.61,106.61,0,0,1-1.41-19.67q0-12.87,1.49-19.91c1-4.69,2.56-8,4.71-9.95A12.39,12.39,0,0,1,65,26.94q5.51,0,8.72,3T78.5,40q1.56,7,1.57,19.75A106.46,106.46,0,0,1,78.65,79.38ZM190.5,46.23q-3.37,2.69-9.65,2.68H168V27.71h11.56q6.88,0,10.6,2.45c2.48,1.63,3.71,4.39,3.71,8.27Q193.86,43.56,190.5,46.23ZM349.2,90h-8.8V80.91H310.16V90H284V71.19h22.89V47.69H284V30.08h26.18v9.11H340.4V30.08h8.8Z"/><path class="cls-2" d="M230.05,50.05c.64-.49.86-.57.9-.69,2.22-5.56,8.63-8.62,16.13-11.12,6.39-2.12,12.78-1.62,19.08-.13A14,14,0,0,1,271,40.79c1.25.93.84,2.23-.43,2.8s-3.56.49-4.52-.36c-3.65-3.26-8.57-3-13.55-1.93-9.47,2-14.67,6.26-16,12.52A28.61,28.61,0,0,0,236.87,67c.89,3.48,3.59,6.48,8.22,8.51a36.31,36.31,0,0,0,18.73,2.77,40.42,40.42,0,0,0,9.44-1.88,7.8,7.8,0,0,1-.2-1.06c-.13-1.76.95-2.92,3.06-3.32,1.91-.36,5.66.37,6.46,1.45a2,2,0,0,1,.23,2.17,8.52,8.52,0,0,1-4.18,3.13A53.81,53.81,0,0,1,250.35,81c-8.62-1.61-15.42-4.94-18.18-10.79-.38-.8-.9-1.57-1.37-2.35a8,8,0,0,0-.64-.78A11.82,11.82,0,0,0,230,69.2c.58,4.72,1,9.46,1.9,14.16a31.24,31.24,0,0,0,4.74,11.48c1.07,1.6.77,1.92-1.91,3.25-.79-.61-1.67-1.19-2.4-1.84-3.2-2.85-4.44-6.19-5.66-9.52-1.73-4.7-2.06-9.52-2.63-14.31,0-.33-.13-.66-.29-1.43l-2.28,1.86c-2.52,2-5,4.07-9.2,4.8-5.15.89-10.28-.44-12.95-3.35a13.09,13.09,0,0,1-3.32-8,40.52,40.52,0,0,1,2-16.24,18.76,18.76,0,0,0,1-5.8c-.7.34-1.38.7-2.11,1A30.62,30.62,0,0,1,192.56,47a10.27,10.27,0,0,1-3.45,0c-1.62-.2-2.84-.79-3-1.94s1.31-1.51,2.68-1.8a12,12,0,0,0,6.47-3.66c1.9-2,3.69-4,5.69-5.87a7.51,7.51,0,0,1,2.82-1.61c2.88-.87,5.36.1,5.62,2.1a3.78,3.78,0,0,1-.17,1.45c-2,7-4.24,14-6,21a21.94,21.94,0,0,0,.22,12.91,11.24,11.24,0,0,0,2.76,3.94,4.75,4.75,0,0,0,5.39.47c3.47-1.68,6.37-3.71,7.39-6.47a37.74,37.74,0,0,0,1.91-7.41c.84-5.41,1.5-10.84,2.14-16.26a38.27,38.27,0,0,0,.23-6.05c-.09-1.82.7-2.57,4.64-2.95,2.2-.22,4.26,1,4.4,2.49a5.4,5.4,0,0,1-.57,2.66C230.28,43.15,230.3,46.41,230.05,50.05Z"/><path class="cls-2" d="M178.79,82.17a20.67,20.67,0,0,1-7.88-2,21.38,21.38,0,0,0-6.39-1.5c-3.53-.36-5.32-2.06-7.52-3.47-.36-.23-.35-.78-.31-1.18.51-4.59.77-9.2,1.67-13.76,1.77-8.93,3.65-17.86,3.63-26.89,0-1.25-.31-2.51-.29-3.76,0-.87-.09-1.92,1.61-2.31a5.73,5.73,0,0,1,4.57.6,8.26,8.26,0,0,1,2.18,2.51c1.69,2.87,3.25,5.76,4.88,8.64a1.64,1.64,0,0,0,.74.68c2.31,1,2.41,2.51,2.77,4a15.78,15.78,0,0,0,1.26,3.87,70.59,70.59,0,0,1,5.78,16.09c.87,3.37,1.92,6.71,2.81,10.08a25,25,0,0,1,.61,3.73,3.58,3.58,0,0,0,1.82,2.59c2.25,1.55,1.73,3.41-1.25,4.45-1.07.37-1.69.75-1.87,1.54-.27,1.17-1.67,1.57-3.33,1.63-2,.07-3.55-.52-4.16-1.62a11.72,11.72,0,0,1-.73-1.82C179.18,83.64,179,83,178.79,82.17Z"/><path class="cls-2" d="M326.59,71.71c-.14,1.84-.27,3.49-.39,5.14s-.71,2.06-3.28,2.63A9.78,9.78,0,0,1,321.65,77a71.64,71.64,0,0,1-.75-7.3c-.06-1-.38-1.67-1.84-2.23-1.09-.42-3.08-.88-2.38-1.94.43-.62,2.19-.89,4-1.54.09-2.19.4-4.83-1.09-7.34a3.33,3.33,0,0,1,.06-3.8,6.18,6.18,0,0,0,.6-3.68,47.68,47.68,0,0,0-1-6c-.51-2.34,2.09-3.86,5.51-3.17,1.89.39,2.32,1.4,2.4,2.47a23.32,23.32,0,0,1-.21,3.08,4.44,4.44,0,0,0,2.71-1.83A57.13,57.13,0,0,1,343.06,34c3.4-1.83,8.6-1.69,11.4,1.31a62.16,62.16,0,0,1,7.25,10.06,52.68,52.68,0,0,1,6.36,14c1.11,4.26,1.09,8.59,1,12.9-.06,2.72-.45,5.43-.64,8.15-.16,2.44-2.31,3.89-5.78,4.52-7.94,1.45-14.95.3-20.92-3.32A12.3,12.3,0,0,1,339,79.6a7.36,7.36,0,0,0-5.28-2.8c-1-.1-1.77-1.14-2.53-1.81A14.59,14.59,0,0,0,326.59,71.71Zm21.05-34.59c-1.93,1.11-3.8,2.05-5.45,3.14-5.38,3.55-9,7.87-12.87,12.08a7.27,7.27,0,0,0-1.08,1.74c-1.89,3.64-1.86,7.41-1.66,11.18a2.23,2.23,0,0,0,.94,1.44,15.94,15.94,0,0,0,2.41,1.42,6.54,6.54,0,0,0,4.32,1.08,4,4,0,0,1,4.12,1.9,25.3,25.3,0,0,0,3.4,4.74c3.33,3.64,8,6,15,6.08,3.76,0,6-1.08,6.4-3.46.77-4,.42-8.08.16-12.11a34.73,34.73,0,0,0-1.4-7.47c-1.63-5.65-5.08-10.93-8.78-16.14C351.81,40.85,350.64,38.87,347.64,37.12Z"/><path class="cls-2" d="M138.19,74.32a2.68,2.68,0,0,0,.12.88c2.72,5.6,1.81,11.34,1.63,17,0,.34.06.78-.24,1a5.17,5.17,0,0,1-2.26,1.27,1.8,1.8,0,0,1-2.16-1.27,33.87,33.87,0,0,1-.42-3.75c-.37-3.76-.69-7.51-1.14-11.26a10.26,10.26,0,0,0-1-2.44,13,13,0,0,0-1.81,0,59.77,59.77,0,0,1-24.5-.73c-3.78-.91-6.39-2.66-7.93-5A11.82,11.82,0,0,1,97,66.89c-.73-2.52,1.8-4.81,5.81-5.48a43.69,43.69,0,0,1,17.38,1c5.71,1.34,10.43,3.5,13.84,6.75.37.35.69.72,1,1a13,13,0,0,0,5.91-2.63,25.52,25.52,0,0,0,3.69-2.92c1.73-1.71,1.16-3.26-1.6-4.26a50.56,50.56,0,0,0-10.64-2.71c-6.74-.92-13.56-1.77-19.88-3.58-4-1.13-7.24-2.94-8.45-5.76s.72-5.4,4.66-6.7c5-1.65,9.9-3.31,15-4.75,4.3-1.22,9-1.17,13.59-.89,2.41.15,4.23,1.25,4.72,2.84a1.84,1.84,0,0,1-.89,1.82,4.14,4.14,0,0,1-2.65.24c-5.42-2.22-10.58-1-15.64.42-3.37,1-6.66,2.13-9.79,3.39-4.3,1.73-4,4.32.58,5.79a78.57,78.57,0,0,0,8.3,1.94c6.27,1.23,12.62,2.3,18.85,3.59a22.11,22.11,0,0,1,8.83,3.82c3,2.22,2.74,4.51.81,6.79a23.17,23.17,0,0,1-8.08,5.71C141,72.93,139.74,73.57,138.19,74.32Zm-8-2.43a3.85,3.85,0,0,0-.52-.88,11.64,11.64,0,0,0-1.18-1c-3.38-2.65-7.92-4.06-13-4.91a26.77,26.77,0,0,0-8.75,0c-3.62.6-4.76,2.37-3.07,4.48a7.53,7.53,0,0,0,4.58,2.53A52.86,52.86,0,0,0,130.2,71.89Z"/><path class="cls-2" d="M291.71,28.81a192,192,0,0,0-1.16,29.51c1.48.15,2.62.29,3.76.38,1.41.13,2.89.1,4.22.36.82.17,1.87.71,2,1.17s-.56,1.24-1.24,1.51a19.85,19.85,0,0,1-3.95.89c-4.52.67-4.54.66-4.22,3.58.44,4,.92,8.05,1.39,12.08,0,.19.2.37.42.77a5.27,5.27,0,0,0,1.43-.75c2.06-2.61,5.38-4.57,8.44-6.65a4.64,4.64,0,0,1,3.87-.5c1.14.57,1.52,1.38,1.14,2.26a3.18,3.18,0,0,1-1.15,1.48c-3.73,2.33-6.2,5.21-8.81,8a22.5,22.5,0,0,1-3,2.5c-1.33,1-3,.94-4.81.57s-2.8-1-3-2.22c-.07-.34-.11-.69-.15-1-.54-4.94-1.23-9.87-1.59-14.82-.45-6.12-.69-12.26-.9-18.4-.16-4.6-.26-9.21-.13-13.81.1-4,.51-7.95.87-11.92.16-1.78,3.51-2.86,5.79-1.84a9.93,9.93,0,0,1,2.89,2c3.05,3,6,6,8.94,9,2.24,2.3,4.32,4.67,6.72,6.89a20,20,0,0,0,4.35,2.77c2.12,1.1,2.89,2.17,2.19,3.83s-4.16,1.88-6.15.82A8.37,8.37,0,0,1,308,45.58c-.42-.4-.63-.9-1.12-1.25-3.12-2.22-4.72-5-7-7.53l-7.31-8.1Z"/><path class="cls-2" d="M376,91.23a16.49,16.49,0,0,1-6.64,1c-11,0-21.9-.08-32.84-.06-9.59,0-19.18.07-28.77.2s-19.14.4-28.71.59q-14.71.3-29.43.53a35.4,35.4,0,0,1-4.38-.21c-2.56-.28-4.14-1.68-3.57-3.24a2.87,2.87,0,0,1,1.63-1.14,5.45,5.45,0,0,1,2.29-.2c10.51,1.4,21.12.37,31.68.47,8.58.09,17.16-.07,25.73-.14,5.51,0,11-.15,16.54-.14q10.83,0,21.66.19c9.8.15,19.59.37,29.39.54C372.65,89.7,374.57,89.87,376,91.23Z"/><path class="cls-2" d="M154.73,94.45c-4.63-.14-7.84-2.37-6.21-4,.82-.83,3-1.11,6.3-1,4.25.19,8.53.39,12.8.43q23.87.21,47.72.34c.8,0,1.59,0,2.39.06,1.31,0,2.56.14,2.71.88s-.95,1.12-2.5,1.26-3.11.33-4.69.37q-10,.28-20,.49c-9.22.18-18.44.3-27.66.49-2,0-4.06.28-6.1.41C157.77,94.3,156,94.38,154.73,94.45Z"/><path class="cls-2" d="M128.55,91.08c.12.67-.82,1.27-2,1.3l-10.23.28c-4.73.15-9.46.35-14.19.47a15.94,15.94,0,0,1-2.84-.32c-1.69-.29-2.38-1-2.34-1.93s1.34-1.5,3-1.59c2.35-.13,4.75-.25,7.1-.16,6.51.23,13,.55,19.62.85,1,0,1.87.5,2,1.08Z"/></svg>