<svg width="1019.246" height="807.88" data-name="Layer 1" viewBox="0 0 1019.246 807.88" xmlns="http://www.w3.org/2000/svg"><path fill="#d95c41" d="M560 267h152v152H560zM378 486h284v156H378zM226 235h128v186H226zm447.973-17.723c-5.685 21.015-25.157 34.03-25.157 34.03s-10.256-21.056-4.57-42.072 25.157-34.03 25.157-34.03 10.255 21.057 4.57 42.072Z"/><path fill="#d95c41" d="M622.255 217.277c5.685 21.015 25.158 34.03 25.158 34.03s10.255-21.056 4.57-42.072-25.158-34.03-25.158-34.03-10.255 21.057-4.57 42.072Z"/><path fill="#3f3d56" d="M630.609 212.76c15.6 15.186 17.505 38.53 17.505 38.53s-23.387-1.276-38.987-16.462-17.505-38.53-17.505-38.53 23.387 1.277 38.987 16.463Zm35.011 0c-15.6 15.186-17.506 38.53-17.506 38.53s23.387-1.276 38.987-16.462 17.505-38.53 17.505-38.53-23.387 1.277-38.987 16.463Z"/><path fill="#d95c41" d="M184.571 163.66c21.766.468 39.08 16.24 39.08 16.24s-17.974 15.017-39.74 14.55-39.08-16.24-39.08-16.24 17.975-15.016 39.74-14.55ZM75.144 89.363c19.664 9.342 42.213 3.007 42.213 3.007s-9.333-21.482-28.998-30.824-42.213-3.007-42.213-3.007S55.48 80.02 75.144 89.363Z"/><path fill="#3f3d56" d="M77.143 80.079c21.68-1.981 40.657 11.747 40.657 11.747s-16.174 16.94-37.854 18.922S39.288 99 39.288 99s16.175-16.94 37.855-18.922Zm79.474 3.754c-2.078 21.67 11.565 40.709 11.565 40.709s17.013-16.098 19.09-37.77-11.565-40.71-11.565-40.71-17.012 16.1-19.09 37.77Zm102.104 132.91c-11.371 18.565-7.46 41.657-7.46 41.657s22.35-7.007 33.722-25.572 7.459-41.657 7.459-41.657-22.35 7.007-33.721 25.572Z"/><path fill="#3f3d56" d="m225.73 418.591 1.658-1.12a51.919 51.919 0 0 1-9.163-28.792c.046-15.058 7.442-28.985 14.595-42.454 1.328-2.5 2.651-4.992 3.924-7.482a163.335 163.335 0 0 0 12.704-31.893c11.095-41.23.171-89.874-29.22-130.122-23.315-31.929-58.07-59.849-106.253-85.356l-.936 1.768c47.908 25.361 82.442 53.09 105.575 84.768 29.037 39.763 39.841 87.772 28.902 128.422a161.394 161.394 0 0 1-12.552 31.502c-1.27 2.481-2.588 4.964-3.91 7.455-7.267 13.684-14.781 27.833-14.829 43.386a53.937 53.937 0 0 0 9.506 29.918Z"/><circle cx="19" cy="75" r="19" fill="#3f3d56"/><path fill="#3f3d56" d="M372 404H242V216h130Zm-128-2h126V218H244Z"/><path fill="#fff" d="M258 266h82v2h-82zm-.377 21.94h82v2h-82zm-.377 21.94h82v2h-82zm-.377 21.94h82v2h-82zm-.377 21.94h82v2h-82zm-.377 21.939h82v2h-82zM425 506h214v2H425zm-.377 22.94h214v2h-214zm-.377 22.94h214v2h-214zm-.377 22.94h214v2h-214zm-.377 22.94h214v2h-214zM595 289h100v2H595zm-.377 21.94h100v2h-100zm-.377 21.94h100v2h-100zm-.377 21.94h100v2h-100zm-.377 21.94h100v2h-100z"/><path fill="#3f3d56" d="M685 625H399V467h286Zm-284-2h282V469H401Z"/><path fill="#3f3d56" d="m541.87 469.251-.556-.523-171-161.096 1.372-1.456L542.13 466.749l105.781-64.603 1.043 1.708-107.084 65.397z"/><path fill="#3f3d56" d="M731 404H577V250h154Zm-152-2h150V252H579Z"/><path fill="#2f2e41" d="M954.702 66.536c-18.655-31.52-55.56-32.988-55.56-32.988s-35.963-4.6-59.033 43.406c-21.503 44.744-51.18 87.946-4.777 98.42l8.381-26.087 5.19 28.03a181.558 181.558 0 0 0 19.854.339c49.693-1.604 97.018.47 95.494-17.362-2.026-23.705 8.4-63.43-9.55-93.758Z"/><path fill="#a0616a" d="M972.864 434.805s-23.406 41.35-5.462 44.47 29.648-35.888 29.648-35.888Z"/><path fill="#d0cde1" d="M1018.895 240.535c-3.12 32.769-7.802 205.973-21.065 211.434s-35.109 5.461-35.109 5.461V304.512s5.462-106.888 24.967-119.37h11.281a8.41 8.41 0 0 1 6.749 3.385c.101.133.195.273.289.414 5.07 7.755 15.252 26.76 12.888 51.594Z"/><path fill="#a0616a" d="m816.434 487.468 3.12 85.042s-10.142 83.48-1.56 109.227l24.967 3.901s28.087-83.48 24.186-113.128l16.384-85.042-41.35-52.273Zm95.184-29.648 3.901 41.351 16.384 92.844s9.363 56.954 28.868 93.623l12.483 39.79 21.065-7.802s6.242-81.92-18.725-145.897l-3.9-78.8-26.527-44.47Z"/><path fill="#2f2e41" d="M956.09 324.407 849.202 304.12s-31.208 49.153-41.35 186.468l24.186 6.241 7.022-36.669 4.681 39.01 82.701 7.802 7.802-40.57 5.461 42.91 42.131-7.021s-3.9-146.677-25.746-177.885Zm-107.278 354.6h-36.669l-3.901 23.406s-46.812 68.657-11.703 64.756 35.89-22.626 35.89-22.626 14.823-14.043 16.383-21.065-3.9-24.186-3.9-24.186Zm148.238 24.186-34.329 7.022v50.712s-10.142 49.933 18.725 46.812 24.186-45.251 24.186-45.251Z"/><circle cx="890.943" cy="107.902" r="41.35" fill="#a0616a"/><path fill="#a0616a" d="M883.141 142.23s12.483 27.307 9.362 31.988 62.416-3.12 62.416-3.12-29.647-44.472-29.647-53.834Zm-99.085 254.345s-23.406 41.35-5.462 44.471 29.648-35.889 29.648-35.889Z"/><path d="M975.204 268.622s7.022 36.67-1.56 56.955c-2.56 6.046-6.437 7.724-10.923 7.178v-28.243s5.462-106.888 24.967-119.37h11.281a8.41 8.41 0 0 1 6.749 3.385Z" opacity=".15"/><path fill="#d0cde1" d="M949.063 154.527c-10.208 2.187-46.199 9.627-59.99 8.867a5.193 5.193 0 0 0-2.469.464l-8.924 4.119-40.777 19.315a5.162 5.162 0 0 0-2.838 5.747l14.674 68.48a5.153 5.153 0 0 1-2.706 5.681c-11.924 6.022-47.113 26.803.439 41.993 56.174 17.944 68.657 14.043 80.36 10.922s35.109 25.747 43.691 5.462c7.6-17.963 2.964-48.773 1.803-55.592a5.14 5.14 0 0 1 .266-2.697l29.05-76.256a5.162 5.162 0 0 0-2.478-6.436l-33.375-17.028a5.163 5.163 0 0 1-1.304-.949l-10.694-10.693a5.157 5.157 0 0 0-4.728-1.399Z"/><path fill="#d0cde1" d="M843.35 188.262h-6.23a4.726 4.726 0 0 0-4.642 3.843L812.143 299.05l-20.285 67.097s-49.153 24.186-12.483 37.45 55.394 8.582 51.493-6.242 33.548-111.568 33.548-111.568Z"/><circle cx="903.658" cy="33.707" r="26.685" fill="#2f2e41"/><path fill="#2f2e41" d="M874.165 26.685A26.686 26.686 0 0 1 898.04.15a26.955 26.955 0 0 0-2.81-.15 26.685 26.685 0 1 0 0 53.37 26.955 26.955 0 0 0 2.81-.15 26.686 26.686 0 0 1-23.876-26.535Z"/><path fill="#2f2e41" d="m946.454 63.498-36.461-19.099-50.351 7.813-10.417 46.011 25.932-.998 7.244-16.903v16.625l11.966-.461 6.945-26.911 4.341 28.648 42.538-.868-1.737-33.857z"/><ellipse cx="931.903" cy="101.27" fill="#a0616a" rx="5.461" ry="9.557"/></svg>